M48
; DRILL file {KiCad 7.0.2-0} date 2023 December 31, Sunday 21:22:04
; FORMAT={-:-/ absolute / inch / decimal}
; #@! TF.CreationDate,2023-12-31T21:22:04-05:00
; #@! TF.GenerationSoftware,Kicad,Pcbnew,7.0.2-0
; #@! TF.FileFunction,Plated,1,2,PTH
FMAT,2
INCH
; #@! TA.AperFunction,Plated,PTH,ViaDrill
T1C0.0157
; #@! TA.AperFunction,Plated,PTH,ComponentDrill
T2C0.0197
; #@! TA.AperFunction,Plated,PTH,ComponentDrill
T3C0.0217
; #@! TA.AperFunction,Plated,PTH,ComponentDrill
T4C0.0394
%
G90
G05
T1
X7.1Y-6.04
X7.2198Y-5.9198
X7.24Y-5.24
X7.24Y-5.36
X7.26Y-5.84
X7.28Y-5.9
X7.3053Y-5.24
X7.32Y-6.06
X7.48Y-5.7
X7.54Y-5.9
X7.5598Y-6.0398
X7.6613Y-5.74
X7.68Y-5.9298
X7.6826Y-5.366
X7.7075Y-5.5034
X7.74Y-5.92
X7.7434Y-5.3431
X7.8469Y-5.42
X7.96Y-5.78
X8.0Y-5.68
X8.06Y-5.56
X8.06Y-5.82
X8.1312Y-5.374
X8.2853Y-5.38
X8.3239Y-5.5244
X8.4021Y-5.5285
X8.56Y-5.74
X8.6604Y-5.7804
X8.663Y-5.5462
X8.6758Y-5.97
X8.7034Y-5.5462
X8.74Y-5.5715
X8.7485Y-5.6922
X8.78Y-5.4253
X8.7998Y-5.5998
X8.8Y-5.64
X8.8Y-6.063
X8.8126Y-5.562
X8.8147Y-5.479
X8.84Y-5.5338
X8.84Y-5.4489
X8.8541Y-6.0568
X8.8541Y-6.123
X8.8562Y-5.6416
X8.88Y-5.58
X8.8826Y-5.9187
X8.8941Y-6.043
X8.9156Y-5.328
X8.9636Y-5.74
X8.9741Y-6.063
X8.98Y-5.28
X9.0035Y-5.52
X9.0541Y-6.043
X9.0636Y-5.66
X9.1Y-4.981
X9.1Y-5.22
X9.1019Y-5.64
X9.12Y-5.16
X9.1836Y-5.64
X9.1836Y-5.8
X9.1951Y-5.857
X9.2036Y-5.36
X9.22Y-6.32
X9.24Y-5.16
X9.2941Y-6.083
X9.4036Y-4.96
X9.4141Y-6.063
X9.5141Y-6.143
X9.66Y-5.04
X9.7036Y-5.4736
X9.7036Y-5.06
X9.7036Y-5.86
X9.7043Y-5.6721
X9.7051Y-5.2664
X9.86Y-5.0
X10.3236Y-5.1
X10.3236Y-5.22
X10.3236Y-5.4
X10.3236Y-5.62
X10.3236Y-5.8
X10.3236Y-5.98
T4
X8.62Y-5.62
X8.62Y-5.72
X8.62Y-5.82
X8.62Y-5.92
X8.62Y-6.02
X8.62Y-6.12
X8.62Y-6.22
X8.62Y-6.32
X10.0636Y-5.0036
X10.0636Y-5.1036
X10.0636Y-5.2036
X10.0636Y-5.3036
X10.0636Y-5.4036
X10.0636Y-5.5036
X10.0636Y-5.6036
X10.0636Y-5.7036
X10.0636Y-5.8036
X10.0636Y-5.9036
X10.0636Y-6.0036
X10.0636Y-6.16
X10.0636Y-6.26
X10.2236Y-5.0036
X10.2236Y-5.1036
X10.2236Y-5.2036
X10.2236Y-5.3036
X10.2236Y-5.4036
X10.2236Y-5.5036
X10.2236Y-5.6036
X10.2236Y-5.7036
X10.2236Y-5.8036
X10.2236Y-5.9036
X10.2236Y-6.0036
X10.2236Y-6.16
X10.2236Y-6.26
T2
G00X7.691Y-6.3935
M15
G01X7.691Y-6.4191
M16
G05
G00X7.9666Y-6.3935
M15
G01X7.9666Y-6.4191
M16
G05
T3
G00X7.7245Y-6.3
M15
G01X7.7363Y-6.3
M16
G05
G00X7.9213Y-6.3
M15
G01X7.9331Y-6.3
M16
G05
T0
M30
