%TF.GenerationSoftware,KiCad,Pcbnew,7.0.2-0*%
%TF.CreationDate,2023-12-12T20:24:09-05:00*%
%TF.ProjectId,Monolith,4d6f6e6f-6c69-4746-982e-6b696361645f,rev?*%
%TF.SameCoordinates,Original*%
%TF.FileFunction,Paste,Top*%
%TF.FilePolarity,Positive*%
%FSLAX46Y46*%
G04 Gerber Fmt 4.6, Leading zero omitted, Abs format (unit mm)*
G04 Created by KiCad (PCBNEW 7.0.2-0) date 2023-12-12 20:24:09*
%MOMM*%
%LPD*%
G01*
G04 APERTURE LIST*
G04 Aperture macros list*
%AMRoundRect*
0 Rectangle with rounded corners*
0 $1 Rounding radius*
0 $2 $3 $4 $5 $6 $7 $8 $9 X,Y pos of 4 corners*
0 Add a 4 corners polygon primitive as box body*
4,1,4,$2,$3,$4,$5,$6,$7,$8,$9,$2,$3,0*
0 Add four circle primitives for the rounded corners*
1,1,$1+$1,$2,$3*
1,1,$1+$1,$4,$5*
1,1,$1+$1,$6,$7*
1,1,$1+$1,$8,$9*
0 Add four rect primitives between the rounded corners*
20,1,$1+$1,$2,$3,$4,$5,0*
20,1,$1+$1,$4,$5,$6,$7,0*
20,1,$1+$1,$6,$7,$8,$9,0*
20,1,$1+$1,$8,$9,$2,$3,0*%
%AMFreePoly0*
4,1,6,0.600000,-0.600000,-0.600000,-0.600000,-0.600000,0.000000,0.000000,0.600000,0.600000,0.600000,0.600000,-0.600000,0.600000,-0.600000,$1*%
G04 Aperture macros list end*
%ADD10C,0.010000*%
%ADD11RoundRect,0.250000X-0.250000X-0.475000X0.250000X-0.475000X0.250000X0.475000X-0.250000X0.475000X0*%
%ADD12RoundRect,0.225000X0.250000X-0.225000X0.250000X0.225000X-0.250000X0.225000X-0.250000X-0.225000X0*%
%ADD13RoundRect,0.225000X-0.225000X-0.250000X0.225000X-0.250000X0.225000X0.250000X-0.225000X0.250000X0*%
%ADD14RoundRect,0.200000X0.275000X-0.200000X0.275000X0.200000X-0.275000X0.200000X-0.275000X-0.200000X0*%
%ADD15RoundRect,0.225000X0.225000X0.250000X-0.225000X0.250000X-0.225000X-0.250000X0.225000X-0.250000X0*%
%ADD16R,0.400000X1.650000*%
%ADD17R,1.825000X0.700000*%
%ADD18R,2.000000X1.500000*%
%ADD19R,1.350000X2.000000*%
%ADD20R,1.430000X2.500000*%
%ADD21RoundRect,0.243750X-0.243750X-0.456250X0.243750X-0.456250X0.243750X0.456250X-0.243750X0.456250X0*%
%ADD22RoundRect,0.200000X-0.200000X-0.275000X0.200000X-0.275000X0.200000X0.275000X-0.200000X0.275000X0*%
%ADD23RoundRect,0.150000X-0.587500X-0.150000X0.587500X-0.150000X0.587500X0.150000X-0.587500X0.150000X0*%
%ADD24RoundRect,0.008100X-0.426900X-0.126900X0.426900X-0.126900X0.426900X0.126900X-0.426900X0.126900X0*%
%ADD25RoundRect,0.008100X0.426900X0.126900X-0.426900X0.126900X-0.426900X-0.126900X0.426900X-0.126900X0*%
%ADD26R,0.635000X0.406400*%
%ADD27R,0.480000X0.400000*%
%ADD28RoundRect,0.225000X-0.250000X0.225000X-0.250000X-0.225000X0.250000X-0.225000X0.250000X0.225000X0*%
%ADD29RoundRect,0.200000X0.200000X0.275000X-0.200000X0.275000X-0.200000X-0.275000X0.200000X-0.275000X0*%
%ADD30R,1.000000X0.599999*%
%ADD31RoundRect,0.200000X-0.275000X0.200000X-0.275000X-0.200000X0.275000X-0.200000X0.275000X0.200000X0*%
%ADD32RoundRect,0.088500X0.206500X-0.516500X0.206500X0.516500X-0.206500X0.516500X-0.206500X-0.516500X0*%
%ADD33R,0.400000X0.800000*%
%ADD34R,0.800000X0.400000*%
%ADD35FreePoly0,90.000000*%
%ADD36R,1.200000X1.200000*%
%ADD37R,0.800000X0.800000*%
%ADD38RoundRect,0.041300X-0.583700X-0.253700X0.583700X-0.253700X0.583700X0.253700X-0.583700X0.253700X0*%
%ADD39RoundRect,0.011200X0.768800X0.128800X-0.768800X0.128800X-0.768800X-0.128800X0.768800X-0.128800X0*%
%ADD40RoundRect,0.011200X-0.128800X0.768800X-0.128800X-0.768800X0.128800X-0.768800X0.128800X0.768800X0*%
%ADD41R,1.210000X0.730000*%
%ADD42RoundRect,0.140000X-0.140000X-0.170000X0.140000X-0.170000X0.140000X0.170000X-0.140000X0.170000X0*%
G04 APERTURE END LIST*
%TO.C,D2*%
D10*
X265077000Y-138009000D02*
X264727000Y-138009000D01*
X264727000Y-137159000D01*
X265077000Y-137159000D01*
X265077000Y-138009000D01*
G36*
X265077000Y-138009000D02*
G01*
X264727000Y-138009000D01*
X264727000Y-137159000D01*
X265077000Y-137159000D01*
X265077000Y-138009000D01*
G37*
X264427000Y-138009000D02*
X264077000Y-138009000D01*
X264077000Y-137159000D01*
X264427000Y-137159000D01*
X264427000Y-138009000D01*
G36*
X264427000Y-138009000D02*
G01*
X264077000Y-138009000D01*
X264077000Y-137159000D01*
X264427000Y-137159000D01*
X264427000Y-138009000D01*
G37*
X263777000Y-138009000D02*
X263427000Y-138009000D01*
X263427000Y-137159000D01*
X263777000Y-137159000D01*
X263777000Y-138009000D01*
G36*
X263777000Y-138009000D02*
G01*
X263427000Y-138009000D01*
X263427000Y-137159000D01*
X263777000Y-137159000D01*
X263777000Y-138009000D01*
G37*
X265077000Y-140209000D02*
X264727000Y-140209000D01*
X264727000Y-139359000D01*
X265077000Y-139359000D01*
X265077000Y-140209000D01*
G36*
X265077000Y-140209000D02*
G01*
X264727000Y-140209000D01*
X264727000Y-139359000D01*
X265077000Y-139359000D01*
X265077000Y-140209000D01*
G37*
X264427000Y-140209000D02*
X264077000Y-140209000D01*
X264077000Y-139359000D01*
X264427000Y-139359000D01*
X264427000Y-140209000D01*
G36*
X264427000Y-140209000D02*
G01*
X264077000Y-140209000D01*
X264077000Y-139359000D01*
X264427000Y-139359000D01*
X264427000Y-140209000D01*
G37*
X263777000Y-140209000D02*
X263427000Y-140209000D01*
X263427000Y-139359000D01*
X263777000Y-139359000D01*
X263777000Y-140209000D01*
G36*
X263777000Y-140209000D02*
G01*
X263427000Y-140209000D01*
X263427000Y-139359000D01*
X263777000Y-139359000D01*
X263777000Y-140209000D01*
G37*
%TO.C,D1*%
X265077000Y-133437000D02*
X264727000Y-133437000D01*
X264727000Y-132587000D01*
X265077000Y-132587000D01*
X265077000Y-133437000D01*
G36*
X265077000Y-133437000D02*
G01*
X264727000Y-133437000D01*
X264727000Y-132587000D01*
X265077000Y-132587000D01*
X265077000Y-133437000D01*
G37*
X264427000Y-133437000D02*
X264077000Y-133437000D01*
X264077000Y-132587000D01*
X264427000Y-132587000D01*
X264427000Y-133437000D01*
G36*
X264427000Y-133437000D02*
G01*
X264077000Y-133437000D01*
X264077000Y-132587000D01*
X264427000Y-132587000D01*
X264427000Y-133437000D01*
G37*
X263777000Y-133437000D02*
X263427000Y-133437000D01*
X263427000Y-132587000D01*
X263777000Y-132587000D01*
X263777000Y-133437000D01*
G36*
X263777000Y-133437000D02*
G01*
X263427000Y-133437000D01*
X263427000Y-132587000D01*
X263777000Y-132587000D01*
X263777000Y-133437000D01*
G37*
X265077000Y-135637000D02*
X264727000Y-135637000D01*
X264727000Y-134787000D01*
X265077000Y-134787000D01*
X265077000Y-135637000D01*
G36*
X265077000Y-135637000D02*
G01*
X264727000Y-135637000D01*
X264727000Y-134787000D01*
X265077000Y-134787000D01*
X265077000Y-135637000D01*
G37*
X264427000Y-135637000D02*
X264077000Y-135637000D01*
X264077000Y-134787000D01*
X264427000Y-134787000D01*
X264427000Y-135637000D01*
G36*
X264427000Y-135637000D02*
G01*
X264077000Y-135637000D01*
X264077000Y-134787000D01*
X264427000Y-134787000D01*
X264427000Y-135637000D01*
G37*
X263777000Y-135637000D02*
X263427000Y-135637000D01*
X263427000Y-134787000D01*
X263777000Y-134787000D01*
X263777000Y-135637000D01*
G36*
X263777000Y-135637000D02*
G01*
X263427000Y-135637000D01*
X263427000Y-134787000D01*
X263777000Y-134787000D01*
X263777000Y-135637000D01*
G37*
%TO.C,D6*%
X265077000Y-128865000D02*
X264727000Y-128865000D01*
X264727000Y-128015000D01*
X265077000Y-128015000D01*
X265077000Y-128865000D01*
G36*
X265077000Y-128865000D02*
G01*
X264727000Y-128865000D01*
X264727000Y-128015000D01*
X265077000Y-128015000D01*
X265077000Y-128865000D01*
G37*
X264427000Y-128865000D02*
X264077000Y-128865000D01*
X264077000Y-128015000D01*
X264427000Y-128015000D01*
X264427000Y-128865000D01*
G36*
X264427000Y-128865000D02*
G01*
X264077000Y-128865000D01*
X264077000Y-128015000D01*
X264427000Y-128015000D01*
X264427000Y-128865000D01*
G37*
X263777000Y-128865000D02*
X263427000Y-128865000D01*
X263427000Y-128015000D01*
X263777000Y-128015000D01*
X263777000Y-128865000D01*
G36*
X263777000Y-128865000D02*
G01*
X263427000Y-128865000D01*
X263427000Y-128015000D01*
X263777000Y-128015000D01*
X263777000Y-128865000D01*
G37*
X265077000Y-131065000D02*
X264727000Y-131065000D01*
X264727000Y-130215000D01*
X265077000Y-130215000D01*
X265077000Y-131065000D01*
G36*
X265077000Y-131065000D02*
G01*
X264727000Y-131065000D01*
X264727000Y-130215000D01*
X265077000Y-130215000D01*
X265077000Y-131065000D01*
G37*
X264427000Y-131065000D02*
X264077000Y-131065000D01*
X264077000Y-130215000D01*
X264427000Y-130215000D01*
X264427000Y-131065000D01*
G36*
X264427000Y-131065000D02*
G01*
X264077000Y-131065000D01*
X264077000Y-130215000D01*
X264427000Y-130215000D01*
X264427000Y-131065000D01*
G37*
X263777000Y-131065000D02*
X263427000Y-131065000D01*
X263427000Y-130215000D01*
X263777000Y-130215000D01*
X263777000Y-131065000D01*
G36*
X263777000Y-131065000D02*
G01*
X263427000Y-131065000D01*
X263427000Y-130215000D01*
X263777000Y-130215000D01*
X263777000Y-131065000D01*
G37*
%TO.C,D5*%
X265077000Y-152233000D02*
X264727000Y-152233000D01*
X264727000Y-151383000D01*
X265077000Y-151383000D01*
X265077000Y-152233000D01*
G36*
X265077000Y-152233000D02*
G01*
X264727000Y-152233000D01*
X264727000Y-151383000D01*
X265077000Y-151383000D01*
X265077000Y-152233000D01*
G37*
X264427000Y-152233000D02*
X264077000Y-152233000D01*
X264077000Y-151383000D01*
X264427000Y-151383000D01*
X264427000Y-152233000D01*
G36*
X264427000Y-152233000D02*
G01*
X264077000Y-152233000D01*
X264077000Y-151383000D01*
X264427000Y-151383000D01*
X264427000Y-152233000D01*
G37*
X263777000Y-152233000D02*
X263427000Y-152233000D01*
X263427000Y-151383000D01*
X263777000Y-151383000D01*
X263777000Y-152233000D01*
G36*
X263777000Y-152233000D02*
G01*
X263427000Y-152233000D01*
X263427000Y-151383000D01*
X263777000Y-151383000D01*
X263777000Y-152233000D01*
G37*
X265077000Y-154433000D02*
X264727000Y-154433000D01*
X264727000Y-153583000D01*
X265077000Y-153583000D01*
X265077000Y-154433000D01*
G36*
X265077000Y-154433000D02*
G01*
X264727000Y-154433000D01*
X264727000Y-153583000D01*
X265077000Y-153583000D01*
X265077000Y-154433000D01*
G37*
X264427000Y-154433000D02*
X264077000Y-154433000D01*
X264077000Y-153583000D01*
X264427000Y-153583000D01*
X264427000Y-154433000D01*
G36*
X264427000Y-154433000D02*
G01*
X264077000Y-154433000D01*
X264077000Y-153583000D01*
X264427000Y-153583000D01*
X264427000Y-154433000D01*
G37*
X263777000Y-154433000D02*
X263427000Y-154433000D01*
X263427000Y-153583000D01*
X263777000Y-153583000D01*
X263777000Y-154433000D01*
G36*
X263777000Y-154433000D02*
G01*
X263427000Y-154433000D01*
X263427000Y-153583000D01*
X263777000Y-153583000D01*
X263777000Y-154433000D01*
G37*
%TO.C,D3*%
X265077000Y-143089000D02*
X264727000Y-143089000D01*
X264727000Y-142239000D01*
X265077000Y-142239000D01*
X265077000Y-143089000D01*
G36*
X265077000Y-143089000D02*
G01*
X264727000Y-143089000D01*
X264727000Y-142239000D01*
X265077000Y-142239000D01*
X265077000Y-143089000D01*
G37*
X264427000Y-143089000D02*
X264077000Y-143089000D01*
X264077000Y-142239000D01*
X264427000Y-142239000D01*
X264427000Y-143089000D01*
G36*
X264427000Y-143089000D02*
G01*
X264077000Y-143089000D01*
X264077000Y-142239000D01*
X264427000Y-142239000D01*
X264427000Y-143089000D01*
G37*
X263777000Y-143089000D02*
X263427000Y-143089000D01*
X263427000Y-142239000D01*
X263777000Y-142239000D01*
X263777000Y-143089000D01*
G36*
X263777000Y-143089000D02*
G01*
X263427000Y-143089000D01*
X263427000Y-142239000D01*
X263777000Y-142239000D01*
X263777000Y-143089000D01*
G37*
X265077000Y-145289000D02*
X264727000Y-145289000D01*
X264727000Y-144439000D01*
X265077000Y-144439000D01*
X265077000Y-145289000D01*
G36*
X265077000Y-145289000D02*
G01*
X264727000Y-145289000D01*
X264727000Y-144439000D01*
X265077000Y-144439000D01*
X265077000Y-145289000D01*
G37*
X264427000Y-145289000D02*
X264077000Y-145289000D01*
X264077000Y-144439000D01*
X264427000Y-144439000D01*
X264427000Y-145289000D01*
G36*
X264427000Y-145289000D02*
G01*
X264077000Y-145289000D01*
X264077000Y-144439000D01*
X264427000Y-144439000D01*
X264427000Y-145289000D01*
G37*
X263777000Y-145289000D02*
X263427000Y-145289000D01*
X263427000Y-144439000D01*
X263777000Y-144439000D01*
X263777000Y-145289000D01*
G36*
X263777000Y-145289000D02*
G01*
X263427000Y-145289000D01*
X263427000Y-144439000D01*
X263777000Y-144439000D01*
X263777000Y-145289000D01*
G37*
%TO.C,U3*%
X199160760Y-128616034D02*
X197042040Y-128616034D01*
X197042040Y-126497314D01*
X199160760Y-126497314D01*
X199160760Y-128616034D01*
G36*
X199160760Y-128616034D02*
G01*
X197042040Y-128616034D01*
X197042040Y-126497314D01*
X199160760Y-126497314D01*
X199160760Y-128616034D01*
G37*
X196617400Y-129482674D02*
X196624400Y-129483674D01*
X196632400Y-129484674D01*
X196640400Y-129486674D01*
X196647400Y-129488674D01*
X196655400Y-129491674D01*
X196662400Y-129494674D01*
X196669400Y-129497674D01*
X196676400Y-129501674D01*
X196683400Y-129505674D01*
X196689400Y-129510674D01*
X196695400Y-129514674D01*
X196701400Y-129520674D01*
X196707400Y-129525674D01*
X196712400Y-129531674D01*
X196718400Y-129537674D01*
X196722400Y-129543674D01*
X196727400Y-129549674D01*
X196731400Y-129556674D01*
X196735400Y-129563674D01*
X196738400Y-129570674D01*
X196741400Y-129577674D01*
X196744400Y-129585674D01*
X196746400Y-129592674D01*
X196748400Y-129600674D01*
X196749400Y-129608674D01*
X196750400Y-129615674D01*
X196751400Y-129623674D01*
X196751400Y-129631674D01*
X196751400Y-130431674D01*
X196451400Y-130431674D01*
X196451400Y-129631674D01*
X196451400Y-129623674D01*
X196452400Y-129615674D01*
X196453400Y-129608674D01*
X196454400Y-129600674D01*
X196456400Y-129592674D01*
X196458400Y-129585674D01*
X196461400Y-129577674D01*
X196464400Y-129570674D01*
X196467400Y-129563674D01*
X196471400Y-129556674D01*
X196475400Y-129549674D01*
X196480400Y-129543674D01*
X196484400Y-129537674D01*
X196490400Y-129531674D01*
X196495400Y-129525674D01*
X196501400Y-129520674D01*
X196507400Y-129514674D01*
X196513400Y-129510674D01*
X196519400Y-129505674D01*
X196526400Y-129501674D01*
X196533400Y-129497674D01*
X196540400Y-129494674D01*
X196547400Y-129491674D01*
X196555400Y-129488674D01*
X196562400Y-129486674D01*
X196570400Y-129484674D01*
X196578400Y-129483674D01*
X196585400Y-129482674D01*
X196593400Y-129481674D01*
X196601400Y-129481674D01*
X196609400Y-129481674D01*
X196617400Y-129482674D01*
G36*
X196617400Y-129482674D02*
G01*
X196624400Y-129483674D01*
X196632400Y-129484674D01*
X196640400Y-129486674D01*
X196647400Y-129488674D01*
X196655400Y-129491674D01*
X196662400Y-129494674D01*
X196669400Y-129497674D01*
X196676400Y-129501674D01*
X196683400Y-129505674D01*
X196689400Y-129510674D01*
X196695400Y-129514674D01*
X196701400Y-129520674D01*
X196707400Y-129525674D01*
X196712400Y-129531674D01*
X196718400Y-129537674D01*
X196722400Y-129543674D01*
X196727400Y-129549674D01*
X196731400Y-129556674D01*
X196735400Y-129563674D01*
X196738400Y-129570674D01*
X196741400Y-129577674D01*
X196744400Y-129585674D01*
X196746400Y-129592674D01*
X196748400Y-129600674D01*
X196749400Y-129608674D01*
X196750400Y-129615674D01*
X196751400Y-129623674D01*
X196751400Y-129631674D01*
X196751400Y-130431674D01*
X196451400Y-130431674D01*
X196451400Y-129631674D01*
X196451400Y-129623674D01*
X196452400Y-129615674D01*
X196453400Y-129608674D01*
X196454400Y-129600674D01*
X196456400Y-129592674D01*
X196458400Y-129585674D01*
X196461400Y-129577674D01*
X196464400Y-129570674D01*
X196467400Y-129563674D01*
X196471400Y-129556674D01*
X196475400Y-129549674D01*
X196480400Y-129543674D01*
X196484400Y-129537674D01*
X196490400Y-129531674D01*
X196495400Y-129525674D01*
X196501400Y-129520674D01*
X196507400Y-129514674D01*
X196513400Y-129510674D01*
X196519400Y-129505674D01*
X196526400Y-129501674D01*
X196533400Y-129497674D01*
X196540400Y-129494674D01*
X196547400Y-129491674D01*
X196555400Y-129488674D01*
X196562400Y-129486674D01*
X196570400Y-129484674D01*
X196578400Y-129483674D01*
X196585400Y-129482674D01*
X196593400Y-129481674D01*
X196601400Y-129481674D01*
X196609400Y-129481674D01*
X196617400Y-129482674D01*
G37*
X197117400Y-129482674D02*
X197124400Y-129483674D01*
X197132400Y-129484674D01*
X197140400Y-129486674D01*
X197147400Y-129488674D01*
X197155400Y-129491674D01*
X197162400Y-129494674D01*
X197169400Y-129497674D01*
X197176400Y-129501674D01*
X197183400Y-129505674D01*
X197189400Y-129510674D01*
X197195400Y-129514674D01*
X197201400Y-129520674D01*
X197207400Y-129525674D01*
X197212400Y-129531674D01*
X197218400Y-129537674D01*
X197222400Y-129543674D01*
X197227400Y-129549674D01*
X197231400Y-129556674D01*
X197235400Y-129563674D01*
X197238400Y-129570674D01*
X197241400Y-129577674D01*
X197244400Y-129585674D01*
X197246400Y-129592674D01*
X197248400Y-129600674D01*
X197249400Y-129608674D01*
X197250400Y-129615674D01*
X197251400Y-129623674D01*
X197251400Y-129631674D01*
X197251400Y-130431674D01*
X196951400Y-130431674D01*
X196951400Y-129631674D01*
X196951400Y-129623674D01*
X196952400Y-129615674D01*
X196953400Y-129608674D01*
X196954400Y-129600674D01*
X196956400Y-129592674D01*
X196958400Y-129585674D01*
X196961400Y-129577674D01*
X196964400Y-129570674D01*
X196967400Y-129563674D01*
X196971400Y-129556674D01*
X196975400Y-129549674D01*
X196980400Y-129543674D01*
X196984400Y-129537674D01*
X196990400Y-129531674D01*
X196995400Y-129525674D01*
X197001400Y-129520674D01*
X197007400Y-129514674D01*
X197013400Y-129510674D01*
X197019400Y-129505674D01*
X197026400Y-129501674D01*
X197033400Y-129497674D01*
X197040400Y-129494674D01*
X197047400Y-129491674D01*
X197055400Y-129488674D01*
X197062400Y-129486674D01*
X197070400Y-129484674D01*
X197078400Y-129483674D01*
X197085400Y-129482674D01*
X197093400Y-129481674D01*
X197101400Y-129481674D01*
X197109400Y-129481674D01*
X197117400Y-129482674D01*
G36*
X197117400Y-129482674D02*
G01*
X197124400Y-129483674D01*
X197132400Y-129484674D01*
X197140400Y-129486674D01*
X197147400Y-129488674D01*
X197155400Y-129491674D01*
X197162400Y-129494674D01*
X197169400Y-129497674D01*
X197176400Y-129501674D01*
X197183400Y-129505674D01*
X197189400Y-129510674D01*
X197195400Y-129514674D01*
X197201400Y-129520674D01*
X197207400Y-129525674D01*
X197212400Y-129531674D01*
X197218400Y-129537674D01*
X197222400Y-129543674D01*
X197227400Y-129549674D01*
X197231400Y-129556674D01*
X197235400Y-129563674D01*
X197238400Y-129570674D01*
X197241400Y-129577674D01*
X197244400Y-129585674D01*
X197246400Y-129592674D01*
X197248400Y-129600674D01*
X197249400Y-129608674D01*
X197250400Y-129615674D01*
X197251400Y-129623674D01*
X197251400Y-129631674D01*
X197251400Y-130431674D01*
X196951400Y-130431674D01*
X196951400Y-129631674D01*
X196951400Y-129623674D01*
X196952400Y-129615674D01*
X196953400Y-129608674D01*
X196954400Y-129600674D01*
X196956400Y-129592674D01*
X196958400Y-129585674D01*
X196961400Y-129577674D01*
X196964400Y-129570674D01*
X196967400Y-129563674D01*
X196971400Y-129556674D01*
X196975400Y-129549674D01*
X196980400Y-129543674D01*
X196984400Y-129537674D01*
X196990400Y-129531674D01*
X196995400Y-129525674D01*
X197001400Y-129520674D01*
X197007400Y-129514674D01*
X197013400Y-129510674D01*
X197019400Y-129505674D01*
X197026400Y-129501674D01*
X197033400Y-129497674D01*
X197040400Y-129494674D01*
X197047400Y-129491674D01*
X197055400Y-129488674D01*
X197062400Y-129486674D01*
X197070400Y-129484674D01*
X197078400Y-129483674D01*
X197085400Y-129482674D01*
X197093400Y-129481674D01*
X197101400Y-129481674D01*
X197109400Y-129481674D01*
X197117400Y-129482674D01*
G37*
X197617400Y-129482674D02*
X197624400Y-129483674D01*
X197632400Y-129484674D01*
X197640400Y-129486674D01*
X197647400Y-129488674D01*
X197655400Y-129491674D01*
X197662400Y-129494674D01*
X197669400Y-129497674D01*
X197676400Y-129501674D01*
X197683400Y-129505674D01*
X197689400Y-129510674D01*
X197695400Y-129514674D01*
X197701400Y-129520674D01*
X197707400Y-129525674D01*
X197712400Y-129531674D01*
X197718400Y-129537674D01*
X197722400Y-129543674D01*
X197727400Y-129549674D01*
X197731400Y-129556674D01*
X197735400Y-129563674D01*
X197738400Y-129570674D01*
X197741400Y-129577674D01*
X197744400Y-129585674D01*
X197746400Y-129592674D01*
X197748400Y-129600674D01*
X197749400Y-129608674D01*
X197750400Y-129615674D01*
X197751400Y-129623674D01*
X197751400Y-129631674D01*
X197751400Y-130431674D01*
X197451400Y-130431674D01*
X197451400Y-129631674D01*
X197451400Y-129623674D01*
X197452400Y-129615674D01*
X197453400Y-129608674D01*
X197454400Y-129600674D01*
X197456400Y-129592674D01*
X197458400Y-129585674D01*
X197461400Y-129577674D01*
X197464400Y-129570674D01*
X197467400Y-129563674D01*
X197471400Y-129556674D01*
X197475400Y-129549674D01*
X197480400Y-129543674D01*
X197484400Y-129537674D01*
X197490400Y-129531674D01*
X197495400Y-129525674D01*
X197501400Y-129520674D01*
X197507400Y-129514674D01*
X197513400Y-129510674D01*
X197519400Y-129505674D01*
X197526400Y-129501674D01*
X197533400Y-129497674D01*
X197540400Y-129494674D01*
X197547400Y-129491674D01*
X197555400Y-129488674D01*
X197562400Y-129486674D01*
X197570400Y-129484674D01*
X197578400Y-129483674D01*
X197585400Y-129482674D01*
X197593400Y-129481674D01*
X197601400Y-129481674D01*
X197609400Y-129481674D01*
X197617400Y-129482674D01*
G36*
X197617400Y-129482674D02*
G01*
X197624400Y-129483674D01*
X197632400Y-129484674D01*
X197640400Y-129486674D01*
X197647400Y-129488674D01*
X197655400Y-129491674D01*
X197662400Y-129494674D01*
X197669400Y-129497674D01*
X197676400Y-129501674D01*
X197683400Y-129505674D01*
X197689400Y-129510674D01*
X197695400Y-129514674D01*
X197701400Y-129520674D01*
X197707400Y-129525674D01*
X197712400Y-129531674D01*
X197718400Y-129537674D01*
X197722400Y-129543674D01*
X197727400Y-129549674D01*
X197731400Y-129556674D01*
X197735400Y-129563674D01*
X197738400Y-129570674D01*
X197741400Y-129577674D01*
X197744400Y-129585674D01*
X197746400Y-129592674D01*
X197748400Y-129600674D01*
X197749400Y-129608674D01*
X197750400Y-129615674D01*
X197751400Y-129623674D01*
X197751400Y-129631674D01*
X197751400Y-130431674D01*
X197451400Y-130431674D01*
X197451400Y-129631674D01*
X197451400Y-129623674D01*
X197452400Y-129615674D01*
X197453400Y-129608674D01*
X197454400Y-129600674D01*
X197456400Y-129592674D01*
X197458400Y-129585674D01*
X197461400Y-129577674D01*
X197464400Y-129570674D01*
X197467400Y-129563674D01*
X197471400Y-129556674D01*
X197475400Y-129549674D01*
X197480400Y-129543674D01*
X197484400Y-129537674D01*
X197490400Y-129531674D01*
X197495400Y-129525674D01*
X197501400Y-129520674D01*
X197507400Y-129514674D01*
X197513400Y-129510674D01*
X197519400Y-129505674D01*
X197526400Y-129501674D01*
X197533400Y-129497674D01*
X197540400Y-129494674D01*
X197547400Y-129491674D01*
X197555400Y-129488674D01*
X197562400Y-129486674D01*
X197570400Y-129484674D01*
X197578400Y-129483674D01*
X197585400Y-129482674D01*
X197593400Y-129481674D01*
X197601400Y-129481674D01*
X197609400Y-129481674D01*
X197617400Y-129482674D01*
G37*
X198117400Y-129482674D02*
X198124400Y-129483674D01*
X198132400Y-129484674D01*
X198140400Y-129486674D01*
X198147400Y-129488674D01*
X198155400Y-129491674D01*
X198162400Y-129494674D01*
X198169400Y-129497674D01*
X198176400Y-129501674D01*
X198183400Y-129505674D01*
X198189400Y-129510674D01*
X198195400Y-129514674D01*
X198201400Y-129520674D01*
X198207400Y-129525674D01*
X198212400Y-129531674D01*
X198218400Y-129537674D01*
X198222400Y-129543674D01*
X198227400Y-129549674D01*
X198231400Y-129556674D01*
X198235400Y-129563674D01*
X198238400Y-129570674D01*
X198241400Y-129577674D01*
X198244400Y-129585674D01*
X198246400Y-129592674D01*
X198248400Y-129600674D01*
X198249400Y-129608674D01*
X198250400Y-129615674D01*
X198251400Y-129623674D01*
X198251400Y-129631674D01*
X198251400Y-130431674D01*
X197951400Y-130431674D01*
X197951400Y-129631674D01*
X197951400Y-129623674D01*
X197952400Y-129615674D01*
X197953400Y-129608674D01*
X197954400Y-129600674D01*
X197956400Y-129592674D01*
X197958400Y-129585674D01*
X197961400Y-129577674D01*
X197964400Y-129570674D01*
X197967400Y-129563674D01*
X197971400Y-129556674D01*
X197975400Y-129549674D01*
X197980400Y-129543674D01*
X197984400Y-129537674D01*
X197990400Y-129531674D01*
X197995400Y-129525674D01*
X198001400Y-129520674D01*
X198007400Y-129514674D01*
X198013400Y-129510674D01*
X198019400Y-129505674D01*
X198026400Y-129501674D01*
X198033400Y-129497674D01*
X198040400Y-129494674D01*
X198047400Y-129491674D01*
X198055400Y-129488674D01*
X198062400Y-129486674D01*
X198070400Y-129484674D01*
X198078400Y-129483674D01*
X198085400Y-129482674D01*
X198093400Y-129481674D01*
X198101400Y-129481674D01*
X198109400Y-129481674D01*
X198117400Y-129482674D01*
G36*
X198117400Y-129482674D02*
G01*
X198124400Y-129483674D01*
X198132400Y-129484674D01*
X198140400Y-129486674D01*
X198147400Y-129488674D01*
X198155400Y-129491674D01*
X198162400Y-129494674D01*
X198169400Y-129497674D01*
X198176400Y-129501674D01*
X198183400Y-129505674D01*
X198189400Y-129510674D01*
X198195400Y-129514674D01*
X198201400Y-129520674D01*
X198207400Y-129525674D01*
X198212400Y-129531674D01*
X198218400Y-129537674D01*
X198222400Y-129543674D01*
X198227400Y-129549674D01*
X198231400Y-129556674D01*
X198235400Y-129563674D01*
X198238400Y-129570674D01*
X198241400Y-129577674D01*
X198244400Y-129585674D01*
X198246400Y-129592674D01*
X198248400Y-129600674D01*
X198249400Y-129608674D01*
X198250400Y-129615674D01*
X198251400Y-129623674D01*
X198251400Y-129631674D01*
X198251400Y-130431674D01*
X197951400Y-130431674D01*
X197951400Y-129631674D01*
X197951400Y-129623674D01*
X197952400Y-129615674D01*
X197953400Y-129608674D01*
X197954400Y-129600674D01*
X197956400Y-129592674D01*
X197958400Y-129585674D01*
X197961400Y-129577674D01*
X197964400Y-129570674D01*
X197967400Y-129563674D01*
X197971400Y-129556674D01*
X197975400Y-129549674D01*
X197980400Y-129543674D01*
X197984400Y-129537674D01*
X197990400Y-129531674D01*
X197995400Y-129525674D01*
X198001400Y-129520674D01*
X198007400Y-129514674D01*
X198013400Y-129510674D01*
X198019400Y-129505674D01*
X198026400Y-129501674D01*
X198033400Y-129497674D01*
X198040400Y-129494674D01*
X198047400Y-129491674D01*
X198055400Y-129488674D01*
X198062400Y-129486674D01*
X198070400Y-129484674D01*
X198078400Y-129483674D01*
X198085400Y-129482674D01*
X198093400Y-129481674D01*
X198101400Y-129481674D01*
X198109400Y-129481674D01*
X198117400Y-129482674D01*
G37*
X198617400Y-129482674D02*
X198624400Y-129483674D01*
X198632400Y-129484674D01*
X198640400Y-129486674D01*
X198647400Y-129488674D01*
X198655400Y-129491674D01*
X198662400Y-129494674D01*
X198669400Y-129497674D01*
X198676400Y-129501674D01*
X198683400Y-129505674D01*
X198689400Y-129510674D01*
X198695400Y-129514674D01*
X198701400Y-129520674D01*
X198707400Y-129525674D01*
X198712400Y-129531674D01*
X198718400Y-129537674D01*
X198722400Y-129543674D01*
X198727400Y-129549674D01*
X198731400Y-129556674D01*
X198735400Y-129563674D01*
X198738400Y-129570674D01*
X198741400Y-129577674D01*
X198744400Y-129585674D01*
X198746400Y-129592674D01*
X198748400Y-129600674D01*
X198749400Y-129608674D01*
X198750400Y-129615674D01*
X198751400Y-129623674D01*
X198751400Y-129631674D01*
X198751400Y-130431674D01*
X198451400Y-130431674D01*
X198451400Y-129631674D01*
X198451400Y-129623674D01*
X198452400Y-129615674D01*
X198453400Y-129608674D01*
X198454400Y-129600674D01*
X198456400Y-129592674D01*
X198458400Y-129585674D01*
X198461400Y-129577674D01*
X198464400Y-129570674D01*
X198467400Y-129563674D01*
X198471400Y-129556674D01*
X198475400Y-129549674D01*
X198480400Y-129543674D01*
X198484400Y-129537674D01*
X198490400Y-129531674D01*
X198495400Y-129525674D01*
X198501400Y-129520674D01*
X198507400Y-129514674D01*
X198513400Y-129510674D01*
X198519400Y-129505674D01*
X198526400Y-129501674D01*
X198533400Y-129497674D01*
X198540400Y-129494674D01*
X198547400Y-129491674D01*
X198555400Y-129488674D01*
X198562400Y-129486674D01*
X198570400Y-129484674D01*
X198578400Y-129483674D01*
X198585400Y-129482674D01*
X198593400Y-129481674D01*
X198601400Y-129481674D01*
X198609400Y-129481674D01*
X198617400Y-129482674D01*
G36*
X198617400Y-129482674D02*
G01*
X198624400Y-129483674D01*
X198632400Y-129484674D01*
X198640400Y-129486674D01*
X198647400Y-129488674D01*
X198655400Y-129491674D01*
X198662400Y-129494674D01*
X198669400Y-129497674D01*
X198676400Y-129501674D01*
X198683400Y-129505674D01*
X198689400Y-129510674D01*
X198695400Y-129514674D01*
X198701400Y-129520674D01*
X198707400Y-129525674D01*
X198712400Y-129531674D01*
X198718400Y-129537674D01*
X198722400Y-129543674D01*
X198727400Y-129549674D01*
X198731400Y-129556674D01*
X198735400Y-129563674D01*
X198738400Y-129570674D01*
X198741400Y-129577674D01*
X198744400Y-129585674D01*
X198746400Y-129592674D01*
X198748400Y-129600674D01*
X198749400Y-129608674D01*
X198750400Y-129615674D01*
X198751400Y-129623674D01*
X198751400Y-129631674D01*
X198751400Y-130431674D01*
X198451400Y-130431674D01*
X198451400Y-129631674D01*
X198451400Y-129623674D01*
X198452400Y-129615674D01*
X198453400Y-129608674D01*
X198454400Y-129600674D01*
X198456400Y-129592674D01*
X198458400Y-129585674D01*
X198461400Y-129577674D01*
X198464400Y-129570674D01*
X198467400Y-129563674D01*
X198471400Y-129556674D01*
X198475400Y-129549674D01*
X198480400Y-129543674D01*
X198484400Y-129537674D01*
X198490400Y-129531674D01*
X198495400Y-129525674D01*
X198501400Y-129520674D01*
X198507400Y-129514674D01*
X198513400Y-129510674D01*
X198519400Y-129505674D01*
X198526400Y-129501674D01*
X198533400Y-129497674D01*
X198540400Y-129494674D01*
X198547400Y-129491674D01*
X198555400Y-129488674D01*
X198562400Y-129486674D01*
X198570400Y-129484674D01*
X198578400Y-129483674D01*
X198585400Y-129482674D01*
X198593400Y-129481674D01*
X198601400Y-129481674D01*
X198609400Y-129481674D01*
X198617400Y-129482674D01*
G37*
X199117400Y-129482674D02*
X199124400Y-129483674D01*
X199132400Y-129484674D01*
X199140400Y-129486674D01*
X199147400Y-129488674D01*
X199155400Y-129491674D01*
X199162400Y-129494674D01*
X199169400Y-129497674D01*
X199176400Y-129501674D01*
X199183400Y-129505674D01*
X199189400Y-129510674D01*
X199195400Y-129514674D01*
X199201400Y-129520674D01*
X199207400Y-129525674D01*
X199212400Y-129531674D01*
X199218400Y-129537674D01*
X199222400Y-129543674D01*
X199227400Y-129549674D01*
X199231400Y-129556674D01*
X199235400Y-129563674D01*
X199238400Y-129570674D01*
X199241400Y-129577674D01*
X199244400Y-129585674D01*
X199246400Y-129592674D01*
X199248400Y-129600674D01*
X199249400Y-129608674D01*
X199250400Y-129615674D01*
X199251400Y-129623674D01*
X199251400Y-129631674D01*
X199251400Y-130431674D01*
X198951400Y-130431674D01*
X198951400Y-129631674D01*
X198951400Y-129623674D01*
X198952400Y-129615674D01*
X198953400Y-129608674D01*
X198954400Y-129600674D01*
X198956400Y-129592674D01*
X198958400Y-129585674D01*
X198961400Y-129577674D01*
X198964400Y-129570674D01*
X198967400Y-129563674D01*
X198971400Y-129556674D01*
X198975400Y-129549674D01*
X198980400Y-129543674D01*
X198984400Y-129537674D01*
X198990400Y-129531674D01*
X198995400Y-129525674D01*
X199001400Y-129520674D01*
X199007400Y-129514674D01*
X199013400Y-129510674D01*
X199019400Y-129505674D01*
X199026400Y-129501674D01*
X199033400Y-129497674D01*
X199040400Y-129494674D01*
X199047400Y-129491674D01*
X199055400Y-129488674D01*
X199062400Y-129486674D01*
X199070400Y-129484674D01*
X199078400Y-129483674D01*
X199085400Y-129482674D01*
X199093400Y-129481674D01*
X199101400Y-129481674D01*
X199109400Y-129481674D01*
X199117400Y-129482674D01*
G36*
X199117400Y-129482674D02*
G01*
X199124400Y-129483674D01*
X199132400Y-129484674D01*
X199140400Y-129486674D01*
X199147400Y-129488674D01*
X199155400Y-129491674D01*
X199162400Y-129494674D01*
X199169400Y-129497674D01*
X199176400Y-129501674D01*
X199183400Y-129505674D01*
X199189400Y-129510674D01*
X199195400Y-129514674D01*
X199201400Y-129520674D01*
X199207400Y-129525674D01*
X199212400Y-129531674D01*
X199218400Y-129537674D01*
X199222400Y-129543674D01*
X199227400Y-129549674D01*
X199231400Y-129556674D01*
X199235400Y-129563674D01*
X199238400Y-129570674D01*
X199241400Y-129577674D01*
X199244400Y-129585674D01*
X199246400Y-129592674D01*
X199248400Y-129600674D01*
X199249400Y-129608674D01*
X199250400Y-129615674D01*
X199251400Y-129623674D01*
X199251400Y-129631674D01*
X199251400Y-130431674D01*
X198951400Y-130431674D01*
X198951400Y-129631674D01*
X198951400Y-129623674D01*
X198952400Y-129615674D01*
X198953400Y-129608674D01*
X198954400Y-129600674D01*
X198956400Y-129592674D01*
X198958400Y-129585674D01*
X198961400Y-129577674D01*
X198964400Y-129570674D01*
X198967400Y-129563674D01*
X198971400Y-129556674D01*
X198975400Y-129549674D01*
X198980400Y-129543674D01*
X198984400Y-129537674D01*
X198990400Y-129531674D01*
X198995400Y-129525674D01*
X199001400Y-129520674D01*
X199007400Y-129514674D01*
X199013400Y-129510674D01*
X199019400Y-129505674D01*
X199026400Y-129501674D01*
X199033400Y-129497674D01*
X199040400Y-129494674D01*
X199047400Y-129491674D01*
X199055400Y-129488674D01*
X199062400Y-129486674D01*
X199070400Y-129484674D01*
X199078400Y-129483674D01*
X199085400Y-129482674D01*
X199093400Y-129481674D01*
X199101400Y-129481674D01*
X199109400Y-129481674D01*
X199117400Y-129482674D01*
G37*
X199617400Y-129482674D02*
X199624400Y-129483674D01*
X199632400Y-129484674D01*
X199640400Y-129486674D01*
X199647400Y-129488674D01*
X199655400Y-129491674D01*
X199662400Y-129494674D01*
X199669400Y-129497674D01*
X199676400Y-129501674D01*
X199683400Y-129505674D01*
X199689400Y-129510674D01*
X199695400Y-129514674D01*
X199701400Y-129520674D01*
X199707400Y-129525674D01*
X199712400Y-129531674D01*
X199718400Y-129537674D01*
X199722400Y-129543674D01*
X199727400Y-129549674D01*
X199731400Y-129556674D01*
X199735400Y-129563674D01*
X199738400Y-129570674D01*
X199741400Y-129577674D01*
X199744400Y-129585674D01*
X199746400Y-129592674D01*
X199748400Y-129600674D01*
X199749400Y-129608674D01*
X199750400Y-129615674D01*
X199751400Y-129623674D01*
X199751400Y-129631674D01*
X199751400Y-130431674D01*
X199451400Y-130431674D01*
X199451400Y-129631674D01*
X199451400Y-129623674D01*
X199452400Y-129615674D01*
X199453400Y-129608674D01*
X199454400Y-129600674D01*
X199456400Y-129592674D01*
X199458400Y-129585674D01*
X199461400Y-129577674D01*
X199464400Y-129570674D01*
X199467400Y-129563674D01*
X199471400Y-129556674D01*
X199475400Y-129549674D01*
X199480400Y-129543674D01*
X199484400Y-129537674D01*
X199490400Y-129531674D01*
X199495400Y-129525674D01*
X199501400Y-129520674D01*
X199507400Y-129514674D01*
X199513400Y-129510674D01*
X199519400Y-129505674D01*
X199526400Y-129501674D01*
X199533400Y-129497674D01*
X199540400Y-129494674D01*
X199547400Y-129491674D01*
X199555400Y-129488674D01*
X199562400Y-129486674D01*
X199570400Y-129484674D01*
X199578400Y-129483674D01*
X199585400Y-129482674D01*
X199593400Y-129481674D01*
X199601400Y-129481674D01*
X199609400Y-129481674D01*
X199617400Y-129482674D01*
G36*
X199617400Y-129482674D02*
G01*
X199624400Y-129483674D01*
X199632400Y-129484674D01*
X199640400Y-129486674D01*
X199647400Y-129488674D01*
X199655400Y-129491674D01*
X199662400Y-129494674D01*
X199669400Y-129497674D01*
X199676400Y-129501674D01*
X199683400Y-129505674D01*
X199689400Y-129510674D01*
X199695400Y-129514674D01*
X199701400Y-129520674D01*
X199707400Y-129525674D01*
X199712400Y-129531674D01*
X199718400Y-129537674D01*
X199722400Y-129543674D01*
X199727400Y-129549674D01*
X199731400Y-129556674D01*
X199735400Y-129563674D01*
X199738400Y-129570674D01*
X199741400Y-129577674D01*
X199744400Y-129585674D01*
X199746400Y-129592674D01*
X199748400Y-129600674D01*
X199749400Y-129608674D01*
X199750400Y-129615674D01*
X199751400Y-129623674D01*
X199751400Y-129631674D01*
X199751400Y-130431674D01*
X199451400Y-130431674D01*
X199451400Y-129631674D01*
X199451400Y-129623674D01*
X199452400Y-129615674D01*
X199453400Y-129608674D01*
X199454400Y-129600674D01*
X199456400Y-129592674D01*
X199458400Y-129585674D01*
X199461400Y-129577674D01*
X199464400Y-129570674D01*
X199467400Y-129563674D01*
X199471400Y-129556674D01*
X199475400Y-129549674D01*
X199480400Y-129543674D01*
X199484400Y-129537674D01*
X199490400Y-129531674D01*
X199495400Y-129525674D01*
X199501400Y-129520674D01*
X199507400Y-129514674D01*
X199513400Y-129510674D01*
X199519400Y-129505674D01*
X199526400Y-129501674D01*
X199533400Y-129497674D01*
X199540400Y-129494674D01*
X199547400Y-129491674D01*
X199555400Y-129488674D01*
X199562400Y-129486674D01*
X199570400Y-129484674D01*
X199578400Y-129483674D01*
X199585400Y-129482674D01*
X199593400Y-129481674D01*
X199601400Y-129481674D01*
X199609400Y-129481674D01*
X199617400Y-129482674D01*
G37*
X200976400Y-129206674D02*
X200176400Y-129206674D01*
X200168400Y-129206674D01*
X200160400Y-129205674D01*
X200153400Y-129204674D01*
X200145400Y-129203674D01*
X200137400Y-129201674D01*
X200130400Y-129199674D01*
X200122400Y-129196674D01*
X200115400Y-129193674D01*
X200108400Y-129190674D01*
X200101400Y-129186674D01*
X200094400Y-129182674D01*
X200088400Y-129177674D01*
X200082400Y-129173674D01*
X200076400Y-129167674D01*
X200070400Y-129162674D01*
X200065400Y-129156674D01*
X200059400Y-129150674D01*
X200055400Y-129144674D01*
X200050400Y-129138674D01*
X200046400Y-129131674D01*
X200042400Y-129124674D01*
X200039400Y-129117674D01*
X200036400Y-129110674D01*
X200033400Y-129102674D01*
X200031400Y-129095674D01*
X200029400Y-129087674D01*
X200028400Y-129079674D01*
X200027400Y-129072674D01*
X200026400Y-129064674D01*
X200026400Y-129056674D01*
X200026400Y-129048674D01*
X200027400Y-129040674D01*
X200028400Y-129033674D01*
X200029400Y-129025674D01*
X200031400Y-129017674D01*
X200033400Y-129010674D01*
X200036400Y-129002674D01*
X200039400Y-128995674D01*
X200042400Y-128988674D01*
X200046400Y-128981674D01*
X200050400Y-128974674D01*
X200055400Y-128968674D01*
X200059400Y-128962674D01*
X200065400Y-128956674D01*
X200070400Y-128950674D01*
X200076400Y-128945674D01*
X200082400Y-128939674D01*
X200088400Y-128935674D01*
X200094400Y-128930674D01*
X200101400Y-128926674D01*
X200108400Y-128922674D01*
X200115400Y-128919674D01*
X200122400Y-128916674D01*
X200130400Y-128913674D01*
X200137400Y-128911674D01*
X200145400Y-128909674D01*
X200153400Y-128908674D01*
X200160400Y-128907674D01*
X200168400Y-128906674D01*
X200176400Y-128906674D01*
X200976400Y-128906674D01*
X200976400Y-129206674D01*
G36*
X200976400Y-129206674D02*
G01*
X200176400Y-129206674D01*
X200168400Y-129206674D01*
X200160400Y-129205674D01*
X200153400Y-129204674D01*
X200145400Y-129203674D01*
X200137400Y-129201674D01*
X200130400Y-129199674D01*
X200122400Y-129196674D01*
X200115400Y-129193674D01*
X200108400Y-129190674D01*
X200101400Y-129186674D01*
X200094400Y-129182674D01*
X200088400Y-129177674D01*
X200082400Y-129173674D01*
X200076400Y-129167674D01*
X200070400Y-129162674D01*
X200065400Y-129156674D01*
X200059400Y-129150674D01*
X200055400Y-129144674D01*
X200050400Y-129138674D01*
X200046400Y-129131674D01*
X200042400Y-129124674D01*
X200039400Y-129117674D01*
X200036400Y-129110674D01*
X200033400Y-129102674D01*
X200031400Y-129095674D01*
X200029400Y-129087674D01*
X200028400Y-129079674D01*
X200027400Y-129072674D01*
X200026400Y-129064674D01*
X200026400Y-129056674D01*
X200026400Y-129048674D01*
X200027400Y-129040674D01*
X200028400Y-129033674D01*
X200029400Y-129025674D01*
X200031400Y-129017674D01*
X200033400Y-129010674D01*
X200036400Y-129002674D01*
X200039400Y-128995674D01*
X200042400Y-128988674D01*
X200046400Y-128981674D01*
X200050400Y-128974674D01*
X200055400Y-128968674D01*
X200059400Y-128962674D01*
X200065400Y-128956674D01*
X200070400Y-128950674D01*
X200076400Y-128945674D01*
X200082400Y-128939674D01*
X200088400Y-128935674D01*
X200094400Y-128930674D01*
X200101400Y-128926674D01*
X200108400Y-128922674D01*
X200115400Y-128919674D01*
X200122400Y-128916674D01*
X200130400Y-128913674D01*
X200137400Y-128911674D01*
X200145400Y-128909674D01*
X200153400Y-128908674D01*
X200160400Y-128907674D01*
X200168400Y-128906674D01*
X200176400Y-128906674D01*
X200976400Y-128906674D01*
X200976400Y-129206674D01*
G37*
X196042400Y-128907674D02*
X196049400Y-128908674D01*
X196057400Y-128909674D01*
X196065400Y-128911674D01*
X196072400Y-128913674D01*
X196080400Y-128916674D01*
X196087400Y-128919674D01*
X196094400Y-128922674D01*
X196101400Y-128926674D01*
X196108400Y-128930674D01*
X196114400Y-128935674D01*
X196120400Y-128939674D01*
X196126400Y-128945674D01*
X196132400Y-128950674D01*
X196137400Y-128956674D01*
X196143400Y-128962674D01*
X196147400Y-128968674D01*
X196152400Y-128974674D01*
X196156400Y-128981674D01*
X196160400Y-128988674D01*
X196163400Y-128995674D01*
X196166400Y-129002674D01*
X196169400Y-129010674D01*
X196171400Y-129017674D01*
X196173400Y-129025674D01*
X196174400Y-129033674D01*
X196175400Y-129040674D01*
X196176400Y-129048674D01*
X196176400Y-129056674D01*
X196176400Y-129064674D01*
X196175400Y-129072674D01*
X196174400Y-129079674D01*
X196173400Y-129087674D01*
X196171400Y-129095674D01*
X196169400Y-129102674D01*
X196166400Y-129110674D01*
X196163400Y-129117674D01*
X196160400Y-129124674D01*
X196156400Y-129131674D01*
X196152400Y-129138674D01*
X196147400Y-129144674D01*
X196143400Y-129150674D01*
X196137400Y-129156674D01*
X196132400Y-129162674D01*
X196126400Y-129167674D01*
X196120400Y-129173674D01*
X196114400Y-129177674D01*
X196108400Y-129182674D01*
X196101400Y-129186674D01*
X196094400Y-129190674D01*
X196087400Y-129193674D01*
X196080400Y-129196674D01*
X196072400Y-129199674D01*
X196065400Y-129201674D01*
X196057400Y-129203674D01*
X196049400Y-129204674D01*
X196042400Y-129205674D01*
X196034400Y-129206674D01*
X196026400Y-129206674D01*
X195226400Y-129206674D01*
X195226400Y-128906674D01*
X196026400Y-128906674D01*
X196034400Y-128906674D01*
X196042400Y-128907674D01*
G36*
X196042400Y-128907674D02*
G01*
X196049400Y-128908674D01*
X196057400Y-128909674D01*
X196065400Y-128911674D01*
X196072400Y-128913674D01*
X196080400Y-128916674D01*
X196087400Y-128919674D01*
X196094400Y-128922674D01*
X196101400Y-128926674D01*
X196108400Y-128930674D01*
X196114400Y-128935674D01*
X196120400Y-128939674D01*
X196126400Y-128945674D01*
X196132400Y-128950674D01*
X196137400Y-128956674D01*
X196143400Y-128962674D01*
X196147400Y-128968674D01*
X196152400Y-128974674D01*
X196156400Y-128981674D01*
X196160400Y-128988674D01*
X196163400Y-128995674D01*
X196166400Y-129002674D01*
X196169400Y-129010674D01*
X196171400Y-129017674D01*
X196173400Y-129025674D01*
X196174400Y-129033674D01*
X196175400Y-129040674D01*
X196176400Y-129048674D01*
X196176400Y-129056674D01*
X196176400Y-129064674D01*
X196175400Y-129072674D01*
X196174400Y-129079674D01*
X196173400Y-129087674D01*
X196171400Y-129095674D01*
X196169400Y-129102674D01*
X196166400Y-129110674D01*
X196163400Y-129117674D01*
X196160400Y-129124674D01*
X196156400Y-129131674D01*
X196152400Y-129138674D01*
X196147400Y-129144674D01*
X196143400Y-129150674D01*
X196137400Y-129156674D01*
X196132400Y-129162674D01*
X196126400Y-129167674D01*
X196120400Y-129173674D01*
X196114400Y-129177674D01*
X196108400Y-129182674D01*
X196101400Y-129186674D01*
X196094400Y-129190674D01*
X196087400Y-129193674D01*
X196080400Y-129196674D01*
X196072400Y-129199674D01*
X196065400Y-129201674D01*
X196057400Y-129203674D01*
X196049400Y-129204674D01*
X196042400Y-129205674D01*
X196034400Y-129206674D01*
X196026400Y-129206674D01*
X195226400Y-129206674D01*
X195226400Y-128906674D01*
X196026400Y-128906674D01*
X196034400Y-128906674D01*
X196042400Y-128907674D01*
G37*
X200976400Y-128706674D02*
X200176400Y-128706674D01*
X200168400Y-128706674D01*
X200160400Y-128705674D01*
X200153400Y-128704674D01*
X200145400Y-128703674D01*
X200137400Y-128701674D01*
X200130400Y-128699674D01*
X200122400Y-128696674D01*
X200115400Y-128693674D01*
X200108400Y-128690674D01*
X200101400Y-128686674D01*
X200094400Y-128682674D01*
X200088400Y-128677674D01*
X200082400Y-128673674D01*
X200076400Y-128667674D01*
X200070400Y-128662674D01*
X200065400Y-128656674D01*
X200059400Y-128650674D01*
X200055400Y-128644674D01*
X200050400Y-128638674D01*
X200046400Y-128631674D01*
X200042400Y-128624674D01*
X200039400Y-128617674D01*
X200036400Y-128610674D01*
X200033400Y-128602674D01*
X200031400Y-128595674D01*
X200029400Y-128587674D01*
X200028400Y-128579674D01*
X200027400Y-128572674D01*
X200026400Y-128564674D01*
X200026400Y-128556674D01*
X200026400Y-128548674D01*
X200027400Y-128540674D01*
X200028400Y-128533674D01*
X200029400Y-128525674D01*
X200031400Y-128517674D01*
X200033400Y-128510674D01*
X200036400Y-128502674D01*
X200039400Y-128495674D01*
X200042400Y-128488674D01*
X200046400Y-128481674D01*
X200050400Y-128474674D01*
X200055400Y-128468674D01*
X200059400Y-128462674D01*
X200065400Y-128456674D01*
X200070400Y-128450674D01*
X200076400Y-128445674D01*
X200082400Y-128439674D01*
X200088400Y-128435674D01*
X200094400Y-128430674D01*
X200101400Y-128426674D01*
X200108400Y-128422674D01*
X200115400Y-128419674D01*
X200122400Y-128416674D01*
X200130400Y-128413674D01*
X200137400Y-128411674D01*
X200145400Y-128409674D01*
X200153400Y-128408674D01*
X200160400Y-128407674D01*
X200168400Y-128406674D01*
X200176400Y-128406674D01*
X200976400Y-128406674D01*
X200976400Y-128706674D01*
G36*
X200976400Y-128706674D02*
G01*
X200176400Y-128706674D01*
X200168400Y-128706674D01*
X200160400Y-128705674D01*
X200153400Y-128704674D01*
X200145400Y-128703674D01*
X200137400Y-128701674D01*
X200130400Y-128699674D01*
X200122400Y-128696674D01*
X200115400Y-128693674D01*
X200108400Y-128690674D01*
X200101400Y-128686674D01*
X200094400Y-128682674D01*
X200088400Y-128677674D01*
X200082400Y-128673674D01*
X200076400Y-128667674D01*
X200070400Y-128662674D01*
X200065400Y-128656674D01*
X200059400Y-128650674D01*
X200055400Y-128644674D01*
X200050400Y-128638674D01*
X200046400Y-128631674D01*
X200042400Y-128624674D01*
X200039400Y-128617674D01*
X200036400Y-128610674D01*
X200033400Y-128602674D01*
X200031400Y-128595674D01*
X200029400Y-128587674D01*
X200028400Y-128579674D01*
X200027400Y-128572674D01*
X200026400Y-128564674D01*
X200026400Y-128556674D01*
X200026400Y-128548674D01*
X200027400Y-128540674D01*
X200028400Y-128533674D01*
X200029400Y-128525674D01*
X200031400Y-128517674D01*
X200033400Y-128510674D01*
X200036400Y-128502674D01*
X200039400Y-128495674D01*
X200042400Y-128488674D01*
X200046400Y-128481674D01*
X200050400Y-128474674D01*
X200055400Y-128468674D01*
X200059400Y-128462674D01*
X200065400Y-128456674D01*
X200070400Y-128450674D01*
X200076400Y-128445674D01*
X200082400Y-128439674D01*
X200088400Y-128435674D01*
X200094400Y-128430674D01*
X200101400Y-128426674D01*
X200108400Y-128422674D01*
X200115400Y-128419674D01*
X200122400Y-128416674D01*
X200130400Y-128413674D01*
X200137400Y-128411674D01*
X200145400Y-128409674D01*
X200153400Y-128408674D01*
X200160400Y-128407674D01*
X200168400Y-128406674D01*
X200176400Y-128406674D01*
X200976400Y-128406674D01*
X200976400Y-128706674D01*
G37*
X196042400Y-128407674D02*
X196049400Y-128408674D01*
X196057400Y-128409674D01*
X196065400Y-128411674D01*
X196072400Y-128413674D01*
X196080400Y-128416674D01*
X196087400Y-128419674D01*
X196094400Y-128422674D01*
X196101400Y-128426674D01*
X196108400Y-128430674D01*
X196114400Y-128435674D01*
X196120400Y-128439674D01*
X196126400Y-128445674D01*
X196132400Y-128450674D01*
X196137400Y-128456674D01*
X196143400Y-128462674D01*
X196147400Y-128468674D01*
X196152400Y-128474674D01*
X196156400Y-128481674D01*
X196160400Y-128488674D01*
X196163400Y-128495674D01*
X196166400Y-128502674D01*
X196169400Y-128510674D01*
X196171400Y-128517674D01*
X196173400Y-128525674D01*
X196174400Y-128533674D01*
X196175400Y-128540674D01*
X196176400Y-128548674D01*
X196176400Y-128556674D01*
X196176400Y-128564674D01*
X196175400Y-128572674D01*
X196174400Y-128579674D01*
X196173400Y-128587674D01*
X196171400Y-128595674D01*
X196169400Y-128602674D01*
X196166400Y-128610674D01*
X196163400Y-128617674D01*
X196160400Y-128624674D01*
X196156400Y-128631674D01*
X196152400Y-128638674D01*
X196147400Y-128644674D01*
X196143400Y-128650674D01*
X196137400Y-128656674D01*
X196132400Y-128662674D01*
X196126400Y-128667674D01*
X196120400Y-128673674D01*
X196114400Y-128677674D01*
X196108400Y-128682674D01*
X196101400Y-128686674D01*
X196094400Y-128690674D01*
X196087400Y-128693674D01*
X196080400Y-128696674D01*
X196072400Y-128699674D01*
X196065400Y-128701674D01*
X196057400Y-128703674D01*
X196049400Y-128704674D01*
X196042400Y-128705674D01*
X196034400Y-128706674D01*
X196026400Y-128706674D01*
X195226400Y-128706674D01*
X195226400Y-128406674D01*
X196026400Y-128406674D01*
X196034400Y-128406674D01*
X196042400Y-128407674D01*
G36*
X196042400Y-128407674D02*
G01*
X196049400Y-128408674D01*
X196057400Y-128409674D01*
X196065400Y-128411674D01*
X196072400Y-128413674D01*
X196080400Y-128416674D01*
X196087400Y-128419674D01*
X196094400Y-128422674D01*
X196101400Y-128426674D01*
X196108400Y-128430674D01*
X196114400Y-128435674D01*
X196120400Y-128439674D01*
X196126400Y-128445674D01*
X196132400Y-128450674D01*
X196137400Y-128456674D01*
X196143400Y-128462674D01*
X196147400Y-128468674D01*
X196152400Y-128474674D01*
X196156400Y-128481674D01*
X196160400Y-128488674D01*
X196163400Y-128495674D01*
X196166400Y-128502674D01*
X196169400Y-128510674D01*
X196171400Y-128517674D01*
X196173400Y-128525674D01*
X196174400Y-128533674D01*
X196175400Y-128540674D01*
X196176400Y-128548674D01*
X196176400Y-128556674D01*
X196176400Y-128564674D01*
X196175400Y-128572674D01*
X196174400Y-128579674D01*
X196173400Y-128587674D01*
X196171400Y-128595674D01*
X196169400Y-128602674D01*
X196166400Y-128610674D01*
X196163400Y-128617674D01*
X196160400Y-128624674D01*
X196156400Y-128631674D01*
X196152400Y-128638674D01*
X196147400Y-128644674D01*
X196143400Y-128650674D01*
X196137400Y-128656674D01*
X196132400Y-128662674D01*
X196126400Y-128667674D01*
X196120400Y-128673674D01*
X196114400Y-128677674D01*
X196108400Y-128682674D01*
X196101400Y-128686674D01*
X196094400Y-128690674D01*
X196087400Y-128693674D01*
X196080400Y-128696674D01*
X196072400Y-128699674D01*
X196065400Y-128701674D01*
X196057400Y-128703674D01*
X196049400Y-128704674D01*
X196042400Y-128705674D01*
X196034400Y-128706674D01*
X196026400Y-128706674D01*
X195226400Y-128706674D01*
X195226400Y-128406674D01*
X196026400Y-128406674D01*
X196034400Y-128406674D01*
X196042400Y-128407674D01*
G37*
X200976400Y-128206674D02*
X200176400Y-128206674D01*
X200168400Y-128206674D01*
X200160400Y-128205674D01*
X200153400Y-128204674D01*
X200145400Y-128203674D01*
X200137400Y-128201674D01*
X200130400Y-128199674D01*
X200122400Y-128196674D01*
X200115400Y-128193674D01*
X200108400Y-128190674D01*
X200101400Y-128186674D01*
X200094400Y-128182674D01*
X200088400Y-128177674D01*
X200082400Y-128173674D01*
X200076400Y-128167674D01*
X200070400Y-128162674D01*
X200065400Y-128156674D01*
X200059400Y-128150674D01*
X200055400Y-128144674D01*
X200050400Y-128138674D01*
X200046400Y-128131674D01*
X200042400Y-128124674D01*
X200039400Y-128117674D01*
X200036400Y-128110674D01*
X200033400Y-128102674D01*
X200031400Y-128095674D01*
X200029400Y-128087674D01*
X200028400Y-128079674D01*
X200027400Y-128072674D01*
X200026400Y-128064674D01*
X200026400Y-128056674D01*
X200026400Y-128048674D01*
X200027400Y-128040674D01*
X200028400Y-128033674D01*
X200029400Y-128025674D01*
X200031400Y-128017674D01*
X200033400Y-128010674D01*
X200036400Y-128002674D01*
X200039400Y-127995674D01*
X200042400Y-127988674D01*
X200046400Y-127981674D01*
X200050400Y-127974674D01*
X200055400Y-127968674D01*
X200059400Y-127962674D01*
X200065400Y-127956674D01*
X200070400Y-127950674D01*
X200076400Y-127945674D01*
X200082400Y-127939674D01*
X200088400Y-127935674D01*
X200094400Y-127930674D01*
X200101400Y-127926674D01*
X200108400Y-127922674D01*
X200115400Y-127919674D01*
X200122400Y-127916674D01*
X200130400Y-127913674D01*
X200137400Y-127911674D01*
X200145400Y-127909674D01*
X200153400Y-127908674D01*
X200160400Y-127907674D01*
X200168400Y-127906674D01*
X200176400Y-127906674D01*
X200976400Y-127906674D01*
X200976400Y-128206674D01*
G36*
X200976400Y-128206674D02*
G01*
X200176400Y-128206674D01*
X200168400Y-128206674D01*
X200160400Y-128205674D01*
X200153400Y-128204674D01*
X200145400Y-128203674D01*
X200137400Y-128201674D01*
X200130400Y-128199674D01*
X200122400Y-128196674D01*
X200115400Y-128193674D01*
X200108400Y-128190674D01*
X200101400Y-128186674D01*
X200094400Y-128182674D01*
X200088400Y-128177674D01*
X200082400Y-128173674D01*
X200076400Y-128167674D01*
X200070400Y-128162674D01*
X200065400Y-128156674D01*
X200059400Y-128150674D01*
X200055400Y-128144674D01*
X200050400Y-128138674D01*
X200046400Y-128131674D01*
X200042400Y-128124674D01*
X200039400Y-128117674D01*
X200036400Y-128110674D01*
X200033400Y-128102674D01*
X200031400Y-128095674D01*
X200029400Y-128087674D01*
X200028400Y-128079674D01*
X200027400Y-128072674D01*
X200026400Y-128064674D01*
X200026400Y-128056674D01*
X200026400Y-128048674D01*
X200027400Y-128040674D01*
X200028400Y-128033674D01*
X200029400Y-128025674D01*
X200031400Y-128017674D01*
X200033400Y-128010674D01*
X200036400Y-128002674D01*
X200039400Y-127995674D01*
X200042400Y-127988674D01*
X200046400Y-127981674D01*
X200050400Y-127974674D01*
X200055400Y-127968674D01*
X200059400Y-127962674D01*
X200065400Y-127956674D01*
X200070400Y-127950674D01*
X200076400Y-127945674D01*
X200082400Y-127939674D01*
X200088400Y-127935674D01*
X200094400Y-127930674D01*
X200101400Y-127926674D01*
X200108400Y-127922674D01*
X200115400Y-127919674D01*
X200122400Y-127916674D01*
X200130400Y-127913674D01*
X200137400Y-127911674D01*
X200145400Y-127909674D01*
X200153400Y-127908674D01*
X200160400Y-127907674D01*
X200168400Y-127906674D01*
X200176400Y-127906674D01*
X200976400Y-127906674D01*
X200976400Y-128206674D01*
G37*
X196042400Y-127907674D02*
X196049400Y-127908674D01*
X196057400Y-127909674D01*
X196065400Y-127911674D01*
X196072400Y-127913674D01*
X196080400Y-127916674D01*
X196087400Y-127919674D01*
X196094400Y-127922674D01*
X196101400Y-127926674D01*
X196108400Y-127930674D01*
X196114400Y-127935674D01*
X196120400Y-127939674D01*
X196126400Y-127945674D01*
X196132400Y-127950674D01*
X196137400Y-127956674D01*
X196143400Y-127962674D01*
X196147400Y-127968674D01*
X196152400Y-127974674D01*
X196156400Y-127981674D01*
X196160400Y-127988674D01*
X196163400Y-127995674D01*
X196166400Y-128002674D01*
X196169400Y-128010674D01*
X196171400Y-128017674D01*
X196173400Y-128025674D01*
X196174400Y-128033674D01*
X196175400Y-128040674D01*
X196176400Y-128048674D01*
X196176400Y-128056674D01*
X196176400Y-128064674D01*
X196175400Y-128072674D01*
X196174400Y-128079674D01*
X196173400Y-128087674D01*
X196171400Y-128095674D01*
X196169400Y-128102674D01*
X196166400Y-128110674D01*
X196163400Y-128117674D01*
X196160400Y-128124674D01*
X196156400Y-128131674D01*
X196152400Y-128138674D01*
X196147400Y-128144674D01*
X196143400Y-128150674D01*
X196137400Y-128156674D01*
X196132400Y-128162674D01*
X196126400Y-128167674D01*
X196120400Y-128173674D01*
X196114400Y-128177674D01*
X196108400Y-128182674D01*
X196101400Y-128186674D01*
X196094400Y-128190674D01*
X196087400Y-128193674D01*
X196080400Y-128196674D01*
X196072400Y-128199674D01*
X196065400Y-128201674D01*
X196057400Y-128203674D01*
X196049400Y-128204674D01*
X196042400Y-128205674D01*
X196034400Y-128206674D01*
X196026400Y-128206674D01*
X195226400Y-128206674D01*
X195226400Y-127906674D01*
X196026400Y-127906674D01*
X196034400Y-127906674D01*
X196042400Y-127907674D01*
G36*
X196042400Y-127907674D02*
G01*
X196049400Y-127908674D01*
X196057400Y-127909674D01*
X196065400Y-127911674D01*
X196072400Y-127913674D01*
X196080400Y-127916674D01*
X196087400Y-127919674D01*
X196094400Y-127922674D01*
X196101400Y-127926674D01*
X196108400Y-127930674D01*
X196114400Y-127935674D01*
X196120400Y-127939674D01*
X196126400Y-127945674D01*
X196132400Y-127950674D01*
X196137400Y-127956674D01*
X196143400Y-127962674D01*
X196147400Y-127968674D01*
X196152400Y-127974674D01*
X196156400Y-127981674D01*
X196160400Y-127988674D01*
X196163400Y-127995674D01*
X196166400Y-128002674D01*
X196169400Y-128010674D01*
X196171400Y-128017674D01*
X196173400Y-128025674D01*
X196174400Y-128033674D01*
X196175400Y-128040674D01*
X196176400Y-128048674D01*
X196176400Y-128056674D01*
X196176400Y-128064674D01*
X196175400Y-128072674D01*
X196174400Y-128079674D01*
X196173400Y-128087674D01*
X196171400Y-128095674D01*
X196169400Y-128102674D01*
X196166400Y-128110674D01*
X196163400Y-128117674D01*
X196160400Y-128124674D01*
X196156400Y-128131674D01*
X196152400Y-128138674D01*
X196147400Y-128144674D01*
X196143400Y-128150674D01*
X196137400Y-128156674D01*
X196132400Y-128162674D01*
X196126400Y-128167674D01*
X196120400Y-128173674D01*
X196114400Y-128177674D01*
X196108400Y-128182674D01*
X196101400Y-128186674D01*
X196094400Y-128190674D01*
X196087400Y-128193674D01*
X196080400Y-128196674D01*
X196072400Y-128199674D01*
X196065400Y-128201674D01*
X196057400Y-128203674D01*
X196049400Y-128204674D01*
X196042400Y-128205674D01*
X196034400Y-128206674D01*
X196026400Y-128206674D01*
X195226400Y-128206674D01*
X195226400Y-127906674D01*
X196026400Y-127906674D01*
X196034400Y-127906674D01*
X196042400Y-127907674D01*
G37*
X200976400Y-127706674D02*
X200176400Y-127706674D01*
X200168400Y-127706674D01*
X200160400Y-127705674D01*
X200153400Y-127704674D01*
X200145400Y-127703674D01*
X200137400Y-127701674D01*
X200130400Y-127699674D01*
X200122400Y-127696674D01*
X200115400Y-127693674D01*
X200108400Y-127690674D01*
X200101400Y-127686674D01*
X200094400Y-127682674D01*
X200088400Y-127677674D01*
X200082400Y-127673674D01*
X200076400Y-127667674D01*
X200070400Y-127662674D01*
X200065400Y-127656674D01*
X200059400Y-127650674D01*
X200055400Y-127644674D01*
X200050400Y-127638674D01*
X200046400Y-127631674D01*
X200042400Y-127624674D01*
X200039400Y-127617674D01*
X200036400Y-127610674D01*
X200033400Y-127602674D01*
X200031400Y-127595674D01*
X200029400Y-127587674D01*
X200028400Y-127579674D01*
X200027400Y-127572674D01*
X200026400Y-127564674D01*
X200026400Y-127556674D01*
X200026400Y-127548674D01*
X200027400Y-127540674D01*
X200028400Y-127533674D01*
X200029400Y-127525674D01*
X200031400Y-127517674D01*
X200033400Y-127510674D01*
X200036400Y-127502674D01*
X200039400Y-127495674D01*
X200042400Y-127488674D01*
X200046400Y-127481674D01*
X200050400Y-127474674D01*
X200055400Y-127468674D01*
X200059400Y-127462674D01*
X200065400Y-127456674D01*
X200070400Y-127450674D01*
X200076400Y-127445674D01*
X200082400Y-127439674D01*
X200088400Y-127435674D01*
X200094400Y-127430674D01*
X200101400Y-127426674D01*
X200108400Y-127422674D01*
X200115400Y-127419674D01*
X200122400Y-127416674D01*
X200130400Y-127413674D01*
X200137400Y-127411674D01*
X200145400Y-127409674D01*
X200153400Y-127408674D01*
X200160400Y-127407674D01*
X200168400Y-127406674D01*
X200176400Y-127406674D01*
X200976400Y-127406674D01*
X200976400Y-127706674D01*
G36*
X200976400Y-127706674D02*
G01*
X200176400Y-127706674D01*
X200168400Y-127706674D01*
X200160400Y-127705674D01*
X200153400Y-127704674D01*
X200145400Y-127703674D01*
X200137400Y-127701674D01*
X200130400Y-127699674D01*
X200122400Y-127696674D01*
X200115400Y-127693674D01*
X200108400Y-127690674D01*
X200101400Y-127686674D01*
X200094400Y-127682674D01*
X200088400Y-127677674D01*
X200082400Y-127673674D01*
X200076400Y-127667674D01*
X200070400Y-127662674D01*
X200065400Y-127656674D01*
X200059400Y-127650674D01*
X200055400Y-127644674D01*
X200050400Y-127638674D01*
X200046400Y-127631674D01*
X200042400Y-127624674D01*
X200039400Y-127617674D01*
X200036400Y-127610674D01*
X200033400Y-127602674D01*
X200031400Y-127595674D01*
X200029400Y-127587674D01*
X200028400Y-127579674D01*
X200027400Y-127572674D01*
X200026400Y-127564674D01*
X200026400Y-127556674D01*
X200026400Y-127548674D01*
X200027400Y-127540674D01*
X200028400Y-127533674D01*
X200029400Y-127525674D01*
X200031400Y-127517674D01*
X200033400Y-127510674D01*
X200036400Y-127502674D01*
X200039400Y-127495674D01*
X200042400Y-127488674D01*
X200046400Y-127481674D01*
X200050400Y-127474674D01*
X200055400Y-127468674D01*
X200059400Y-127462674D01*
X200065400Y-127456674D01*
X200070400Y-127450674D01*
X200076400Y-127445674D01*
X200082400Y-127439674D01*
X200088400Y-127435674D01*
X200094400Y-127430674D01*
X200101400Y-127426674D01*
X200108400Y-127422674D01*
X200115400Y-127419674D01*
X200122400Y-127416674D01*
X200130400Y-127413674D01*
X200137400Y-127411674D01*
X200145400Y-127409674D01*
X200153400Y-127408674D01*
X200160400Y-127407674D01*
X200168400Y-127406674D01*
X200176400Y-127406674D01*
X200976400Y-127406674D01*
X200976400Y-127706674D01*
G37*
X196042400Y-127407674D02*
X196049400Y-127408674D01*
X196057400Y-127409674D01*
X196065400Y-127411674D01*
X196072400Y-127413674D01*
X196080400Y-127416674D01*
X196087400Y-127419674D01*
X196094400Y-127422674D01*
X196101400Y-127426674D01*
X196108400Y-127430674D01*
X196114400Y-127435674D01*
X196120400Y-127439674D01*
X196126400Y-127445674D01*
X196132400Y-127450674D01*
X196137400Y-127456674D01*
X196143400Y-127462674D01*
X196147400Y-127468674D01*
X196152400Y-127474674D01*
X196156400Y-127481674D01*
X196160400Y-127488674D01*
X196163400Y-127495674D01*
X196166400Y-127502674D01*
X196169400Y-127510674D01*
X196171400Y-127517674D01*
X196173400Y-127525674D01*
X196174400Y-127533674D01*
X196175400Y-127540674D01*
X196176400Y-127548674D01*
X196176400Y-127556674D01*
X196176400Y-127564674D01*
X196175400Y-127572674D01*
X196174400Y-127579674D01*
X196173400Y-127587674D01*
X196171400Y-127595674D01*
X196169400Y-127602674D01*
X196166400Y-127610674D01*
X196163400Y-127617674D01*
X196160400Y-127624674D01*
X196156400Y-127631674D01*
X196152400Y-127638674D01*
X196147400Y-127644674D01*
X196143400Y-127650674D01*
X196137400Y-127656674D01*
X196132400Y-127662674D01*
X196126400Y-127667674D01*
X196120400Y-127673674D01*
X196114400Y-127677674D01*
X196108400Y-127682674D01*
X196101400Y-127686674D01*
X196094400Y-127690674D01*
X196087400Y-127693674D01*
X196080400Y-127696674D01*
X196072400Y-127699674D01*
X196065400Y-127701674D01*
X196057400Y-127703674D01*
X196049400Y-127704674D01*
X196042400Y-127705674D01*
X196034400Y-127706674D01*
X196026400Y-127706674D01*
X195226400Y-127706674D01*
X195226400Y-127406674D01*
X196026400Y-127406674D01*
X196034400Y-127406674D01*
X196042400Y-127407674D01*
G36*
X196042400Y-127407674D02*
G01*
X196049400Y-127408674D01*
X196057400Y-127409674D01*
X196065400Y-127411674D01*
X196072400Y-127413674D01*
X196080400Y-127416674D01*
X196087400Y-127419674D01*
X196094400Y-127422674D01*
X196101400Y-127426674D01*
X196108400Y-127430674D01*
X196114400Y-127435674D01*
X196120400Y-127439674D01*
X196126400Y-127445674D01*
X196132400Y-127450674D01*
X196137400Y-127456674D01*
X196143400Y-127462674D01*
X196147400Y-127468674D01*
X196152400Y-127474674D01*
X196156400Y-127481674D01*
X196160400Y-127488674D01*
X196163400Y-127495674D01*
X196166400Y-127502674D01*
X196169400Y-127510674D01*
X196171400Y-127517674D01*
X196173400Y-127525674D01*
X196174400Y-127533674D01*
X196175400Y-127540674D01*
X196176400Y-127548674D01*
X196176400Y-127556674D01*
X196176400Y-127564674D01*
X196175400Y-127572674D01*
X196174400Y-127579674D01*
X196173400Y-127587674D01*
X196171400Y-127595674D01*
X196169400Y-127602674D01*
X196166400Y-127610674D01*
X196163400Y-127617674D01*
X196160400Y-127624674D01*
X196156400Y-127631674D01*
X196152400Y-127638674D01*
X196147400Y-127644674D01*
X196143400Y-127650674D01*
X196137400Y-127656674D01*
X196132400Y-127662674D01*
X196126400Y-127667674D01*
X196120400Y-127673674D01*
X196114400Y-127677674D01*
X196108400Y-127682674D01*
X196101400Y-127686674D01*
X196094400Y-127690674D01*
X196087400Y-127693674D01*
X196080400Y-127696674D01*
X196072400Y-127699674D01*
X196065400Y-127701674D01*
X196057400Y-127703674D01*
X196049400Y-127704674D01*
X196042400Y-127705674D01*
X196034400Y-127706674D01*
X196026400Y-127706674D01*
X195226400Y-127706674D01*
X195226400Y-127406674D01*
X196026400Y-127406674D01*
X196034400Y-127406674D01*
X196042400Y-127407674D01*
G37*
X200976400Y-127206674D02*
X200176400Y-127206674D01*
X200168400Y-127206674D01*
X200160400Y-127205674D01*
X200153400Y-127204674D01*
X200145400Y-127203674D01*
X200137400Y-127201674D01*
X200130400Y-127199674D01*
X200122400Y-127196674D01*
X200115400Y-127193674D01*
X200108400Y-127190674D01*
X200101400Y-127186674D01*
X200094400Y-127182674D01*
X200088400Y-127177674D01*
X200082400Y-127173674D01*
X200076400Y-127167674D01*
X200070400Y-127162674D01*
X200065400Y-127156674D01*
X200059400Y-127150674D01*
X200055400Y-127144674D01*
X200050400Y-127138674D01*
X200046400Y-127131674D01*
X200042400Y-127124674D01*
X200039400Y-127117674D01*
X200036400Y-127110674D01*
X200033400Y-127102674D01*
X200031400Y-127095674D01*
X200029400Y-127087674D01*
X200028400Y-127079674D01*
X200027400Y-127072674D01*
X200026400Y-127064674D01*
X200026400Y-127056674D01*
X200026400Y-127048674D01*
X200027400Y-127040674D01*
X200028400Y-127033674D01*
X200029400Y-127025674D01*
X200031400Y-127017674D01*
X200033400Y-127010674D01*
X200036400Y-127002674D01*
X200039400Y-126995674D01*
X200042400Y-126988674D01*
X200046400Y-126981674D01*
X200050400Y-126974674D01*
X200055400Y-126968674D01*
X200059400Y-126962674D01*
X200065400Y-126956674D01*
X200070400Y-126950674D01*
X200076400Y-126945674D01*
X200082400Y-126939674D01*
X200088400Y-126935674D01*
X200094400Y-126930674D01*
X200101400Y-126926674D01*
X200108400Y-126922674D01*
X200115400Y-126919674D01*
X200122400Y-126916674D01*
X200130400Y-126913674D01*
X200137400Y-126911674D01*
X200145400Y-126909674D01*
X200153400Y-126908674D01*
X200160400Y-126907674D01*
X200168400Y-126906674D01*
X200176400Y-126906674D01*
X200976400Y-126906674D01*
X200976400Y-127206674D01*
G36*
X200976400Y-127206674D02*
G01*
X200176400Y-127206674D01*
X200168400Y-127206674D01*
X200160400Y-127205674D01*
X200153400Y-127204674D01*
X200145400Y-127203674D01*
X200137400Y-127201674D01*
X200130400Y-127199674D01*
X200122400Y-127196674D01*
X200115400Y-127193674D01*
X200108400Y-127190674D01*
X200101400Y-127186674D01*
X200094400Y-127182674D01*
X200088400Y-127177674D01*
X200082400Y-127173674D01*
X200076400Y-127167674D01*
X200070400Y-127162674D01*
X200065400Y-127156674D01*
X200059400Y-127150674D01*
X200055400Y-127144674D01*
X200050400Y-127138674D01*
X200046400Y-127131674D01*
X200042400Y-127124674D01*
X200039400Y-127117674D01*
X200036400Y-127110674D01*
X200033400Y-127102674D01*
X200031400Y-127095674D01*
X200029400Y-127087674D01*
X200028400Y-127079674D01*
X200027400Y-127072674D01*
X200026400Y-127064674D01*
X200026400Y-127056674D01*
X200026400Y-127048674D01*
X200027400Y-127040674D01*
X200028400Y-127033674D01*
X200029400Y-127025674D01*
X200031400Y-127017674D01*
X200033400Y-127010674D01*
X200036400Y-127002674D01*
X200039400Y-126995674D01*
X200042400Y-126988674D01*
X200046400Y-126981674D01*
X200050400Y-126974674D01*
X200055400Y-126968674D01*
X200059400Y-126962674D01*
X200065400Y-126956674D01*
X200070400Y-126950674D01*
X200076400Y-126945674D01*
X200082400Y-126939674D01*
X200088400Y-126935674D01*
X200094400Y-126930674D01*
X200101400Y-126926674D01*
X200108400Y-126922674D01*
X200115400Y-126919674D01*
X200122400Y-126916674D01*
X200130400Y-126913674D01*
X200137400Y-126911674D01*
X200145400Y-126909674D01*
X200153400Y-126908674D01*
X200160400Y-126907674D01*
X200168400Y-126906674D01*
X200176400Y-126906674D01*
X200976400Y-126906674D01*
X200976400Y-127206674D01*
G37*
X196042400Y-126907674D02*
X196049400Y-126908674D01*
X196057400Y-126909674D01*
X196065400Y-126911674D01*
X196072400Y-126913674D01*
X196080400Y-126916674D01*
X196087400Y-126919674D01*
X196094400Y-126922674D01*
X196101400Y-126926674D01*
X196108400Y-126930674D01*
X196114400Y-126935674D01*
X196120400Y-126939674D01*
X196126400Y-126945674D01*
X196132400Y-126950674D01*
X196137400Y-126956674D01*
X196143400Y-126962674D01*
X196147400Y-126968674D01*
X196152400Y-126974674D01*
X196156400Y-126981674D01*
X196160400Y-126988674D01*
X196163400Y-126995674D01*
X196166400Y-127002674D01*
X196169400Y-127010674D01*
X196171400Y-127017674D01*
X196173400Y-127025674D01*
X196174400Y-127033674D01*
X196175400Y-127040674D01*
X196176400Y-127048674D01*
X196176400Y-127056674D01*
X196176400Y-127064674D01*
X196175400Y-127072674D01*
X196174400Y-127079674D01*
X196173400Y-127087674D01*
X196171400Y-127095674D01*
X196169400Y-127102674D01*
X196166400Y-127110674D01*
X196163400Y-127117674D01*
X196160400Y-127124674D01*
X196156400Y-127131674D01*
X196152400Y-127138674D01*
X196147400Y-127144674D01*
X196143400Y-127150674D01*
X196137400Y-127156674D01*
X196132400Y-127162674D01*
X196126400Y-127167674D01*
X196120400Y-127173674D01*
X196114400Y-127177674D01*
X196108400Y-127182674D01*
X196101400Y-127186674D01*
X196094400Y-127190674D01*
X196087400Y-127193674D01*
X196080400Y-127196674D01*
X196072400Y-127199674D01*
X196065400Y-127201674D01*
X196057400Y-127203674D01*
X196049400Y-127204674D01*
X196042400Y-127205674D01*
X196034400Y-127206674D01*
X196026400Y-127206674D01*
X195226400Y-127206674D01*
X195226400Y-126906674D01*
X196026400Y-126906674D01*
X196034400Y-126906674D01*
X196042400Y-126907674D01*
G36*
X196042400Y-126907674D02*
G01*
X196049400Y-126908674D01*
X196057400Y-126909674D01*
X196065400Y-126911674D01*
X196072400Y-126913674D01*
X196080400Y-126916674D01*
X196087400Y-126919674D01*
X196094400Y-126922674D01*
X196101400Y-126926674D01*
X196108400Y-126930674D01*
X196114400Y-126935674D01*
X196120400Y-126939674D01*
X196126400Y-126945674D01*
X196132400Y-126950674D01*
X196137400Y-126956674D01*
X196143400Y-126962674D01*
X196147400Y-126968674D01*
X196152400Y-126974674D01*
X196156400Y-126981674D01*
X196160400Y-126988674D01*
X196163400Y-126995674D01*
X196166400Y-127002674D01*
X196169400Y-127010674D01*
X196171400Y-127017674D01*
X196173400Y-127025674D01*
X196174400Y-127033674D01*
X196175400Y-127040674D01*
X196176400Y-127048674D01*
X196176400Y-127056674D01*
X196176400Y-127064674D01*
X196175400Y-127072674D01*
X196174400Y-127079674D01*
X196173400Y-127087674D01*
X196171400Y-127095674D01*
X196169400Y-127102674D01*
X196166400Y-127110674D01*
X196163400Y-127117674D01*
X196160400Y-127124674D01*
X196156400Y-127131674D01*
X196152400Y-127138674D01*
X196147400Y-127144674D01*
X196143400Y-127150674D01*
X196137400Y-127156674D01*
X196132400Y-127162674D01*
X196126400Y-127167674D01*
X196120400Y-127173674D01*
X196114400Y-127177674D01*
X196108400Y-127182674D01*
X196101400Y-127186674D01*
X196094400Y-127190674D01*
X196087400Y-127193674D01*
X196080400Y-127196674D01*
X196072400Y-127199674D01*
X196065400Y-127201674D01*
X196057400Y-127203674D01*
X196049400Y-127204674D01*
X196042400Y-127205674D01*
X196034400Y-127206674D01*
X196026400Y-127206674D01*
X195226400Y-127206674D01*
X195226400Y-126906674D01*
X196026400Y-126906674D01*
X196034400Y-126906674D01*
X196042400Y-126907674D01*
G37*
X200976400Y-126706674D02*
X200176400Y-126706674D01*
X200168400Y-126706674D01*
X200160400Y-126705674D01*
X200153400Y-126704674D01*
X200145400Y-126703674D01*
X200137400Y-126701674D01*
X200130400Y-126699674D01*
X200122400Y-126696674D01*
X200115400Y-126693674D01*
X200108400Y-126690674D01*
X200101400Y-126686674D01*
X200094400Y-126682674D01*
X200088400Y-126677674D01*
X200082400Y-126673674D01*
X200076400Y-126667674D01*
X200070400Y-126662674D01*
X200065400Y-126656674D01*
X200059400Y-126650674D01*
X200055400Y-126644674D01*
X200050400Y-126638674D01*
X200046400Y-126631674D01*
X200042400Y-126624674D01*
X200039400Y-126617674D01*
X200036400Y-126610674D01*
X200033400Y-126602674D01*
X200031400Y-126595674D01*
X200029400Y-126587674D01*
X200028400Y-126579674D01*
X200027400Y-126572674D01*
X200026400Y-126564674D01*
X200026400Y-126556674D01*
X200026400Y-126548674D01*
X200027400Y-126540674D01*
X200028400Y-126533674D01*
X200029400Y-126525674D01*
X200031400Y-126517674D01*
X200033400Y-126510674D01*
X200036400Y-126502674D01*
X200039400Y-126495674D01*
X200042400Y-126488674D01*
X200046400Y-126481674D01*
X200050400Y-126474674D01*
X200055400Y-126468674D01*
X200059400Y-126462674D01*
X200065400Y-126456674D01*
X200070400Y-126450674D01*
X200076400Y-126445674D01*
X200082400Y-126439674D01*
X200088400Y-126435674D01*
X200094400Y-126430674D01*
X200101400Y-126426674D01*
X200108400Y-126422674D01*
X200115400Y-126419674D01*
X200122400Y-126416674D01*
X200130400Y-126413674D01*
X200137400Y-126411674D01*
X200145400Y-126409674D01*
X200153400Y-126408674D01*
X200160400Y-126407674D01*
X200168400Y-126406674D01*
X200176400Y-126406674D01*
X200976400Y-126406674D01*
X200976400Y-126706674D01*
G36*
X200976400Y-126706674D02*
G01*
X200176400Y-126706674D01*
X200168400Y-126706674D01*
X200160400Y-126705674D01*
X200153400Y-126704674D01*
X200145400Y-126703674D01*
X200137400Y-126701674D01*
X200130400Y-126699674D01*
X200122400Y-126696674D01*
X200115400Y-126693674D01*
X200108400Y-126690674D01*
X200101400Y-126686674D01*
X200094400Y-126682674D01*
X200088400Y-126677674D01*
X200082400Y-126673674D01*
X200076400Y-126667674D01*
X200070400Y-126662674D01*
X200065400Y-126656674D01*
X200059400Y-126650674D01*
X200055400Y-126644674D01*
X200050400Y-126638674D01*
X200046400Y-126631674D01*
X200042400Y-126624674D01*
X200039400Y-126617674D01*
X200036400Y-126610674D01*
X200033400Y-126602674D01*
X200031400Y-126595674D01*
X200029400Y-126587674D01*
X200028400Y-126579674D01*
X200027400Y-126572674D01*
X200026400Y-126564674D01*
X200026400Y-126556674D01*
X200026400Y-126548674D01*
X200027400Y-126540674D01*
X200028400Y-126533674D01*
X200029400Y-126525674D01*
X200031400Y-126517674D01*
X200033400Y-126510674D01*
X200036400Y-126502674D01*
X200039400Y-126495674D01*
X200042400Y-126488674D01*
X200046400Y-126481674D01*
X200050400Y-126474674D01*
X200055400Y-126468674D01*
X200059400Y-126462674D01*
X200065400Y-126456674D01*
X200070400Y-126450674D01*
X200076400Y-126445674D01*
X200082400Y-126439674D01*
X200088400Y-126435674D01*
X200094400Y-126430674D01*
X200101400Y-126426674D01*
X200108400Y-126422674D01*
X200115400Y-126419674D01*
X200122400Y-126416674D01*
X200130400Y-126413674D01*
X200137400Y-126411674D01*
X200145400Y-126409674D01*
X200153400Y-126408674D01*
X200160400Y-126407674D01*
X200168400Y-126406674D01*
X200176400Y-126406674D01*
X200976400Y-126406674D01*
X200976400Y-126706674D01*
G37*
X196042400Y-126407674D02*
X196049400Y-126408674D01*
X196057400Y-126409674D01*
X196065400Y-126411674D01*
X196072400Y-126413674D01*
X196080400Y-126416674D01*
X196087400Y-126419674D01*
X196094400Y-126422674D01*
X196101400Y-126426674D01*
X196108400Y-126430674D01*
X196114400Y-126435674D01*
X196120400Y-126439674D01*
X196126400Y-126445674D01*
X196132400Y-126450674D01*
X196137400Y-126456674D01*
X196143400Y-126462674D01*
X196147400Y-126468674D01*
X196152400Y-126474674D01*
X196156400Y-126481674D01*
X196160400Y-126488674D01*
X196163400Y-126495674D01*
X196166400Y-126502674D01*
X196169400Y-126510674D01*
X196171400Y-126517674D01*
X196173400Y-126525674D01*
X196174400Y-126533674D01*
X196175400Y-126540674D01*
X196176400Y-126548674D01*
X196176400Y-126556674D01*
X196176400Y-126564674D01*
X196175400Y-126572674D01*
X196174400Y-126579674D01*
X196173400Y-126587674D01*
X196171400Y-126595674D01*
X196169400Y-126602674D01*
X196166400Y-126610674D01*
X196163400Y-126617674D01*
X196160400Y-126624674D01*
X196156400Y-126631674D01*
X196152400Y-126638674D01*
X196147400Y-126644674D01*
X196143400Y-126650674D01*
X196137400Y-126656674D01*
X196132400Y-126662674D01*
X196126400Y-126667674D01*
X196120400Y-126673674D01*
X196114400Y-126677674D01*
X196108400Y-126682674D01*
X196101400Y-126686674D01*
X196094400Y-126690674D01*
X196087400Y-126693674D01*
X196080400Y-126696674D01*
X196072400Y-126699674D01*
X196065400Y-126701674D01*
X196057400Y-126703674D01*
X196049400Y-126704674D01*
X196042400Y-126705674D01*
X196034400Y-126706674D01*
X196026400Y-126706674D01*
X195226400Y-126706674D01*
X195226400Y-126406674D01*
X196026400Y-126406674D01*
X196034400Y-126406674D01*
X196042400Y-126407674D01*
G36*
X196042400Y-126407674D02*
G01*
X196049400Y-126408674D01*
X196057400Y-126409674D01*
X196065400Y-126411674D01*
X196072400Y-126413674D01*
X196080400Y-126416674D01*
X196087400Y-126419674D01*
X196094400Y-126422674D01*
X196101400Y-126426674D01*
X196108400Y-126430674D01*
X196114400Y-126435674D01*
X196120400Y-126439674D01*
X196126400Y-126445674D01*
X196132400Y-126450674D01*
X196137400Y-126456674D01*
X196143400Y-126462674D01*
X196147400Y-126468674D01*
X196152400Y-126474674D01*
X196156400Y-126481674D01*
X196160400Y-126488674D01*
X196163400Y-126495674D01*
X196166400Y-126502674D01*
X196169400Y-126510674D01*
X196171400Y-126517674D01*
X196173400Y-126525674D01*
X196174400Y-126533674D01*
X196175400Y-126540674D01*
X196176400Y-126548674D01*
X196176400Y-126556674D01*
X196176400Y-126564674D01*
X196175400Y-126572674D01*
X196174400Y-126579674D01*
X196173400Y-126587674D01*
X196171400Y-126595674D01*
X196169400Y-126602674D01*
X196166400Y-126610674D01*
X196163400Y-126617674D01*
X196160400Y-126624674D01*
X196156400Y-126631674D01*
X196152400Y-126638674D01*
X196147400Y-126644674D01*
X196143400Y-126650674D01*
X196137400Y-126656674D01*
X196132400Y-126662674D01*
X196126400Y-126667674D01*
X196120400Y-126673674D01*
X196114400Y-126677674D01*
X196108400Y-126682674D01*
X196101400Y-126686674D01*
X196094400Y-126690674D01*
X196087400Y-126693674D01*
X196080400Y-126696674D01*
X196072400Y-126699674D01*
X196065400Y-126701674D01*
X196057400Y-126703674D01*
X196049400Y-126704674D01*
X196042400Y-126705674D01*
X196034400Y-126706674D01*
X196026400Y-126706674D01*
X195226400Y-126706674D01*
X195226400Y-126406674D01*
X196026400Y-126406674D01*
X196034400Y-126406674D01*
X196042400Y-126407674D01*
G37*
X200976400Y-126206674D02*
X200176400Y-126206674D01*
X200168400Y-126206674D01*
X200160400Y-126205674D01*
X200153400Y-126204674D01*
X200145400Y-126203674D01*
X200137400Y-126201674D01*
X200130400Y-126199674D01*
X200122400Y-126196674D01*
X200115400Y-126193674D01*
X200108400Y-126190674D01*
X200101400Y-126186674D01*
X200094400Y-126182674D01*
X200088400Y-126177674D01*
X200082400Y-126173674D01*
X200076400Y-126167674D01*
X200070400Y-126162674D01*
X200065400Y-126156674D01*
X200059400Y-126150674D01*
X200055400Y-126144674D01*
X200050400Y-126138674D01*
X200046400Y-126131674D01*
X200042400Y-126124674D01*
X200039400Y-126117674D01*
X200036400Y-126110674D01*
X200033400Y-126102674D01*
X200031400Y-126095674D01*
X200029400Y-126087674D01*
X200028400Y-126079674D01*
X200027400Y-126072674D01*
X200026400Y-126064674D01*
X200026400Y-126056674D01*
X200026400Y-126048674D01*
X200027400Y-126040674D01*
X200028400Y-126033674D01*
X200029400Y-126025674D01*
X200031400Y-126017674D01*
X200033400Y-126010674D01*
X200036400Y-126002674D01*
X200039400Y-125995674D01*
X200042400Y-125988674D01*
X200046400Y-125981674D01*
X200050400Y-125974674D01*
X200055400Y-125968674D01*
X200059400Y-125962674D01*
X200065400Y-125956674D01*
X200070400Y-125950674D01*
X200076400Y-125945674D01*
X200082400Y-125939674D01*
X200088400Y-125935674D01*
X200094400Y-125930674D01*
X200101400Y-125926674D01*
X200108400Y-125922674D01*
X200115400Y-125919674D01*
X200122400Y-125916674D01*
X200130400Y-125913674D01*
X200137400Y-125911674D01*
X200145400Y-125909674D01*
X200153400Y-125908674D01*
X200160400Y-125907674D01*
X200168400Y-125906674D01*
X200176400Y-125906674D01*
X200976400Y-125906674D01*
X200976400Y-126206674D01*
G36*
X200976400Y-126206674D02*
G01*
X200176400Y-126206674D01*
X200168400Y-126206674D01*
X200160400Y-126205674D01*
X200153400Y-126204674D01*
X200145400Y-126203674D01*
X200137400Y-126201674D01*
X200130400Y-126199674D01*
X200122400Y-126196674D01*
X200115400Y-126193674D01*
X200108400Y-126190674D01*
X200101400Y-126186674D01*
X200094400Y-126182674D01*
X200088400Y-126177674D01*
X200082400Y-126173674D01*
X200076400Y-126167674D01*
X200070400Y-126162674D01*
X200065400Y-126156674D01*
X200059400Y-126150674D01*
X200055400Y-126144674D01*
X200050400Y-126138674D01*
X200046400Y-126131674D01*
X200042400Y-126124674D01*
X200039400Y-126117674D01*
X200036400Y-126110674D01*
X200033400Y-126102674D01*
X200031400Y-126095674D01*
X200029400Y-126087674D01*
X200028400Y-126079674D01*
X200027400Y-126072674D01*
X200026400Y-126064674D01*
X200026400Y-126056674D01*
X200026400Y-126048674D01*
X200027400Y-126040674D01*
X200028400Y-126033674D01*
X200029400Y-126025674D01*
X200031400Y-126017674D01*
X200033400Y-126010674D01*
X200036400Y-126002674D01*
X200039400Y-125995674D01*
X200042400Y-125988674D01*
X200046400Y-125981674D01*
X200050400Y-125974674D01*
X200055400Y-125968674D01*
X200059400Y-125962674D01*
X200065400Y-125956674D01*
X200070400Y-125950674D01*
X200076400Y-125945674D01*
X200082400Y-125939674D01*
X200088400Y-125935674D01*
X200094400Y-125930674D01*
X200101400Y-125926674D01*
X200108400Y-125922674D01*
X200115400Y-125919674D01*
X200122400Y-125916674D01*
X200130400Y-125913674D01*
X200137400Y-125911674D01*
X200145400Y-125909674D01*
X200153400Y-125908674D01*
X200160400Y-125907674D01*
X200168400Y-125906674D01*
X200176400Y-125906674D01*
X200976400Y-125906674D01*
X200976400Y-126206674D01*
G37*
X196042400Y-125907674D02*
X196049400Y-125908674D01*
X196057400Y-125909674D01*
X196065400Y-125911674D01*
X196072400Y-125913674D01*
X196080400Y-125916674D01*
X196087400Y-125919674D01*
X196094400Y-125922674D01*
X196101400Y-125926674D01*
X196108400Y-125930674D01*
X196114400Y-125935674D01*
X196120400Y-125939674D01*
X196126400Y-125945674D01*
X196132400Y-125950674D01*
X196137400Y-125956674D01*
X196143400Y-125962674D01*
X196147400Y-125968674D01*
X196152400Y-125974674D01*
X196156400Y-125981674D01*
X196160400Y-125988674D01*
X196163400Y-125995674D01*
X196166400Y-126002674D01*
X196169400Y-126010674D01*
X196171400Y-126017674D01*
X196173400Y-126025674D01*
X196174400Y-126033674D01*
X196175400Y-126040674D01*
X196176400Y-126048674D01*
X196176400Y-126056674D01*
X196176400Y-126064674D01*
X196175400Y-126072674D01*
X196174400Y-126079674D01*
X196173400Y-126087674D01*
X196171400Y-126095674D01*
X196169400Y-126102674D01*
X196166400Y-126110674D01*
X196163400Y-126117674D01*
X196160400Y-126124674D01*
X196156400Y-126131674D01*
X196152400Y-126138674D01*
X196147400Y-126144674D01*
X196143400Y-126150674D01*
X196137400Y-126156674D01*
X196132400Y-126162674D01*
X196126400Y-126167674D01*
X196120400Y-126173674D01*
X196114400Y-126177674D01*
X196108400Y-126182674D01*
X196101400Y-126186674D01*
X196094400Y-126190674D01*
X196087400Y-126193674D01*
X196080400Y-126196674D01*
X196072400Y-126199674D01*
X196065400Y-126201674D01*
X196057400Y-126203674D01*
X196049400Y-126204674D01*
X196042400Y-126205674D01*
X196034400Y-126206674D01*
X196026400Y-126206674D01*
X195226400Y-126206674D01*
X195226400Y-125906674D01*
X196026400Y-125906674D01*
X196034400Y-125906674D01*
X196042400Y-125907674D01*
G36*
X196042400Y-125907674D02*
G01*
X196049400Y-125908674D01*
X196057400Y-125909674D01*
X196065400Y-125911674D01*
X196072400Y-125913674D01*
X196080400Y-125916674D01*
X196087400Y-125919674D01*
X196094400Y-125922674D01*
X196101400Y-125926674D01*
X196108400Y-125930674D01*
X196114400Y-125935674D01*
X196120400Y-125939674D01*
X196126400Y-125945674D01*
X196132400Y-125950674D01*
X196137400Y-125956674D01*
X196143400Y-125962674D01*
X196147400Y-125968674D01*
X196152400Y-125974674D01*
X196156400Y-125981674D01*
X196160400Y-125988674D01*
X196163400Y-125995674D01*
X196166400Y-126002674D01*
X196169400Y-126010674D01*
X196171400Y-126017674D01*
X196173400Y-126025674D01*
X196174400Y-126033674D01*
X196175400Y-126040674D01*
X196176400Y-126048674D01*
X196176400Y-126056674D01*
X196176400Y-126064674D01*
X196175400Y-126072674D01*
X196174400Y-126079674D01*
X196173400Y-126087674D01*
X196171400Y-126095674D01*
X196169400Y-126102674D01*
X196166400Y-126110674D01*
X196163400Y-126117674D01*
X196160400Y-126124674D01*
X196156400Y-126131674D01*
X196152400Y-126138674D01*
X196147400Y-126144674D01*
X196143400Y-126150674D01*
X196137400Y-126156674D01*
X196132400Y-126162674D01*
X196126400Y-126167674D01*
X196120400Y-126173674D01*
X196114400Y-126177674D01*
X196108400Y-126182674D01*
X196101400Y-126186674D01*
X196094400Y-126190674D01*
X196087400Y-126193674D01*
X196080400Y-126196674D01*
X196072400Y-126199674D01*
X196065400Y-126201674D01*
X196057400Y-126203674D01*
X196049400Y-126204674D01*
X196042400Y-126205674D01*
X196034400Y-126206674D01*
X196026400Y-126206674D01*
X195226400Y-126206674D01*
X195226400Y-125906674D01*
X196026400Y-125906674D01*
X196034400Y-125906674D01*
X196042400Y-125907674D01*
G37*
X196751400Y-125481674D02*
X196751400Y-125489674D01*
X196750400Y-125497674D01*
X196749400Y-125504674D01*
X196748400Y-125512674D01*
X196746400Y-125520674D01*
X196744400Y-125527674D01*
X196741400Y-125535674D01*
X196738400Y-125542674D01*
X196735400Y-125549674D01*
X196731400Y-125556674D01*
X196727400Y-125563674D01*
X196722400Y-125569674D01*
X196718400Y-125575674D01*
X196712400Y-125581674D01*
X196707400Y-125587674D01*
X196701400Y-125592674D01*
X196695400Y-125598674D01*
X196689400Y-125602674D01*
X196683400Y-125607674D01*
X196676400Y-125611674D01*
X196669400Y-125615674D01*
X196662400Y-125618674D01*
X196655400Y-125621674D01*
X196647400Y-125624674D01*
X196640400Y-125626674D01*
X196632400Y-125628674D01*
X196624400Y-125629674D01*
X196617400Y-125630674D01*
X196609400Y-125631674D01*
X196601400Y-125631674D01*
X196593400Y-125631674D01*
X196585400Y-125630674D01*
X196578400Y-125629674D01*
X196570400Y-125628674D01*
X196562400Y-125626674D01*
X196555400Y-125624674D01*
X196547400Y-125621674D01*
X196540400Y-125618674D01*
X196533400Y-125615674D01*
X196526400Y-125611674D01*
X196519400Y-125607674D01*
X196513400Y-125602674D01*
X196507400Y-125598674D01*
X196501400Y-125592674D01*
X196495400Y-125587674D01*
X196490400Y-125581674D01*
X196484400Y-125575674D01*
X196480400Y-125569674D01*
X196475400Y-125563674D01*
X196471400Y-125556674D01*
X196467400Y-125549674D01*
X196464400Y-125542674D01*
X196461400Y-125535674D01*
X196458400Y-125527674D01*
X196456400Y-125520674D01*
X196454400Y-125512674D01*
X196453400Y-125504674D01*
X196452400Y-125497674D01*
X196451400Y-125489674D01*
X196451400Y-125481674D01*
X196451400Y-124681674D01*
X196751400Y-124681674D01*
X196751400Y-125481674D01*
G36*
X196751400Y-125481674D02*
G01*
X196751400Y-125489674D01*
X196750400Y-125497674D01*
X196749400Y-125504674D01*
X196748400Y-125512674D01*
X196746400Y-125520674D01*
X196744400Y-125527674D01*
X196741400Y-125535674D01*
X196738400Y-125542674D01*
X196735400Y-125549674D01*
X196731400Y-125556674D01*
X196727400Y-125563674D01*
X196722400Y-125569674D01*
X196718400Y-125575674D01*
X196712400Y-125581674D01*
X196707400Y-125587674D01*
X196701400Y-125592674D01*
X196695400Y-125598674D01*
X196689400Y-125602674D01*
X196683400Y-125607674D01*
X196676400Y-125611674D01*
X196669400Y-125615674D01*
X196662400Y-125618674D01*
X196655400Y-125621674D01*
X196647400Y-125624674D01*
X196640400Y-125626674D01*
X196632400Y-125628674D01*
X196624400Y-125629674D01*
X196617400Y-125630674D01*
X196609400Y-125631674D01*
X196601400Y-125631674D01*
X196593400Y-125631674D01*
X196585400Y-125630674D01*
X196578400Y-125629674D01*
X196570400Y-125628674D01*
X196562400Y-125626674D01*
X196555400Y-125624674D01*
X196547400Y-125621674D01*
X196540400Y-125618674D01*
X196533400Y-125615674D01*
X196526400Y-125611674D01*
X196519400Y-125607674D01*
X196513400Y-125602674D01*
X196507400Y-125598674D01*
X196501400Y-125592674D01*
X196495400Y-125587674D01*
X196490400Y-125581674D01*
X196484400Y-125575674D01*
X196480400Y-125569674D01*
X196475400Y-125563674D01*
X196471400Y-125556674D01*
X196467400Y-125549674D01*
X196464400Y-125542674D01*
X196461400Y-125535674D01*
X196458400Y-125527674D01*
X196456400Y-125520674D01*
X196454400Y-125512674D01*
X196453400Y-125504674D01*
X196452400Y-125497674D01*
X196451400Y-125489674D01*
X196451400Y-125481674D01*
X196451400Y-124681674D01*
X196751400Y-124681674D01*
X196751400Y-125481674D01*
G37*
X197251400Y-125481674D02*
X197251400Y-125489674D01*
X197250400Y-125497674D01*
X197249400Y-125504674D01*
X197248400Y-125512674D01*
X197246400Y-125520674D01*
X197244400Y-125527674D01*
X197241400Y-125535674D01*
X197238400Y-125542674D01*
X197235400Y-125549674D01*
X197231400Y-125556674D01*
X197227400Y-125563674D01*
X197222400Y-125569674D01*
X197218400Y-125575674D01*
X197212400Y-125581674D01*
X197207400Y-125587674D01*
X197201400Y-125592674D01*
X197195400Y-125598674D01*
X197189400Y-125602674D01*
X197183400Y-125607674D01*
X197176400Y-125611674D01*
X197169400Y-125615674D01*
X197162400Y-125618674D01*
X197155400Y-125621674D01*
X197147400Y-125624674D01*
X197140400Y-125626674D01*
X197132400Y-125628674D01*
X197124400Y-125629674D01*
X197117400Y-125630674D01*
X197109400Y-125631674D01*
X197101400Y-125631674D01*
X197093400Y-125631674D01*
X197085400Y-125630674D01*
X197078400Y-125629674D01*
X197070400Y-125628674D01*
X197062400Y-125626674D01*
X197055400Y-125624674D01*
X197047400Y-125621674D01*
X197040400Y-125618674D01*
X197033400Y-125615674D01*
X197026400Y-125611674D01*
X197019400Y-125607674D01*
X197013400Y-125602674D01*
X197007400Y-125598674D01*
X197001400Y-125592674D01*
X196995400Y-125587674D01*
X196990400Y-125581674D01*
X196984400Y-125575674D01*
X196980400Y-125569674D01*
X196975400Y-125563674D01*
X196971400Y-125556674D01*
X196967400Y-125549674D01*
X196964400Y-125542674D01*
X196961400Y-125535674D01*
X196958400Y-125527674D01*
X196956400Y-125520674D01*
X196954400Y-125512674D01*
X196953400Y-125504674D01*
X196952400Y-125497674D01*
X196951400Y-125489674D01*
X196951400Y-125481674D01*
X196951400Y-124681674D01*
X197251400Y-124681674D01*
X197251400Y-125481674D01*
G36*
X197251400Y-125481674D02*
G01*
X197251400Y-125489674D01*
X197250400Y-125497674D01*
X197249400Y-125504674D01*
X197248400Y-125512674D01*
X197246400Y-125520674D01*
X197244400Y-125527674D01*
X197241400Y-125535674D01*
X197238400Y-125542674D01*
X197235400Y-125549674D01*
X197231400Y-125556674D01*
X197227400Y-125563674D01*
X197222400Y-125569674D01*
X197218400Y-125575674D01*
X197212400Y-125581674D01*
X197207400Y-125587674D01*
X197201400Y-125592674D01*
X197195400Y-125598674D01*
X197189400Y-125602674D01*
X197183400Y-125607674D01*
X197176400Y-125611674D01*
X197169400Y-125615674D01*
X197162400Y-125618674D01*
X197155400Y-125621674D01*
X197147400Y-125624674D01*
X197140400Y-125626674D01*
X197132400Y-125628674D01*
X197124400Y-125629674D01*
X197117400Y-125630674D01*
X197109400Y-125631674D01*
X197101400Y-125631674D01*
X197093400Y-125631674D01*
X197085400Y-125630674D01*
X197078400Y-125629674D01*
X197070400Y-125628674D01*
X197062400Y-125626674D01*
X197055400Y-125624674D01*
X197047400Y-125621674D01*
X197040400Y-125618674D01*
X197033400Y-125615674D01*
X197026400Y-125611674D01*
X197019400Y-125607674D01*
X197013400Y-125602674D01*
X197007400Y-125598674D01*
X197001400Y-125592674D01*
X196995400Y-125587674D01*
X196990400Y-125581674D01*
X196984400Y-125575674D01*
X196980400Y-125569674D01*
X196975400Y-125563674D01*
X196971400Y-125556674D01*
X196967400Y-125549674D01*
X196964400Y-125542674D01*
X196961400Y-125535674D01*
X196958400Y-125527674D01*
X196956400Y-125520674D01*
X196954400Y-125512674D01*
X196953400Y-125504674D01*
X196952400Y-125497674D01*
X196951400Y-125489674D01*
X196951400Y-125481674D01*
X196951400Y-124681674D01*
X197251400Y-124681674D01*
X197251400Y-125481674D01*
G37*
X197751400Y-125481674D02*
X197751400Y-125489674D01*
X197750400Y-125497674D01*
X197749400Y-125504674D01*
X197748400Y-125512674D01*
X197746400Y-125520674D01*
X197744400Y-125527674D01*
X197741400Y-125535674D01*
X197738400Y-125542674D01*
X197735400Y-125549674D01*
X197731400Y-125556674D01*
X197727400Y-125563674D01*
X197722400Y-125569674D01*
X197718400Y-125575674D01*
X197712400Y-125581674D01*
X197707400Y-125587674D01*
X197701400Y-125592674D01*
X197695400Y-125598674D01*
X197689400Y-125602674D01*
X197683400Y-125607674D01*
X197676400Y-125611674D01*
X197669400Y-125615674D01*
X197662400Y-125618674D01*
X197655400Y-125621674D01*
X197647400Y-125624674D01*
X197640400Y-125626674D01*
X197632400Y-125628674D01*
X197624400Y-125629674D01*
X197617400Y-125630674D01*
X197609400Y-125631674D01*
X197601400Y-125631674D01*
X197593400Y-125631674D01*
X197585400Y-125630674D01*
X197578400Y-125629674D01*
X197570400Y-125628674D01*
X197562400Y-125626674D01*
X197555400Y-125624674D01*
X197547400Y-125621674D01*
X197540400Y-125618674D01*
X197533400Y-125615674D01*
X197526400Y-125611674D01*
X197519400Y-125607674D01*
X197513400Y-125602674D01*
X197507400Y-125598674D01*
X197501400Y-125592674D01*
X197495400Y-125587674D01*
X197490400Y-125581674D01*
X197484400Y-125575674D01*
X197480400Y-125569674D01*
X197475400Y-125563674D01*
X197471400Y-125556674D01*
X197467400Y-125549674D01*
X197464400Y-125542674D01*
X197461400Y-125535674D01*
X197458400Y-125527674D01*
X197456400Y-125520674D01*
X197454400Y-125512674D01*
X197453400Y-125504674D01*
X197452400Y-125497674D01*
X197451400Y-125489674D01*
X197451400Y-125481674D01*
X197451400Y-124681674D01*
X197751400Y-124681674D01*
X197751400Y-125481674D01*
G36*
X197751400Y-125481674D02*
G01*
X197751400Y-125489674D01*
X197750400Y-125497674D01*
X197749400Y-125504674D01*
X197748400Y-125512674D01*
X197746400Y-125520674D01*
X197744400Y-125527674D01*
X197741400Y-125535674D01*
X197738400Y-125542674D01*
X197735400Y-125549674D01*
X197731400Y-125556674D01*
X197727400Y-125563674D01*
X197722400Y-125569674D01*
X197718400Y-125575674D01*
X197712400Y-125581674D01*
X197707400Y-125587674D01*
X197701400Y-125592674D01*
X197695400Y-125598674D01*
X197689400Y-125602674D01*
X197683400Y-125607674D01*
X197676400Y-125611674D01*
X197669400Y-125615674D01*
X197662400Y-125618674D01*
X197655400Y-125621674D01*
X197647400Y-125624674D01*
X197640400Y-125626674D01*
X197632400Y-125628674D01*
X197624400Y-125629674D01*
X197617400Y-125630674D01*
X197609400Y-125631674D01*
X197601400Y-125631674D01*
X197593400Y-125631674D01*
X197585400Y-125630674D01*
X197578400Y-125629674D01*
X197570400Y-125628674D01*
X197562400Y-125626674D01*
X197555400Y-125624674D01*
X197547400Y-125621674D01*
X197540400Y-125618674D01*
X197533400Y-125615674D01*
X197526400Y-125611674D01*
X197519400Y-125607674D01*
X197513400Y-125602674D01*
X197507400Y-125598674D01*
X197501400Y-125592674D01*
X197495400Y-125587674D01*
X197490400Y-125581674D01*
X197484400Y-125575674D01*
X197480400Y-125569674D01*
X197475400Y-125563674D01*
X197471400Y-125556674D01*
X197467400Y-125549674D01*
X197464400Y-125542674D01*
X197461400Y-125535674D01*
X197458400Y-125527674D01*
X197456400Y-125520674D01*
X197454400Y-125512674D01*
X197453400Y-125504674D01*
X197452400Y-125497674D01*
X197451400Y-125489674D01*
X197451400Y-125481674D01*
X197451400Y-124681674D01*
X197751400Y-124681674D01*
X197751400Y-125481674D01*
G37*
X198251400Y-125481674D02*
X198251400Y-125489674D01*
X198250400Y-125497674D01*
X198249400Y-125504674D01*
X198248400Y-125512674D01*
X198246400Y-125520674D01*
X198244400Y-125527674D01*
X198241400Y-125535674D01*
X198238400Y-125542674D01*
X198235400Y-125549674D01*
X198231400Y-125556674D01*
X198227400Y-125563674D01*
X198222400Y-125569674D01*
X198218400Y-125575674D01*
X198212400Y-125581674D01*
X198207400Y-125587674D01*
X198201400Y-125592674D01*
X198195400Y-125598674D01*
X198189400Y-125602674D01*
X198183400Y-125607674D01*
X198176400Y-125611674D01*
X198169400Y-125615674D01*
X198162400Y-125618674D01*
X198155400Y-125621674D01*
X198147400Y-125624674D01*
X198140400Y-125626674D01*
X198132400Y-125628674D01*
X198124400Y-125629674D01*
X198117400Y-125630674D01*
X198109400Y-125631674D01*
X198101400Y-125631674D01*
X198093400Y-125631674D01*
X198085400Y-125630674D01*
X198078400Y-125629674D01*
X198070400Y-125628674D01*
X198062400Y-125626674D01*
X198055400Y-125624674D01*
X198047400Y-125621674D01*
X198040400Y-125618674D01*
X198033400Y-125615674D01*
X198026400Y-125611674D01*
X198019400Y-125607674D01*
X198013400Y-125602674D01*
X198007400Y-125598674D01*
X198001400Y-125592674D01*
X197995400Y-125587674D01*
X197990400Y-125581674D01*
X197984400Y-125575674D01*
X197980400Y-125569674D01*
X197975400Y-125563674D01*
X197971400Y-125556674D01*
X197967400Y-125549674D01*
X197964400Y-125542674D01*
X197961400Y-125535674D01*
X197958400Y-125527674D01*
X197956400Y-125520674D01*
X197954400Y-125512674D01*
X197953400Y-125504674D01*
X197952400Y-125497674D01*
X197951400Y-125489674D01*
X197951400Y-125481674D01*
X197951400Y-124681674D01*
X198251400Y-124681674D01*
X198251400Y-125481674D01*
G36*
X198251400Y-125481674D02*
G01*
X198251400Y-125489674D01*
X198250400Y-125497674D01*
X198249400Y-125504674D01*
X198248400Y-125512674D01*
X198246400Y-125520674D01*
X198244400Y-125527674D01*
X198241400Y-125535674D01*
X198238400Y-125542674D01*
X198235400Y-125549674D01*
X198231400Y-125556674D01*
X198227400Y-125563674D01*
X198222400Y-125569674D01*
X198218400Y-125575674D01*
X198212400Y-125581674D01*
X198207400Y-125587674D01*
X198201400Y-125592674D01*
X198195400Y-125598674D01*
X198189400Y-125602674D01*
X198183400Y-125607674D01*
X198176400Y-125611674D01*
X198169400Y-125615674D01*
X198162400Y-125618674D01*
X198155400Y-125621674D01*
X198147400Y-125624674D01*
X198140400Y-125626674D01*
X198132400Y-125628674D01*
X198124400Y-125629674D01*
X198117400Y-125630674D01*
X198109400Y-125631674D01*
X198101400Y-125631674D01*
X198093400Y-125631674D01*
X198085400Y-125630674D01*
X198078400Y-125629674D01*
X198070400Y-125628674D01*
X198062400Y-125626674D01*
X198055400Y-125624674D01*
X198047400Y-125621674D01*
X198040400Y-125618674D01*
X198033400Y-125615674D01*
X198026400Y-125611674D01*
X198019400Y-125607674D01*
X198013400Y-125602674D01*
X198007400Y-125598674D01*
X198001400Y-125592674D01*
X197995400Y-125587674D01*
X197990400Y-125581674D01*
X197984400Y-125575674D01*
X197980400Y-125569674D01*
X197975400Y-125563674D01*
X197971400Y-125556674D01*
X197967400Y-125549674D01*
X197964400Y-125542674D01*
X197961400Y-125535674D01*
X197958400Y-125527674D01*
X197956400Y-125520674D01*
X197954400Y-125512674D01*
X197953400Y-125504674D01*
X197952400Y-125497674D01*
X197951400Y-125489674D01*
X197951400Y-125481674D01*
X197951400Y-124681674D01*
X198251400Y-124681674D01*
X198251400Y-125481674D01*
G37*
X198751400Y-125481674D02*
X198751400Y-125489674D01*
X198750400Y-125497674D01*
X198749400Y-125504674D01*
X198748400Y-125512674D01*
X198746400Y-125520674D01*
X198744400Y-125527674D01*
X198741400Y-125535674D01*
X198738400Y-125542674D01*
X198735400Y-125549674D01*
X198731400Y-125556674D01*
X198727400Y-125563674D01*
X198722400Y-125569674D01*
X198718400Y-125575674D01*
X198712400Y-125581674D01*
X198707400Y-125587674D01*
X198701400Y-125592674D01*
X198695400Y-125598674D01*
X198689400Y-125602674D01*
X198683400Y-125607674D01*
X198676400Y-125611674D01*
X198669400Y-125615674D01*
X198662400Y-125618674D01*
X198655400Y-125621674D01*
X198647400Y-125624674D01*
X198640400Y-125626674D01*
X198632400Y-125628674D01*
X198624400Y-125629674D01*
X198617400Y-125630674D01*
X198609400Y-125631674D01*
X198601400Y-125631674D01*
X198593400Y-125631674D01*
X198585400Y-125630674D01*
X198578400Y-125629674D01*
X198570400Y-125628674D01*
X198562400Y-125626674D01*
X198555400Y-125624674D01*
X198547400Y-125621674D01*
X198540400Y-125618674D01*
X198533400Y-125615674D01*
X198526400Y-125611674D01*
X198519400Y-125607674D01*
X198513400Y-125602674D01*
X198507400Y-125598674D01*
X198501400Y-125592674D01*
X198495400Y-125587674D01*
X198490400Y-125581674D01*
X198484400Y-125575674D01*
X198480400Y-125569674D01*
X198475400Y-125563674D01*
X198471400Y-125556674D01*
X198467400Y-125549674D01*
X198464400Y-125542674D01*
X198461400Y-125535674D01*
X198458400Y-125527674D01*
X198456400Y-125520674D01*
X198454400Y-125512674D01*
X198453400Y-125504674D01*
X198452400Y-125497674D01*
X198451400Y-125489674D01*
X198451400Y-125481674D01*
X198451400Y-124681674D01*
X198751400Y-124681674D01*
X198751400Y-125481674D01*
G36*
X198751400Y-125481674D02*
G01*
X198751400Y-125489674D01*
X198750400Y-125497674D01*
X198749400Y-125504674D01*
X198748400Y-125512674D01*
X198746400Y-125520674D01*
X198744400Y-125527674D01*
X198741400Y-125535674D01*
X198738400Y-125542674D01*
X198735400Y-125549674D01*
X198731400Y-125556674D01*
X198727400Y-125563674D01*
X198722400Y-125569674D01*
X198718400Y-125575674D01*
X198712400Y-125581674D01*
X198707400Y-125587674D01*
X198701400Y-125592674D01*
X198695400Y-125598674D01*
X198689400Y-125602674D01*
X198683400Y-125607674D01*
X198676400Y-125611674D01*
X198669400Y-125615674D01*
X198662400Y-125618674D01*
X198655400Y-125621674D01*
X198647400Y-125624674D01*
X198640400Y-125626674D01*
X198632400Y-125628674D01*
X198624400Y-125629674D01*
X198617400Y-125630674D01*
X198609400Y-125631674D01*
X198601400Y-125631674D01*
X198593400Y-125631674D01*
X198585400Y-125630674D01*
X198578400Y-125629674D01*
X198570400Y-125628674D01*
X198562400Y-125626674D01*
X198555400Y-125624674D01*
X198547400Y-125621674D01*
X198540400Y-125618674D01*
X198533400Y-125615674D01*
X198526400Y-125611674D01*
X198519400Y-125607674D01*
X198513400Y-125602674D01*
X198507400Y-125598674D01*
X198501400Y-125592674D01*
X198495400Y-125587674D01*
X198490400Y-125581674D01*
X198484400Y-125575674D01*
X198480400Y-125569674D01*
X198475400Y-125563674D01*
X198471400Y-125556674D01*
X198467400Y-125549674D01*
X198464400Y-125542674D01*
X198461400Y-125535674D01*
X198458400Y-125527674D01*
X198456400Y-125520674D01*
X198454400Y-125512674D01*
X198453400Y-125504674D01*
X198452400Y-125497674D01*
X198451400Y-125489674D01*
X198451400Y-125481674D01*
X198451400Y-124681674D01*
X198751400Y-124681674D01*
X198751400Y-125481674D01*
G37*
X199251400Y-125481674D02*
X199251400Y-125489674D01*
X199250400Y-125497674D01*
X199249400Y-125504674D01*
X199248400Y-125512674D01*
X199246400Y-125520674D01*
X199244400Y-125527674D01*
X199241400Y-125535674D01*
X199238400Y-125542674D01*
X199235400Y-125549674D01*
X199231400Y-125556674D01*
X199227400Y-125563674D01*
X199222400Y-125569674D01*
X199218400Y-125575674D01*
X199212400Y-125581674D01*
X199207400Y-125587674D01*
X199201400Y-125592674D01*
X199195400Y-125598674D01*
X199189400Y-125602674D01*
X199183400Y-125607674D01*
X199176400Y-125611674D01*
X199169400Y-125615674D01*
X199162400Y-125618674D01*
X199155400Y-125621674D01*
X199147400Y-125624674D01*
X199140400Y-125626674D01*
X199132400Y-125628674D01*
X199124400Y-125629674D01*
X199117400Y-125630674D01*
X199109400Y-125631674D01*
X199101400Y-125631674D01*
X199093400Y-125631674D01*
X199085400Y-125630674D01*
X199078400Y-125629674D01*
X199070400Y-125628674D01*
X199062400Y-125626674D01*
X199055400Y-125624674D01*
X199047400Y-125621674D01*
X199040400Y-125618674D01*
X199033400Y-125615674D01*
X199026400Y-125611674D01*
X199019400Y-125607674D01*
X199013400Y-125602674D01*
X199007400Y-125598674D01*
X199001400Y-125592674D01*
X198995400Y-125587674D01*
X198990400Y-125581674D01*
X198984400Y-125575674D01*
X198980400Y-125569674D01*
X198975400Y-125563674D01*
X198971400Y-125556674D01*
X198967400Y-125549674D01*
X198964400Y-125542674D01*
X198961400Y-125535674D01*
X198958400Y-125527674D01*
X198956400Y-125520674D01*
X198954400Y-125512674D01*
X198953400Y-125504674D01*
X198952400Y-125497674D01*
X198951400Y-125489674D01*
X198951400Y-125481674D01*
X198951400Y-124681674D01*
X199251400Y-124681674D01*
X199251400Y-125481674D01*
G36*
X199251400Y-125481674D02*
G01*
X199251400Y-125489674D01*
X199250400Y-125497674D01*
X199249400Y-125504674D01*
X199248400Y-125512674D01*
X199246400Y-125520674D01*
X199244400Y-125527674D01*
X199241400Y-125535674D01*
X199238400Y-125542674D01*
X199235400Y-125549674D01*
X199231400Y-125556674D01*
X199227400Y-125563674D01*
X199222400Y-125569674D01*
X199218400Y-125575674D01*
X199212400Y-125581674D01*
X199207400Y-125587674D01*
X199201400Y-125592674D01*
X199195400Y-125598674D01*
X199189400Y-125602674D01*
X199183400Y-125607674D01*
X199176400Y-125611674D01*
X199169400Y-125615674D01*
X199162400Y-125618674D01*
X199155400Y-125621674D01*
X199147400Y-125624674D01*
X199140400Y-125626674D01*
X199132400Y-125628674D01*
X199124400Y-125629674D01*
X199117400Y-125630674D01*
X199109400Y-125631674D01*
X199101400Y-125631674D01*
X199093400Y-125631674D01*
X199085400Y-125630674D01*
X199078400Y-125629674D01*
X199070400Y-125628674D01*
X199062400Y-125626674D01*
X199055400Y-125624674D01*
X199047400Y-125621674D01*
X199040400Y-125618674D01*
X199033400Y-125615674D01*
X199026400Y-125611674D01*
X199019400Y-125607674D01*
X199013400Y-125602674D01*
X199007400Y-125598674D01*
X199001400Y-125592674D01*
X198995400Y-125587674D01*
X198990400Y-125581674D01*
X198984400Y-125575674D01*
X198980400Y-125569674D01*
X198975400Y-125563674D01*
X198971400Y-125556674D01*
X198967400Y-125549674D01*
X198964400Y-125542674D01*
X198961400Y-125535674D01*
X198958400Y-125527674D01*
X198956400Y-125520674D01*
X198954400Y-125512674D01*
X198953400Y-125504674D01*
X198952400Y-125497674D01*
X198951400Y-125489674D01*
X198951400Y-125481674D01*
X198951400Y-124681674D01*
X199251400Y-124681674D01*
X199251400Y-125481674D01*
G37*
X199751400Y-125481674D02*
X199751400Y-125489674D01*
X199750400Y-125497674D01*
X199749400Y-125504674D01*
X199748400Y-125512674D01*
X199746400Y-125520674D01*
X199744400Y-125527674D01*
X199741400Y-125535674D01*
X199738400Y-125542674D01*
X199735400Y-125549674D01*
X199731400Y-125556674D01*
X199727400Y-125563674D01*
X199722400Y-125569674D01*
X199718400Y-125575674D01*
X199712400Y-125581674D01*
X199707400Y-125587674D01*
X199701400Y-125592674D01*
X199695400Y-125598674D01*
X199689400Y-125602674D01*
X199683400Y-125607674D01*
X199676400Y-125611674D01*
X199669400Y-125615674D01*
X199662400Y-125618674D01*
X199655400Y-125621674D01*
X199647400Y-125624674D01*
X199640400Y-125626674D01*
X199632400Y-125628674D01*
X199624400Y-125629674D01*
X199617400Y-125630674D01*
X199609400Y-125631674D01*
X199601400Y-125631674D01*
X199593400Y-125631674D01*
X199585400Y-125630674D01*
X199578400Y-125629674D01*
X199570400Y-125628674D01*
X199562400Y-125626674D01*
X199555400Y-125624674D01*
X199547400Y-125621674D01*
X199540400Y-125618674D01*
X199533400Y-125615674D01*
X199526400Y-125611674D01*
X199519400Y-125607674D01*
X199513400Y-125602674D01*
X199507400Y-125598674D01*
X199501400Y-125592674D01*
X199495400Y-125587674D01*
X199490400Y-125581674D01*
X199484400Y-125575674D01*
X199480400Y-125569674D01*
X199475400Y-125563674D01*
X199471400Y-125556674D01*
X199467400Y-125549674D01*
X199464400Y-125542674D01*
X199461400Y-125535674D01*
X199458400Y-125527674D01*
X199456400Y-125520674D01*
X199454400Y-125512674D01*
X199453400Y-125504674D01*
X199452400Y-125497674D01*
X199451400Y-125489674D01*
X199451400Y-125481674D01*
X199451400Y-124681674D01*
X199751400Y-124681674D01*
X199751400Y-125481674D01*
G36*
X199751400Y-125481674D02*
G01*
X199751400Y-125489674D01*
X199750400Y-125497674D01*
X199749400Y-125504674D01*
X199748400Y-125512674D01*
X199746400Y-125520674D01*
X199744400Y-125527674D01*
X199741400Y-125535674D01*
X199738400Y-125542674D01*
X199735400Y-125549674D01*
X199731400Y-125556674D01*
X199727400Y-125563674D01*
X199722400Y-125569674D01*
X199718400Y-125575674D01*
X199712400Y-125581674D01*
X199707400Y-125587674D01*
X199701400Y-125592674D01*
X199695400Y-125598674D01*
X199689400Y-125602674D01*
X199683400Y-125607674D01*
X199676400Y-125611674D01*
X199669400Y-125615674D01*
X199662400Y-125618674D01*
X199655400Y-125621674D01*
X199647400Y-125624674D01*
X199640400Y-125626674D01*
X199632400Y-125628674D01*
X199624400Y-125629674D01*
X199617400Y-125630674D01*
X199609400Y-125631674D01*
X199601400Y-125631674D01*
X199593400Y-125631674D01*
X199585400Y-125630674D01*
X199578400Y-125629674D01*
X199570400Y-125628674D01*
X199562400Y-125626674D01*
X199555400Y-125624674D01*
X199547400Y-125621674D01*
X199540400Y-125618674D01*
X199533400Y-125615674D01*
X199526400Y-125611674D01*
X199519400Y-125607674D01*
X199513400Y-125602674D01*
X199507400Y-125598674D01*
X199501400Y-125592674D01*
X199495400Y-125587674D01*
X199490400Y-125581674D01*
X199484400Y-125575674D01*
X199480400Y-125569674D01*
X199475400Y-125563674D01*
X199471400Y-125556674D01*
X199467400Y-125549674D01*
X199464400Y-125542674D01*
X199461400Y-125535674D01*
X199458400Y-125527674D01*
X199456400Y-125520674D01*
X199454400Y-125512674D01*
X199453400Y-125504674D01*
X199452400Y-125497674D01*
X199451400Y-125489674D01*
X199451400Y-125481674D01*
X199451400Y-124681674D01*
X199751400Y-124681674D01*
X199751400Y-125481674D01*
G37*
%TO.C,IC1*%
X203331324Y-140081361D02*
X201931324Y-140081361D01*
X201931324Y-139281361D01*
X203331324Y-139281361D01*
X203331324Y-140081361D01*
G36*
X203331324Y-140081361D02*
G01*
X201931324Y-140081361D01*
X201931324Y-139281361D01*
X203331324Y-139281361D01*
X203331324Y-140081361D01*
G37*
X206811324Y-142081361D02*
X204611324Y-142081361D01*
X204611324Y-140281361D01*
X206811324Y-140281361D01*
X206811324Y-142081361D01*
G36*
X206811324Y-142081361D02*
G01*
X204611324Y-142081361D01*
X204611324Y-140281361D01*
X206811324Y-140281361D01*
X206811324Y-142081361D01*
G37*
X203331324Y-141581361D02*
X201931324Y-141581361D01*
X201931324Y-140781361D01*
X203331324Y-140781361D01*
X203331324Y-141581361D01*
G36*
X203331324Y-141581361D02*
G01*
X201931324Y-141581361D01*
X201931324Y-140781361D01*
X203331324Y-140781361D01*
X203331324Y-141581361D01*
G37*
X203331324Y-143081361D02*
X201931324Y-143081361D01*
X201931324Y-142281361D01*
X203331324Y-142281361D01*
X203331324Y-143081361D01*
G36*
X203331324Y-143081361D02*
G01*
X201931324Y-143081361D01*
X201931324Y-142281361D01*
X203331324Y-142281361D01*
X203331324Y-143081361D01*
G37*
%TO.C,D4*%
X265077000Y-147661000D02*
X264727000Y-147661000D01*
X264727000Y-146811000D01*
X265077000Y-146811000D01*
X265077000Y-147661000D01*
G36*
X265077000Y-147661000D02*
G01*
X264727000Y-147661000D01*
X264727000Y-146811000D01*
X265077000Y-146811000D01*
X265077000Y-147661000D01*
G37*
X264427000Y-147661000D02*
X264077000Y-147661000D01*
X264077000Y-146811000D01*
X264427000Y-146811000D01*
X264427000Y-147661000D01*
G36*
X264427000Y-147661000D02*
G01*
X264077000Y-147661000D01*
X264077000Y-146811000D01*
X264427000Y-146811000D01*
X264427000Y-147661000D01*
G37*
X263777000Y-147661000D02*
X263427000Y-147661000D01*
X263427000Y-146811000D01*
X263777000Y-146811000D01*
X263777000Y-147661000D01*
G36*
X263777000Y-147661000D02*
G01*
X263427000Y-147661000D01*
X263427000Y-146811000D01*
X263777000Y-146811000D01*
X263777000Y-147661000D01*
G37*
X265077000Y-149861000D02*
X264727000Y-149861000D01*
X264727000Y-149011000D01*
X265077000Y-149011000D01*
X265077000Y-149861000D01*
G36*
X265077000Y-149861000D02*
G01*
X264727000Y-149861000D01*
X264727000Y-149011000D01*
X265077000Y-149011000D01*
X265077000Y-149861000D01*
G37*
X264427000Y-149861000D02*
X264077000Y-149861000D01*
X264077000Y-149011000D01*
X264427000Y-149011000D01*
X264427000Y-149861000D01*
G36*
X264427000Y-149861000D02*
G01*
X264077000Y-149861000D01*
X264077000Y-149011000D01*
X264427000Y-149011000D01*
X264427000Y-149861000D01*
G37*
X263777000Y-149861000D02*
X263427000Y-149861000D01*
X263427000Y-149011000D01*
X263777000Y-149011000D01*
X263777000Y-149861000D01*
G36*
X263777000Y-149861000D02*
G01*
X263427000Y-149861000D01*
X263427000Y-149011000D01*
X263777000Y-149011000D01*
X263777000Y-149861000D01*
G37*
%TD*%
D11*
%TO.C,C22*%
X201808000Y-135128000D03*
X203708000Y-135128000D03*
%TD*%
D12*
%TO.C,C46*%
X229708000Y-159129998D03*
X229708000Y-157579998D03*
%TD*%
D13*
%TO.C,C44*%
X222624000Y-160050000D03*
X224174000Y-160050000D03*
%TD*%
%TO.C,C32*%
X232397000Y-125476000D03*
X233947000Y-125476000D03*
%TD*%
D14*
%TO.C,R26*%
X190799404Y-125794281D03*
X190799404Y-124144281D03*
%TD*%
D15*
%TO.C,C23*%
X203879212Y-132347801D03*
X202329212Y-132347801D03*
%TD*%
D16*
%TO.C,J1*%
X197668017Y-159512000D03*
X198318017Y-159512000D03*
X198968017Y-159512000D03*
X199618017Y-159512000D03*
X200268017Y-159512000D03*
D17*
X196018017Y-160712000D03*
D18*
X196118017Y-159412000D03*
D19*
X196238017Y-161462000D03*
D20*
X198008017Y-162662000D03*
X199928017Y-162662000D03*
D19*
X201718017Y-161462000D03*
D18*
X201868017Y-159392000D03*
D17*
X201968017Y-160712000D03*
%TD*%
D21*
%TO.C,D11*%
X210523973Y-141224000D03*
X212398973Y-141224000D03*
%TD*%
D22*
%TO.C,R17*%
X195788970Y-132995927D03*
X197438970Y-132995927D03*
%TD*%
D23*
%TO.C,Q1*%
X184404000Y-123952000D03*
X184404000Y-125852000D03*
X186279000Y-124902000D03*
%TD*%
D22*
%TO.C,R22*%
X195825224Y-134663654D03*
X197475224Y-134663654D03*
%TD*%
D24*
%TO.C,R4*%
X251693429Y-148094000D03*
X251693429Y-148594000D03*
X251693429Y-149094000D03*
X251693429Y-149594000D03*
D25*
X252853429Y-149594000D03*
X252853429Y-149094000D03*
X252853429Y-148594000D03*
X252853429Y-148094000D03*
%TD*%
D13*
%TO.C,C42*%
X226901000Y-153924000D03*
X228451000Y-153924000D03*
%TD*%
%TO.C,C38*%
X235445000Y-127000000D03*
X236995000Y-127000000D03*
%TD*%
%TO.C,C17*%
X180529197Y-152300574D03*
X182079197Y-152300574D03*
%TD*%
%TO.C,C26*%
X195821352Y-139371945D03*
X197371352Y-139371945D03*
%TD*%
D26*
%TO.C,U7*%
X247488000Y-132404000D03*
X247488000Y-133204001D03*
X247488000Y-134003999D03*
X247488000Y-134804000D03*
X249520000Y-134804000D03*
X249520000Y-134003999D03*
X249520000Y-133204001D03*
X249520000Y-132404000D03*
%TD*%
D27*
%TO.C,D9*%
X205568004Y-145827584D03*
X204248004Y-145827584D03*
%TD*%
D22*
%TO.C,R23*%
X202183457Y-129136667D03*
X203833457Y-129136667D03*
%TD*%
D28*
%TO.C,C53*%
X238498500Y-152241000D03*
X238498500Y-153791000D03*
%TD*%
D27*
%TO.C,D7*%
X208522706Y-144257929D03*
X207202706Y-144257929D03*
%TD*%
D22*
%TO.C,R24*%
X205418672Y-129118620D03*
X207068672Y-129118620D03*
%TD*%
D13*
%TO.C,C33*%
X232397000Y-127000000D03*
X233947000Y-127000000D03*
%TD*%
D29*
%TO.C,R28*%
X252377000Y-153924000D03*
X250727000Y-153924000D03*
%TD*%
D30*
%TO.C,U4*%
X231530000Y-158486999D03*
X231530000Y-159437000D03*
X231530000Y-160386998D03*
X234280000Y-160386998D03*
X234280000Y-159437000D03*
X234280000Y-158486999D03*
%TD*%
D13*
%TO.C,C21*%
X199039790Y-132999870D03*
X200589790Y-132999870D03*
%TD*%
%TO.C,C24*%
X205495824Y-133802845D03*
X207045824Y-133802845D03*
%TD*%
D28*
%TO.C,C52*%
X236466500Y-152241000D03*
X236466500Y-153791000D03*
%TD*%
D31*
%TO.C,R25*%
X192498359Y-124130468D03*
X192498359Y-125780468D03*
%TD*%
D22*
%TO.C,R27*%
X210503000Y-138976539D03*
X212153000Y-138976539D03*
%TD*%
D15*
%TO.C,C37*%
X228867000Y-129032000D03*
X227317000Y-129032000D03*
%TD*%
D26*
%TO.C,U8*%
X247488000Y-137808000D03*
X247488000Y-138608001D03*
X247488000Y-139407999D03*
X247488000Y-140208000D03*
X249520000Y-140208000D03*
X249520000Y-139407999D03*
X249520000Y-138608001D03*
X249520000Y-137808000D03*
%TD*%
D24*
%TO.C,R5*%
X251693429Y-127533014D03*
X251693429Y-128033014D03*
X251693429Y-128533014D03*
X251693429Y-129033014D03*
D25*
X252853429Y-129033014D03*
X252853429Y-128533014D03*
X252853429Y-128033014D03*
X252853429Y-127533014D03*
%TD*%
D15*
%TO.C,C34*%
X227343000Y-125476000D03*
X225793000Y-125476000D03*
%TD*%
D13*
%TO.C,C35*%
X225793000Y-127508000D03*
X227343000Y-127508000D03*
%TD*%
D15*
%TO.C,C54*%
X241659000Y-154432000D03*
X240109000Y-154432000D03*
%TD*%
D13*
%TO.C,C41*%
X225911000Y-160020000D03*
X227461000Y-160020000D03*
%TD*%
%TO.C,C47*%
X223104000Y-152400000D03*
X224654000Y-152400000D03*
%TD*%
D24*
%TO.C,R1*%
X251693429Y-138390858D03*
X251693429Y-138890858D03*
X251693429Y-139390858D03*
X251693429Y-139890858D03*
D25*
X252853429Y-139890858D03*
X252853429Y-139390858D03*
X252853429Y-138890858D03*
X252853429Y-138390858D03*
%TD*%
D13*
%TO.C,C40*%
X226901000Y-151892000D03*
X228451000Y-151892000D03*
%TD*%
D12*
%TO.C,C49*%
X237836000Y-158763000D03*
X237836000Y-157213000D03*
%TD*%
D24*
%TO.C,R3*%
X251693429Y-143280000D03*
X251693429Y-143780000D03*
X251693429Y-144280000D03*
X251693429Y-144780000D03*
D25*
X252853429Y-144780000D03*
X252853429Y-144280000D03*
X252853429Y-143780000D03*
X252853429Y-143280000D03*
%TD*%
D28*
%TO.C,C51*%
X230370500Y-152241000D03*
X230370500Y-153791000D03*
%TD*%
D26*
%TO.C,U11*%
X247488000Y-127324000D03*
X247488000Y-128124001D03*
X247488000Y-128923999D03*
X247488000Y-129724000D03*
X249520000Y-129724000D03*
X249520000Y-128923999D03*
X249520000Y-128124001D03*
X249520000Y-127324000D03*
%TD*%
D32*
%TO.C,U6*%
X232468500Y-154271000D03*
X233418500Y-154271000D03*
X234368500Y-154271000D03*
X234368500Y-151761000D03*
X232468500Y-151761000D03*
%TD*%
D15*
%TO.C,C55*%
X241659000Y-152400000D03*
X240109000Y-152400000D03*
%TD*%
D26*
%TO.C,U9*%
X247488000Y-142862986D03*
X247488000Y-143662987D03*
X247488000Y-144462985D03*
X247488000Y-145262986D03*
X249520000Y-145262986D03*
X249520000Y-144462985D03*
X249520000Y-143662987D03*
X249520000Y-142862986D03*
%TD*%
D27*
%TO.C,D8*%
X205573606Y-147391756D03*
X204253606Y-147391756D03*
%TD*%
D26*
%TO.C,U10*%
X247488000Y-147800985D03*
X247488000Y-148600986D03*
X247488000Y-149400984D03*
X247488000Y-150200985D03*
X249520000Y-150200985D03*
X249520000Y-149400984D03*
X249520000Y-148600986D03*
X249520000Y-147800985D03*
%TD*%
D13*
%TO.C,C36*%
X228841000Y-127508000D03*
X230391000Y-127508000D03*
%TD*%
D24*
%TO.C,R2*%
X251693429Y-132730311D03*
X251693429Y-133230311D03*
X251693429Y-133730311D03*
X251693429Y-134230311D03*
D25*
X252853429Y-134230311D03*
X252853429Y-133730311D03*
X252853429Y-133230311D03*
X252853429Y-132730311D03*
%TD*%
D13*
%TO.C,C20*%
X235445000Y-129032000D03*
X236995000Y-129032000D03*
%TD*%
%TO.C,C25*%
X195766473Y-137601750D03*
X197316473Y-137601750D03*
%TD*%
%TO.C,C18*%
X183762303Y-152292690D03*
X185312303Y-152292690D03*
%TD*%
D33*
%TO.C,U2*%
X180453741Y-150216374D03*
X181303741Y-150216374D03*
X182153741Y-150216374D03*
X183003741Y-150216374D03*
X183853741Y-150216374D03*
X184703741Y-150216374D03*
X185553741Y-150216374D03*
X186403741Y-150216374D03*
X187253741Y-150216374D03*
X188103741Y-150216374D03*
X188953741Y-150216374D03*
X189803741Y-150216374D03*
X190653741Y-150216374D03*
X191503741Y-150216374D03*
X192353741Y-150216374D03*
D34*
X193403741Y-149166374D03*
X193403741Y-148316374D03*
X193403741Y-147466374D03*
X193403741Y-146616374D03*
X193403741Y-145766374D03*
X193403741Y-144916374D03*
X193403741Y-144066374D03*
X193403741Y-143216374D03*
X193403741Y-142366374D03*
X193403741Y-141516374D03*
X193403741Y-140666374D03*
X193403741Y-139816374D03*
X193403741Y-138966374D03*
X193403741Y-138116374D03*
X193403741Y-137266374D03*
D33*
X192353741Y-136216374D03*
X191503741Y-136216374D03*
X190653741Y-136216374D03*
X189803741Y-136216374D03*
X188953741Y-136216374D03*
X188103741Y-136216374D03*
X187253741Y-136216374D03*
X186403741Y-136216374D03*
X185553741Y-136216374D03*
X184703741Y-136216374D03*
X183853741Y-136216374D03*
X183003741Y-136216374D03*
X182153741Y-136216374D03*
X181303741Y-136216374D03*
X180453741Y-136216374D03*
D34*
X179403741Y-137266374D03*
X179403741Y-138116374D03*
X179403741Y-138966374D03*
X179403741Y-139816374D03*
X179403741Y-140666374D03*
X179403741Y-141516374D03*
X179403741Y-142366374D03*
X179403741Y-143216374D03*
X179403741Y-144066374D03*
X179403741Y-144916374D03*
X179403741Y-145766374D03*
X179403741Y-146616374D03*
X179403741Y-147466374D03*
X179403741Y-148316374D03*
X179403741Y-149166374D03*
D35*
X184753741Y-144866374D03*
D36*
X186403741Y-144866374D03*
X188053741Y-144866374D03*
X184753741Y-143216374D03*
X186403741Y-143216374D03*
X188053741Y-143216374D03*
X184753741Y-141566374D03*
X186403741Y-141566374D03*
X188053741Y-141566374D03*
D37*
X179403741Y-150216374D03*
X193403741Y-150216374D03*
X193403741Y-136216374D03*
X179403741Y-136216374D03*
%TD*%
D38*
%TO.C,U5*%
X240137000Y-156530000D03*
X240137000Y-157480000D03*
X240137000Y-158430000D03*
X242647000Y-158430000D03*
X242647000Y-156530000D03*
%TD*%
D15*
%TO.C,C50*%
X233177500Y-156064000D03*
X231627500Y-156064000D03*
%TD*%
D13*
%TO.C,C43*%
X223104000Y-153924000D03*
X224654000Y-153924000D03*
%TD*%
D11*
%TO.C,C19*%
X231918199Y-129005850D03*
X233818199Y-129005850D03*
%TD*%
D39*
%TO.C,U1*%
X238344000Y-143708000D03*
X238344000Y-143208000D03*
X238344000Y-142708000D03*
X238344000Y-142208000D03*
X238344000Y-141708000D03*
X238344000Y-141208000D03*
X238344000Y-140708000D03*
X238344000Y-140208000D03*
X238344000Y-139708000D03*
X238344000Y-139208000D03*
X238344000Y-138708000D03*
X238344000Y-138208000D03*
X238344000Y-137708000D03*
X238344000Y-137208000D03*
X238344000Y-136708000D03*
X238344000Y-136208000D03*
D40*
X236414000Y-134278000D03*
X235914000Y-134278000D03*
X235414000Y-134278000D03*
X234914000Y-134278000D03*
X234414000Y-134278000D03*
X233914000Y-134278000D03*
X233414000Y-134278000D03*
X232914000Y-134278000D03*
X232414000Y-134278000D03*
X231914000Y-134278000D03*
X231414000Y-134278000D03*
X230914000Y-134278000D03*
X230414000Y-134278000D03*
X229914000Y-134278000D03*
X229414000Y-134278000D03*
X228914000Y-134278000D03*
D39*
X226984000Y-136208000D03*
X226984000Y-136708000D03*
X226984000Y-137208000D03*
X226984000Y-137708000D03*
X226984000Y-138208000D03*
X226984000Y-138708000D03*
X226984000Y-139208000D03*
X226984000Y-139708000D03*
X226984000Y-140208000D03*
X226984000Y-140708000D03*
X226984000Y-141208000D03*
X226984000Y-141708000D03*
X226984000Y-142208000D03*
X226984000Y-142708000D03*
X226984000Y-143208000D03*
X226984000Y-143708000D03*
D40*
X228914000Y-145638000D03*
X229414000Y-145638000D03*
X229914000Y-145638000D03*
X230414000Y-145638000D03*
X230914000Y-145638000D03*
X231414000Y-145638000D03*
X231914000Y-145638000D03*
X232414000Y-145638000D03*
X232914000Y-145638000D03*
X233414000Y-145638000D03*
X233914000Y-145638000D03*
X234414000Y-145638000D03*
X234914000Y-145638000D03*
X235414000Y-145638000D03*
X235914000Y-145638000D03*
X236414000Y-145638000D03*
%TD*%
D41*
%TO.C,D10*%
X199893741Y-142326374D03*
X196533741Y-142326374D03*
%TD*%
D42*
%TO.C,C56*%
X251044000Y-152400000D03*
X252004000Y-152400000D03*
%TD*%
D13*
%TO.C,C39*%
X225911000Y-157540000D03*
X227461000Y-157540000D03*
%TD*%
%TO.C,C48*%
X222596000Y-157480000D03*
X224146000Y-157480000D03*
%TD*%
D12*
%TO.C,C45*%
X229708000Y-162177998D03*
X229708000Y-160627998D03*
%TD*%
D23*
%TO.C,Q2*%
X188405761Y-128676374D03*
X188405761Y-130576374D03*
X190280761Y-129626374D03*
%TD*%
D13*
%TO.C,C27*%
X205509296Y-135476335D03*
X207059296Y-135476335D03*
%TD*%
M02*
