%TF.GenerationSoftware,KiCad,Pcbnew,7.0.2-0*%
%TF.CreationDate,2023-12-30T16:08:01-05:00*%
%TF.ProjectId,Monolith,4d6f6e6f-6c69-4746-982e-6b696361645f,rev?*%
%TF.SameCoordinates,Original*%
%TF.FileFunction,Copper,L2,Bot*%
%TF.FilePolarity,Positive*%
%FSLAX46Y46*%
G04 Gerber Fmt 4.6, Leading zero omitted, Abs format (unit mm)*
G04 Created by KiCad (PCBNEW 7.0.2-0) date 2023-12-30 16:08:01*
%MOMM*%
%LPD*%
G01*
G04 APERTURE LIST*
%TA.AperFunction,ComponentPad*%
%ADD10R,1.700000X1.700000*%
%TD*%
%TA.AperFunction,ComponentPad*%
%ADD11O,1.700000X1.700000*%
%TD*%
%TA.AperFunction,ComponentPad*%
%ADD12O,0.890000X1.550000*%
%TD*%
%TA.AperFunction,ComponentPad*%
%ADD13O,1.250000X0.950000*%
%TD*%
%TA.AperFunction,ViaPad*%
%ADD14C,0.800000*%
%TD*%
%TA.AperFunction,Conductor*%
%ADD15C,0.250000*%
%TD*%
G04 APERTURE END LIST*
D10*
%TO.P,J7,1,Pin_1*%
%TO.N,/DIN*%
X218948000Y-142748000D03*
D11*
%TO.P,J7,2,Pin_2*%
%TO.N,/DOUT*%
X218948000Y-145288000D03*
%TO.P,J7,3,Pin_3*%
%TO.N,+3V3*%
X218948000Y-147828000D03*
%TO.P,J7,4,Pin_4*%
%TO.N,/GPIO1*%
X218948000Y-150368000D03*
%TO.P,J7,5,Pin_5*%
%TO.N,/CS*%
X218948000Y-152908000D03*
%TO.P,J7,6,Pin_6*%
%TO.N,GND*%
X218948000Y-155448000D03*
%TO.P,J7,7,Pin_7*%
%TO.N,/DRDY*%
X218948000Y-157988000D03*
%TO.P,J7,8,Pin_8*%
%TO.N,/SCLK*%
X218948000Y-160528000D03*
%TD*%
D10*
%TO.P,J2,1,Pin_1*%
%TO.N,/AGND*%
X255616000Y-127092000D03*
D11*
%TO.P,J2,2,Pin_2*%
%TO.N,/BIAS*%
X255616000Y-129632000D03*
%TO.P,J2,3,Pin_3*%
%TO.N,/1N*%
X255616000Y-132172000D03*
%TO.P,J2,4,Pin_4*%
%TO.N,/2N*%
X255616000Y-134712000D03*
%TO.P,J2,5,Pin_5*%
%TO.N,/3N*%
X255616000Y-137252000D03*
%TO.P,J2,6,Pin_6*%
%TO.N,/4N*%
X255616000Y-139792000D03*
%TO.P,J2,7,Pin_7*%
%TO.N,/5N*%
X255616000Y-142332000D03*
%TO.P,J2,8,Pin_8*%
%TO.N,/6N*%
X255616000Y-144872000D03*
%TO.P,J2,9,Pin_9*%
%TO.N,/7N*%
X255616000Y-147412000D03*
%TO.P,J2,10,Pin_10*%
%TO.N,/8N*%
X255616000Y-149952000D03*
%TO.P,J2,11,Pin_11*%
%TO.N,/SRB1*%
X255616000Y-152492000D03*
%TD*%
D12*
%TO.P,J1,6,Shield*%
%TO.N,GND*%
X195352000Y-162720000D03*
D13*
X196352000Y-160020000D03*
X201352000Y-160020000D03*
D12*
X202352000Y-162720000D03*
%TD*%
D10*
%TO.P,J3,1,Pin_1*%
%TO.N,/AGND*%
X259680000Y-127092000D03*
D11*
%TO.P,J3,2,Pin_2*%
%TO.N,/BIAS*%
X259680000Y-129632000D03*
%TO.P,J3,3,Pin_3*%
%TO.N,/1P*%
X259680000Y-132172000D03*
%TO.P,J3,4,Pin_4*%
%TO.N,/2P*%
X259680000Y-134712000D03*
%TO.P,J3,5,Pin_5*%
%TO.N,/3P*%
X259680000Y-137252000D03*
%TO.P,J3,6,Pin_6*%
%TO.N,/4P*%
X259680000Y-139792000D03*
%TO.P,J3,7,Pin_7*%
%TO.N,/5P*%
X259680000Y-142332000D03*
%TO.P,J3,8,Pin_8*%
%TO.N,/6P*%
X259680000Y-144872000D03*
%TO.P,J3,9,Pin_9*%
%TO.N,/7P*%
X259680000Y-147412000D03*
%TO.P,J3,10,Pin_10*%
%TO.N,/8P*%
X259680000Y-149952000D03*
%TO.P,J3,11,Pin_11*%
%TO.N,/SRB2*%
X259680000Y-152492000D03*
%TD*%
D10*
%TO.P,J5,1,Pin_1*%
%TO.N,/AVSS*%
X255616000Y-156464000D03*
D11*
%TO.P,J5,2,Pin_2*%
X255616000Y-159004000D03*
%TD*%
D10*
%TO.P,J4,1,Pin_1*%
%TO.N,/AVDD*%
X259680000Y-156464000D03*
D11*
%TO.P,J4,2,Pin_2*%
X259680000Y-159004000D03*
%TD*%
D14*
%TO.N,GNDA*%
X245364000Y-128016000D03*
X262220000Y-132588000D03*
X225911000Y-153492000D03*
X229975000Y-153492000D03*
X224895000Y-155524000D03*
X262220000Y-129540000D03*
X262220000Y-147320000D03*
X262220000Y-151892000D03*
X262220000Y-137160000D03*
X224895000Y-153843500D03*
X238852000Y-125984000D03*
X262220000Y-142748000D03*
%TO.N,/INSRB1*%
X246471999Y-139030001D03*
X246472000Y-148844000D03*
X246509472Y-133765972D03*
X246488690Y-144070842D03*
X250444000Y-127000000D03*
X246472000Y-128524000D03*
%TO.N,Net-(U1-VCAP1)*%
X231140000Y-132588000D03*
X231648000Y-131064000D03*
%TO.N,/AVSS*%
X231140000Y-126518150D03*
X234696000Y-131064000D03*
%TO.N,+3V3*%
X222212500Y-144581408D03*
X183896000Y-133096000D03*
X223520000Y-154000000D03*
X234188000Y-160528000D03*
X233555500Y-148768500D03*
X236071000Y-154508000D03*
X219972953Y-146820953D03*
X204724000Y-141224000D03*
X221065511Y-140874500D03*
X223012000Y-137802378D03*
X239119000Y-154000000D03*
X185928000Y-153924000D03*
X206533217Y-136500256D03*
%TO.N,GND*%
X228689500Y-140208000D03*
X189992000Y-144780000D03*
X226456230Y-135331769D03*
X224946851Y-143296550D03*
X195770852Y-139786374D03*
X228092000Y-134112000D03*
X211428000Y-140319973D03*
X204724000Y-147828000D03*
X224534834Y-140557500D03*
X227676000Y-145796000D03*
X195138680Y-136295155D03*
X194596352Y-145796000D03*
X230216000Y-143764000D03*
%TO.N,/DIN*%
X196596000Y-150368000D03*
%TO.N,/CS*%
X223893966Y-139166473D03*
X221996000Y-141515500D03*
X220364333Y-151638000D03*
X191516000Y-149860000D03*
%TO.N,/DOUT*%
X225552000Y-141732000D03*
X192019701Y-153411701D03*
X223520000Y-143256000D03*
%TO.N,/DRDY*%
X223839507Y-141275499D03*
X185553473Y-133096000D03*
X199312451Y-137668000D03*
X210445473Y-136652000D03*
X213412951Y-140424500D03*
X196682322Y-135713616D03*
X183896000Y-136144000D03*
X184404000Y-148336000D03*
%TO.N,/AVDD*%
X225617550Y-150335469D03*
X233264000Y-143256000D03*
X233772000Y-136144000D03*
X231189500Y-143256000D03*
X241659000Y-156032000D03*
X227943000Y-154000000D03*
X233264000Y-147320000D03*
%TO.N,Net-(U12-GPIO0{slash}BOOT)*%
X180340000Y-153416000D03*
X183383701Y-150363701D03*
%TO.N,VBUS*%
X203200000Y-144272000D03*
X202184000Y-146812000D03*
%TO.N,/GPIO1*%
X184912000Y-149860000D03*
X217424000Y-145796000D03*
X224536500Y-138400868D03*
X223515701Y-142235701D03*
%TO.N,/SCLK*%
X195072000Y-150618000D03*
X220040494Y-140874500D03*
%TD*%
D15*
%TO.N,GNDA*%
X262220000Y-147320000D02*
X262220000Y-151892000D01*
X243932000Y-125984000D02*
X238852000Y-125984000D01*
X262220000Y-132588000D02*
X262220000Y-137160000D01*
X262220000Y-137160000D02*
X262220000Y-142240000D01*
X244449000Y-125467000D02*
X243932000Y-125984000D01*
X229758000Y-153275000D02*
X229975000Y-153492000D01*
X224895000Y-155524000D02*
X224895000Y-153843500D01*
X262220000Y-129540000D02*
X262220000Y-132588000D01*
X262220000Y-129540000D02*
X262220000Y-127282000D01*
X245364000Y-127416000D02*
X243932000Y-125984000D01*
X262220000Y-142748000D02*
X262220000Y-147320000D01*
X226128000Y-153275000D02*
X229758000Y-153275000D01*
X225911000Y-153492000D02*
X226128000Y-153275000D01*
X260405000Y-125467000D02*
X244449000Y-125467000D01*
X245364000Y-128016000D02*
X245364000Y-127416000D01*
X262220000Y-127282000D02*
X260405000Y-125467000D01*
X262220000Y-142240000D02*
X262220000Y-142748000D01*
%TO.N,/INSRB1*%
X246488690Y-148827310D02*
X246472000Y-148844000D01*
X246689000Y-148627000D02*
X246472000Y-148844000D01*
X246471999Y-139030001D02*
X246471999Y-144054151D01*
X246472000Y-129032000D02*
X246472000Y-127416000D01*
X246472000Y-133803444D02*
X246509472Y-133765972D01*
X246471999Y-139030001D02*
X246472000Y-133803444D01*
X246488690Y-144070842D02*
X246488690Y-148827310D01*
X246888000Y-127000000D02*
X250444000Y-127000000D01*
X246472000Y-129032000D02*
X246472000Y-133728500D01*
X246472000Y-128524000D02*
X246472000Y-129032000D01*
X246471999Y-144054151D02*
X246488690Y-144070842D01*
X246472000Y-133728500D02*
X246509472Y-133765972D01*
X246472000Y-127416000D02*
X246888000Y-127000000D01*
%TO.N,Net-(U1-VCAP1)*%
X231648000Y-131064000D02*
X231648000Y-132080000D01*
X231648000Y-132080000D02*
X231140000Y-132588000D01*
%TO.N,/AVSS*%
X231140000Y-126518150D02*
X232664000Y-128042150D01*
X234504809Y-130872809D02*
X234696000Y-131064000D01*
X232664000Y-130872809D02*
X234504809Y-130872809D01*
X232664000Y-128042150D02*
X232664000Y-130872809D01*
%TO.N,+3V3*%
X208140616Y-134988616D02*
X196382017Y-134988616D01*
X188477305Y-153924000D02*
X185928000Y-153924000D01*
X184621000Y-132371000D02*
X183896000Y-133096000D01*
X196382017Y-134988616D02*
X196250478Y-135120155D01*
X239119000Y-154000000D02*
X238103000Y-154000000D01*
X221065511Y-140874500D02*
X221224011Y-140716000D01*
X225552000Y-152476000D02*
X225044000Y-152476000D01*
X225044000Y-152476000D02*
X223520000Y-154000000D01*
X213418000Y-138234000D02*
X210820000Y-135636000D01*
X210820000Y-135636000D02*
X208788000Y-135636000D01*
X233555500Y-149452500D02*
X238103000Y-154000000D01*
X190129223Y-135120155D02*
X187380068Y-132371000D01*
X208788000Y-135636000D02*
X207397473Y-135636000D01*
X193848305Y-148553000D02*
X188477305Y-153924000D01*
X222721000Y-141215195D02*
X222721000Y-144072908D01*
X221065511Y-140874500D02*
X221038000Y-140902011D01*
X187380068Y-132371000D02*
X184621000Y-132371000D01*
X222212500Y-154140500D02*
X222504000Y-154432000D01*
X221224011Y-140716000D02*
X222221805Y-140716000D01*
X196250478Y-135120155D02*
X190129223Y-135120155D01*
X236071000Y-154508000D02*
X234039000Y-152476000D01*
X233555500Y-148768500D02*
X233555500Y-149452500D01*
X207397473Y-135636000D02*
X206533217Y-136500256D01*
X202992305Y-148553000D02*
X193848305Y-148553000D01*
X234039000Y-152476000D02*
X225552000Y-152476000D01*
X222212500Y-144581408D02*
X222212500Y-154140500D01*
X222504000Y-154432000D02*
X228600000Y-160528000D01*
X222580378Y-138234000D02*
X213418000Y-138234000D01*
X204034079Y-141913921D02*
X204034079Y-147511226D01*
X204724000Y-141224000D02*
X204034079Y-141913921D01*
X222721000Y-144072908D02*
X222212500Y-144581408D01*
X208788000Y-135636000D02*
X208140616Y-134988616D01*
X238103000Y-154000000D02*
X236579000Y-154000000D01*
X223012000Y-137802378D02*
X222580378Y-138234000D01*
X219972953Y-146820953D02*
X220123000Y-146670906D01*
X228600000Y-160528000D02*
X234188000Y-160528000D01*
X204034079Y-147511226D02*
X202992305Y-148553000D01*
X222221805Y-140716000D02*
X222721000Y-141215195D01*
X236579000Y-154000000D02*
X236071000Y-154508000D01*
%TO.N,GND*%
X224946851Y-143296550D02*
X228143450Y-143296550D01*
X228692000Y-144780000D02*
X228692000Y-142748000D01*
X194596352Y-138718328D02*
X195138680Y-138176000D01*
X228689500Y-137565039D02*
X228689500Y-140208000D01*
X228143450Y-143296550D02*
X228692000Y-142748000D01*
X195770852Y-139786374D02*
X195138680Y-139154202D01*
X194596352Y-145796000D02*
X191008000Y-145796000D01*
X229200000Y-142748000D02*
X230216000Y-143764000D01*
X228692000Y-140208000D02*
X228689500Y-140208000D01*
X223402188Y-139700000D02*
X224259688Y-140557500D01*
X195138680Y-139154202D02*
X195138680Y-138176000D01*
X228188231Y-137063769D02*
X228689500Y-137565039D01*
X204724000Y-147023973D02*
X212047973Y-139700000D01*
X204724000Y-147828000D02*
X204724000Y-147023973D01*
X226456230Y-135331769D02*
X228188231Y-137063769D01*
X191008000Y-145796000D02*
X189992000Y-144780000D01*
X224259688Y-140557500D02*
X224534834Y-140557500D01*
X228692000Y-142748000D02*
X229200000Y-142748000D01*
X194596352Y-145796000D02*
X194596352Y-138718328D01*
X228188231Y-137063769D02*
X228188231Y-134208231D01*
X212047973Y-139700000D02*
X223402188Y-139700000D01*
X228692000Y-142748000D02*
X228692000Y-140208000D01*
X228188231Y-134208231D02*
X228092000Y-134112000D01*
X227676000Y-145796000D02*
X228692000Y-144780000D01*
X195138680Y-138176000D02*
X195138680Y-136295155D01*
%TO.N,/DIN*%
X212856104Y-141599500D02*
X205002604Y-149453000D01*
X214333152Y-141166000D02*
X213899652Y-141599500D01*
X218948000Y-142748000D02*
X217932000Y-141732000D01*
X217932000Y-141166000D02*
X214333152Y-141166000D01*
X217932000Y-141732000D02*
X217932000Y-141166000D01*
X213899652Y-141599500D02*
X212856104Y-141599500D01*
X197511000Y-149453000D02*
X196596000Y-150368000D01*
X205002604Y-149453000D02*
X197511000Y-149453000D01*
%TO.N,/CS*%
X193209636Y-147791837D02*
X199233310Y-147791837D01*
X221488000Y-150514333D02*
X220364333Y-151638000D01*
X221488000Y-142023500D02*
X221488000Y-150514333D01*
X205402810Y-139192000D02*
X202317473Y-142277337D01*
X202317473Y-142277337D02*
X202317473Y-144707674D01*
X221996000Y-141515500D02*
X221488000Y-142023500D01*
X193209636Y-148166364D02*
X193209636Y-147791837D01*
X191516000Y-149860000D02*
X193209636Y-148166364D01*
X202317473Y-144707674D02*
X199233310Y-147791837D01*
X223893966Y-139166473D02*
X223868439Y-139192000D01*
X223868439Y-139192000D02*
X205402810Y-139192000D01*
%TO.N,/DOUT*%
X217308000Y-141616000D02*
X214884000Y-141616000D01*
X214884000Y-141616000D02*
X214450500Y-142049500D01*
X193478298Y-153411701D02*
X192019701Y-153411701D01*
X213042500Y-142049500D02*
X205189000Y-149903000D01*
X217424000Y-143764000D02*
X217424000Y-141732000D01*
X205189000Y-149903000D02*
X204216000Y-149903000D01*
X195796999Y-151093000D02*
X193478298Y-153411701D01*
X214450500Y-142049500D02*
X213042500Y-142049500D01*
X225044000Y-141732000D02*
X225552000Y-141732000D01*
X204216000Y-149903000D02*
X203026000Y-151093000D01*
X217424000Y-141732000D02*
X217308000Y-141616000D01*
X223520000Y-143256000D02*
X225044000Y-141732000D01*
X203026000Y-151093000D02*
X195796999Y-151093000D01*
X218948000Y-145288000D02*
X217424000Y-143764000D01*
%TO.N,/DRDY*%
X196682322Y-135713616D02*
X196538861Y-135570155D01*
X183896000Y-147828000D02*
X184404000Y-148336000D01*
X189942827Y-135570155D02*
X187468672Y-133096000D01*
X196538861Y-135570155D02*
X189942827Y-135570155D01*
X209126099Y-137971374D02*
X199615825Y-137971374D01*
X213687451Y-140150000D02*
X213412951Y-140424500D01*
X187468672Y-133096000D02*
X185553473Y-133096000D01*
X223839507Y-141275499D02*
X223839507Y-141026202D01*
X183896000Y-136144000D02*
X183896000Y-147828000D01*
X210445473Y-136652000D02*
X209126099Y-137971374D01*
X199615825Y-137971374D02*
X199312451Y-137668000D01*
X223839507Y-141026202D02*
X222963305Y-140150000D01*
X222963305Y-140150000D02*
X213687451Y-140150000D01*
%TO.N,/AVDD*%
X233264000Y-143256000D02*
X231189500Y-143256000D01*
X233264000Y-136652000D02*
X233772000Y-136144000D01*
X227943000Y-154000000D02*
X229176000Y-155233000D01*
X225617550Y-150335469D02*
X231189500Y-144763519D01*
X233264000Y-147320000D02*
X233264000Y-136652000D01*
X231189500Y-144763519D02*
X231189500Y-143256000D01*
X229176000Y-155233000D02*
X240860000Y-155233000D01*
X240860000Y-155233000D02*
X241659000Y-156032000D01*
%TO.N,Net-(U12-GPIO0{slash}BOOT)*%
X183383701Y-150372299D02*
X183383701Y-150363701D01*
X180340000Y-153416000D02*
X183383701Y-150372299D01*
%TO.N,VBUS*%
X202184000Y-146812000D02*
X203200000Y-145796000D01*
X203200000Y-145796000D02*
X203200000Y-144272000D01*
%TO.N,/GPIO1*%
X225251695Y-141007000D02*
X224976695Y-141282000D01*
X225261000Y-141007000D02*
X225251695Y-141007000D01*
X190633473Y-146812000D02*
X187585473Y-149860000D01*
X201448275Y-144500432D02*
X199136707Y-146812000D01*
X224976695Y-141282000D02*
X224858311Y-141282000D01*
X224618966Y-138483334D02*
X224618966Y-139617034D01*
X224858311Y-141282000D02*
X223904610Y-142235701D01*
X223634266Y-138400868D02*
X223351134Y-138684000D01*
X204547481Y-138684000D02*
X201448275Y-141783206D01*
X225634966Y-140633035D02*
X225261000Y-141007000D01*
X224536500Y-138400868D02*
X223634266Y-138400868D01*
X199136707Y-146812000D02*
X190633473Y-146812000D01*
X224536500Y-138400868D02*
X224618966Y-138483334D01*
X223904610Y-142235701D02*
X223515701Y-142235701D01*
X224618966Y-139617034D02*
X225634966Y-140633035D01*
X187585473Y-149860000D02*
X184912000Y-149860000D01*
X223351134Y-138684000D02*
X204547481Y-138684000D01*
X218948000Y-150368000D02*
X217424000Y-148844000D01*
X217424000Y-148844000D02*
X217424000Y-145796000D01*
X201448275Y-141783206D02*
X201448275Y-144500432D01*
%TO.N,/SCLK*%
X219589465Y-151388236D02*
X220697953Y-150279748D01*
X196687000Y-149003000D02*
X204816208Y-149003000D01*
X220697953Y-150279748D02*
X220697953Y-141531959D01*
X204816208Y-149003000D02*
X212669708Y-141149500D01*
X214146756Y-140716000D02*
X219881994Y-140716000D01*
X213713256Y-141149500D02*
X214146756Y-140716000D01*
X195072000Y-150618000D02*
X196687000Y-149003000D01*
X220123000Y-152421299D02*
X219589465Y-151887764D01*
X220123000Y-159353000D02*
X220123000Y-152421299D01*
X219589465Y-151887764D02*
X219589465Y-151388236D01*
X218948000Y-160528000D02*
X220123000Y-159353000D01*
X219881994Y-140716000D02*
X220040494Y-140874500D01*
X220697953Y-141531959D02*
X220040494Y-140874500D01*
X212669708Y-141149500D02*
X213713256Y-141149500D01*
%TD*%
M02*
