%TF.GenerationSoftware,KiCad,Pcbnew,7.0.7*%
%TF.CreationDate,2023-12-10T14:10:57-05:00*%
%TF.ProjectId,Monolith,4d6f6e6f-6c69-4746-982e-6b696361645f,rev?*%
%TF.SameCoordinates,Original*%
%TF.FileFunction,Copper,L1,Top*%
%TF.FilePolarity,Positive*%
%FSLAX46Y46*%
G04 Gerber Fmt 4.6, Leading zero omitted, Abs format (unit mm)*
G04 Created by KiCad (PCBNEW 7.0.7) date 2023-12-10 14:10:57*
%MOMM*%
%LPD*%
G01*
G04 APERTURE LIST*
G04 Aperture macros list*
%AMRoundRect*
0 Rectangle with rounded corners*
0 $1 Rounding radius*
0 $2 $3 $4 $5 $6 $7 $8 $9 X,Y pos of 4 corners*
0 Add a 4 corners polygon primitive as box body*
4,1,4,$2,$3,$4,$5,$6,$7,$8,$9,$2,$3,0*
0 Add four circle primitives for the rounded corners*
1,1,$1+$1,$2,$3*
1,1,$1+$1,$4,$5*
1,1,$1+$1,$6,$7*
1,1,$1+$1,$8,$9*
0 Add four rect primitives between the rounded corners*
20,1,$1+$1,$2,$3,$4,$5,0*
20,1,$1+$1,$4,$5,$6,$7,0*
20,1,$1+$1,$6,$7,$8,$9,0*
20,1,$1+$1,$8,$9,$2,$3,0*%
%AMFreePoly0*
4,1,133,0.333303,0.154874,0.333620,0.154961,0.341620,0.153961,0.341660,0.153938,0.341707,0.153950,0.348700,0.152951,0.356620,0.151961,0.356896,0.151803,0.357213,0.151851,0.365212,0.149851,0.365284,0.149797,0.365374,0.149808,0.372373,0.147808,0.372540,0.147674,0.372756,0.147682,0.380756,0.144682,0.380846,0.144597,0.380970,0.144596,0.394970,0.138596,0.395181,0.138379,
0.395481,0.138341,0.409480,0.130341,0.409761,0.129978,0.410201,0.129841,0.415995,0.125012,0.421773,0.121160,0.422058,0.120733,0.422536,0.120536,0.428375,0.114695,0.434201,0.109841,0.434421,0.109421,0.434841,0.109201,0.439691,0.103380,0.445535,0.097536,0.445731,0.097060,0.446160,0.096774,0.450012,0.090995,0.454841,0.085201,0.454977,0.084762,0.455341,0.084481,
0.463341,0.070481,0.463379,0.070181,0.463596,0.069970,0.469596,0.055969,0.469597,0.055846,0.469682,0.055756,0.472682,0.047756,0.472674,0.047541,0.472808,0.047374,0.474808,0.040374,0.474797,0.040284,0.474851,0.040213,0.476851,0.032213,0.476803,0.031896,0.476961,0.031620,0.477950,0.023707,0.478950,0.016707,0.478938,0.016660,0.478961,0.016620,0.479961,0.008620,
0.479874,0.008303,0.480000,0.008000,0.480000,-0.008000,0.479874,-0.008303,0.479961,-0.008620,0.478961,-0.016620,0.478938,-0.016660,0.478950,-0.016707,0.477951,-0.023700,0.476961,-0.031620,0.476803,-0.031896,0.476851,-0.032213,0.474851,-0.040213,0.474797,-0.040284,0.474808,-0.040374,0.472808,-0.047374,0.472674,-0.047541,0.472682,-0.047756,0.469682,-0.055756,0.469597,-0.055846,
0.469596,-0.055969,0.463596,-0.069970,0.463379,-0.070181,0.463341,-0.070481,0.455341,-0.084481,0.454977,-0.084762,0.454841,-0.085201,0.450012,-0.090995,0.446160,-0.096774,0.445731,-0.097060,0.445535,-0.097536,0.439691,-0.103380,0.434841,-0.109201,0.434421,-0.109421,0.434201,-0.109841,0.428375,-0.114695,0.422536,-0.120536,0.422058,-0.120733,0.421773,-0.121160,0.415995,-0.125012,
0.410201,-0.129841,0.409761,-0.129978,0.409480,-0.130341,0.395481,-0.138341,0.395181,-0.138379,0.394970,-0.138596,0.380970,-0.144596,0.380846,-0.144597,0.380756,-0.144682,0.372756,-0.147682,0.372540,-0.147674,0.372373,-0.147808,0.365374,-0.149808,0.365284,-0.149797,0.365212,-0.149851,0.357213,-0.151851,0.356896,-0.151803,0.356620,-0.151961,0.348700,-0.152951,0.341707,-0.153950,
0.341660,-0.153938,0.341620,-0.153961,0.333620,-0.154961,0.333303,-0.154874,0.333000,-0.155000,-0.475000,-0.155000,-0.478536,-0.153536,-0.480000,-0.150000,-0.480000,0.150000,-0.478536,0.153536,-0.475000,0.155000,0.333000,0.155000,0.333303,0.154874,0.333303,0.154874,$1*%
%AMFreePoly1*
4,1,133,0.008303,0.479874,0.008620,0.479961,0.016620,0.478961,0.016660,0.478938,0.016707,0.478950,0.023700,0.477951,0.031620,0.476961,0.031896,0.476803,0.032213,0.476851,0.040212,0.474851,0.040284,0.474797,0.040374,0.474808,0.047373,0.472808,0.047540,0.472674,0.047756,0.472682,0.055756,0.469682,0.055846,0.469597,0.055970,0.469596,0.069970,0.463596,0.070181,0.463379,
0.070481,0.463341,0.084480,0.455341,0.084761,0.454978,0.085201,0.454841,0.090995,0.450012,0.096773,0.446160,0.097058,0.445733,0.097536,0.445536,0.103375,0.439695,0.109201,0.434841,0.109421,0.434421,0.109841,0.434201,0.114691,0.428380,0.120535,0.422536,0.120731,0.422060,0.121160,0.421774,0.125012,0.415995,0.129841,0.410201,0.129977,0.409762,0.130341,0.409481,
0.138341,0.395481,0.138379,0.395181,0.138596,0.394970,0.144596,0.380969,0.144597,0.380846,0.144682,0.380756,0.147682,0.372756,0.147674,0.372541,0.147808,0.372374,0.149808,0.365374,0.149797,0.365284,0.149851,0.365213,0.151851,0.357213,0.151803,0.356896,0.151961,0.356620,0.152950,0.348707,0.153950,0.341707,0.153938,0.341660,0.153961,0.341620,0.154961,0.333620,
0.154874,0.333303,0.155000,0.333000,0.155000,-0.475000,0.153536,-0.478536,0.150000,-0.480000,-0.150000,-0.480000,-0.153536,-0.478536,-0.155000,-0.475000,-0.155000,0.333000,-0.154874,0.333303,-0.154961,0.333620,-0.153961,0.341620,-0.153938,0.341660,-0.153950,0.341707,-0.152950,0.348707,-0.151961,0.356620,-0.151803,0.356896,-0.151851,0.357213,-0.149851,0.365212,-0.149797,0.365284,
-0.149808,0.365374,-0.147808,0.372373,-0.147674,0.372540,-0.147682,0.372756,-0.144682,0.380756,-0.144597,0.380846,-0.144596,0.380970,-0.138596,0.394970,-0.138379,0.395181,-0.138341,0.395481,-0.130341,0.409480,-0.129978,0.409761,-0.129841,0.410201,-0.125012,0.415995,-0.121160,0.421773,-0.120733,0.422058,-0.120536,0.422536,-0.114695,0.428375,-0.109841,0.434201,-0.109421,0.434421,
-0.109201,0.434841,-0.103380,0.439691,-0.097536,0.445535,-0.097060,0.445731,-0.096774,0.446160,-0.090995,0.450012,-0.085201,0.454841,-0.084762,0.454977,-0.084481,0.455341,-0.070481,0.463341,-0.070181,0.463379,-0.069970,0.463596,-0.055969,0.469596,-0.055846,0.469597,-0.055756,0.469682,-0.047756,0.472682,-0.047541,0.472674,-0.047374,0.472808,-0.040374,0.474808,-0.040284,0.474797,
-0.040213,0.474851,-0.032213,0.476851,-0.031896,0.476803,-0.031620,0.476961,-0.023700,0.477951,-0.016707,0.478950,-0.016660,0.478938,-0.016620,0.478961,-0.008620,0.479961,-0.008303,0.479874,-0.008000,0.480000,0.008000,0.480000,0.008303,0.479874,0.008303,0.479874,$1*%
%AMFreePoly2*
4,1,133,0.478536,0.153536,0.480000,0.150000,0.480000,-0.150000,0.478536,-0.153536,0.475000,-0.155000,-0.333000,-0.155000,-0.333303,-0.154874,-0.333620,-0.154961,-0.341620,-0.153961,-0.341660,-0.153938,-0.341707,-0.153950,-0.348700,-0.152951,-0.356620,-0.151961,-0.356896,-0.151803,-0.357213,-0.151851,-0.365213,-0.149851,-0.365284,-0.149797,-0.365374,-0.149808,-0.372374,-0.147808,-0.372541,-0.147674,
-0.372756,-0.147682,-0.380756,-0.144682,-0.380846,-0.144597,-0.380969,-0.144596,-0.394970,-0.138596,-0.395181,-0.138379,-0.395481,-0.138341,-0.409481,-0.130341,-0.409762,-0.129977,-0.410201,-0.129841,-0.415995,-0.125012,-0.421774,-0.121160,-0.422060,-0.120731,-0.422536,-0.120535,-0.428380,-0.114691,-0.434201,-0.109841,-0.434421,-0.109421,-0.434841,-0.109201,-0.439695,-0.103375,-0.445536,-0.097536,
-0.445733,-0.097058,-0.446160,-0.096773,-0.450012,-0.090995,-0.454841,-0.085201,-0.454978,-0.084761,-0.455341,-0.084480,-0.463341,-0.070481,-0.463379,-0.070181,-0.463596,-0.069970,-0.469596,-0.055970,-0.469597,-0.055846,-0.469682,-0.055756,-0.472682,-0.047756,-0.472674,-0.047540,-0.472808,-0.047373,-0.474808,-0.040374,-0.474797,-0.040284,-0.474851,-0.040212,-0.476851,-0.032213,-0.476803,-0.031896,
-0.476961,-0.031620,-0.477951,-0.023700,-0.478950,-0.016707,-0.478938,-0.016660,-0.478961,-0.016620,-0.479961,-0.008620,-0.479874,-0.008303,-0.480000,-0.008000,-0.480000,0.008000,-0.479874,0.008303,-0.479961,0.008620,-0.478961,0.016620,-0.478938,0.016660,-0.478950,0.016707,-0.477950,0.023707,-0.476961,0.031620,-0.476803,0.031896,-0.476851,0.032213,-0.474851,0.040212,-0.474797,0.040284,
-0.474808,0.040374,-0.472808,0.047373,-0.472674,0.047540,-0.472682,0.047756,-0.469682,0.055756,-0.469597,0.055846,-0.469596,0.055970,-0.463596,0.069970,-0.463379,0.070181,-0.463341,0.070481,-0.455341,0.084480,-0.454978,0.084761,-0.454841,0.085201,-0.450012,0.090995,-0.446160,0.096773,-0.445733,0.097058,-0.445536,0.097536,-0.439695,0.103375,-0.434841,0.109201,-0.434421,0.109421,
-0.434201,0.109841,-0.428380,0.114691,-0.422536,0.120535,-0.422060,0.120731,-0.421774,0.121160,-0.415995,0.125012,-0.410201,0.129841,-0.409762,0.129977,-0.409481,0.130341,-0.395481,0.138341,-0.395181,0.138379,-0.394970,0.138596,-0.380969,0.144596,-0.380846,0.144597,-0.380756,0.144682,-0.372756,0.147682,-0.372541,0.147674,-0.372374,0.147808,-0.365374,0.149808,-0.365284,0.149797,
-0.365213,0.149851,-0.357213,0.151851,-0.356896,0.151803,-0.356620,0.151961,-0.348700,0.152951,-0.341707,0.153950,-0.341660,0.153938,-0.341620,0.153961,-0.333620,0.154961,-0.333303,0.154874,-0.333000,0.155000,0.475000,0.155000,0.478536,0.153536,0.478536,0.153536,$1*%
%AMFreePoly3*
4,1,133,0.153536,0.478536,0.155000,0.475000,0.155000,-0.333000,0.154874,-0.333303,0.154961,-0.333620,0.153961,-0.341620,0.153938,-0.341660,0.153950,-0.341707,0.152951,-0.348700,0.151961,-0.356620,0.151803,-0.356896,0.151851,-0.357213,0.149851,-0.365213,0.149797,-0.365284,0.149808,-0.365374,0.147808,-0.372374,0.147674,-0.372541,0.147682,-0.372756,0.144682,-0.380756,0.144597,-0.380846,
0.144596,-0.380969,0.138596,-0.394970,0.138379,-0.395181,0.138341,-0.395481,0.130341,-0.409481,0.129977,-0.409762,0.129841,-0.410201,0.125012,-0.415995,0.121160,-0.421774,0.120731,-0.422060,0.120535,-0.422536,0.114691,-0.428380,0.109841,-0.434201,0.109421,-0.434421,0.109201,-0.434841,0.103375,-0.439695,0.097536,-0.445536,0.097058,-0.445733,0.096773,-0.446160,0.090995,-0.450012,
0.085201,-0.454841,0.084761,-0.454978,0.084480,-0.455341,0.070481,-0.463341,0.070181,-0.463379,0.069970,-0.463596,0.055970,-0.469596,0.055846,-0.469597,0.055756,-0.469682,0.047756,-0.472682,0.047540,-0.472674,0.047373,-0.472808,0.040374,-0.474808,0.040284,-0.474797,0.040212,-0.474851,0.032213,-0.476851,0.031896,-0.476803,0.031620,-0.476961,0.023700,-0.477951,0.016707,-0.478950,
0.016660,-0.478938,0.016620,-0.478961,0.008620,-0.479961,0.008303,-0.479874,0.008000,-0.480000,-0.008000,-0.480000,-0.008303,-0.479874,-0.008620,-0.479961,-0.016620,-0.478961,-0.016660,-0.478938,-0.016707,-0.478950,-0.023700,-0.477951,-0.031620,-0.476961,-0.031896,-0.476803,-0.032213,-0.476851,-0.040213,-0.474851,-0.040284,-0.474797,-0.040374,-0.474808,-0.047374,-0.472808,-0.047541,-0.472674,
-0.047756,-0.472682,-0.055756,-0.469682,-0.055846,-0.469597,-0.055969,-0.469596,-0.069970,-0.463596,-0.070181,-0.463379,-0.070481,-0.463341,-0.084481,-0.455341,-0.084762,-0.454977,-0.085201,-0.454841,-0.090995,-0.450012,-0.096774,-0.446160,-0.097060,-0.445731,-0.097536,-0.445535,-0.103380,-0.439691,-0.109201,-0.434841,-0.109421,-0.434421,-0.109841,-0.434201,-0.114695,-0.428375,-0.120536,-0.422536,
-0.120733,-0.422058,-0.121160,-0.421773,-0.125012,-0.415995,-0.129841,-0.410201,-0.129978,-0.409761,-0.130341,-0.409480,-0.138341,-0.395481,-0.138379,-0.395181,-0.138596,-0.394970,-0.144596,-0.380970,-0.144597,-0.380846,-0.144682,-0.380756,-0.147682,-0.372756,-0.147674,-0.372540,-0.147808,-0.372373,-0.149808,-0.365374,-0.149797,-0.365284,-0.149851,-0.365212,-0.151851,-0.357213,-0.151803,-0.356896,
-0.151961,-0.356620,-0.152951,-0.348700,-0.153950,-0.341707,-0.153938,-0.341660,-0.153961,-0.341620,-0.154961,-0.333620,-0.154874,-0.333303,-0.155000,-0.333000,-0.155000,0.475000,-0.153536,0.478536,-0.150000,0.480000,0.150000,0.480000,0.153536,0.478536,0.153536,0.478536,$1*%
%AMFreePoly4*
4,1,14,1.678536,1.678536,1.680000,1.675000,1.680000,-1.675000,1.678536,-1.678536,1.675000,-1.680000,-1.675000,-1.680000,-1.678536,-1.678536,-1.680000,-1.675000,-1.680001,1.425000,-1.678536,1.428536,-1.428536,1.678536,-1.425000,1.680000,1.675000,1.680000,1.678536,1.678536,1.678536,1.678536,$1*%
%AMFreePoly5*
4,1,6,0.600000,-0.600000,-0.600000,-0.600000,-0.600000,0.000000,0.000000,0.600000,0.600000,0.600000,0.600000,-0.600000,0.600000,-0.600000,$1*%
G04 Aperture macros list end*
%TA.AperFunction,SMDPad,CuDef*%
%ADD10RoundRect,0.225000X0.250000X-0.225000X0.250000X0.225000X-0.250000X0.225000X-0.250000X-0.225000X0*%
%TD*%
%TA.AperFunction,SMDPad,CuDef*%
%ADD11RoundRect,0.225000X-0.225000X-0.250000X0.225000X-0.250000X0.225000X0.250000X-0.225000X0.250000X0*%
%TD*%
%TA.AperFunction,SMDPad,CuDef*%
%ADD12RoundRect,0.200000X0.275000X-0.200000X0.275000X0.200000X-0.275000X0.200000X-0.275000X-0.200000X0*%
%TD*%
%TA.AperFunction,ComponentPad*%
%ADD13R,1.700000X1.700000*%
%TD*%
%TA.AperFunction,ComponentPad*%
%ADD14O,1.700000X1.700000*%
%TD*%
%TA.AperFunction,SMDPad,CuDef*%
%ADD15RoundRect,0.225000X0.225000X0.250000X-0.225000X0.250000X-0.225000X-0.250000X0.225000X-0.250000X0*%
%TD*%
%TA.AperFunction,SMDPad,CuDef*%
%ADD16R,0.400000X1.650000*%
%TD*%
%TA.AperFunction,SMDPad,CuDef*%
%ADD17R,1.825000X0.700000*%
%TD*%
%TA.AperFunction,SMDPad,CuDef*%
%ADD18R,2.000000X1.500000*%
%TD*%
%TA.AperFunction,SMDPad,CuDef*%
%ADD19R,1.350000X2.000000*%
%TD*%
%TA.AperFunction,ComponentPad*%
%ADD20O,1.350000X1.700000*%
%TD*%
%TA.AperFunction,ComponentPad*%
%ADD21O,1.100000X1.500000*%
%TD*%
%TA.AperFunction,SMDPad,CuDef*%
%ADD22R,1.430000X2.500000*%
%TD*%
%TA.AperFunction,SMDPad,CuDef*%
%ADD23RoundRect,0.243750X-0.243750X-0.456250X0.243750X-0.456250X0.243750X0.456250X-0.243750X0.456250X0*%
%TD*%
%TA.AperFunction,SMDPad,CuDef*%
%ADD24RoundRect,0.200000X-0.200000X-0.275000X0.200000X-0.275000X0.200000X0.275000X-0.200000X0.275000X0*%
%TD*%
%TA.AperFunction,SMDPad,CuDef*%
%ADD25RoundRect,0.150000X-0.587500X-0.150000X0.587500X-0.150000X0.587500X0.150000X-0.587500X0.150000X0*%
%TD*%
%TA.AperFunction,SMDPad,CuDef*%
%ADD26RoundRect,0.008100X-0.426900X-0.126900X0.426900X-0.126900X0.426900X0.126900X-0.426900X0.126900X0*%
%TD*%
%TA.AperFunction,SMDPad,CuDef*%
%ADD27RoundRect,0.008100X0.426900X0.126900X-0.426900X0.126900X-0.426900X-0.126900X0.426900X-0.126900X0*%
%TD*%
%TA.AperFunction,SMDPad,CuDef*%
%ADD28R,0.400000X0.900000*%
%TD*%
%TA.AperFunction,SMDPad,CuDef*%
%ADD29R,0.635000X0.406400*%
%TD*%
%TA.AperFunction,SMDPad,CuDef*%
%ADD30R,0.480000X0.400000*%
%TD*%
%TA.AperFunction,SMDPad,CuDef*%
%ADD31RoundRect,0.225000X-0.250000X0.225000X-0.250000X-0.225000X0.250000X-0.225000X0.250000X0.225000X0*%
%TD*%
%TA.AperFunction,SMDPad,CuDef*%
%ADD32RoundRect,0.200000X0.200000X0.275000X-0.200000X0.275000X-0.200000X-0.275000X0.200000X-0.275000X0*%
%TD*%
%TA.AperFunction,SMDPad,CuDef*%
%ADD33R,1.000000X0.599999*%
%TD*%
%TA.AperFunction,SMDPad,CuDef*%
%ADD34RoundRect,0.200000X-0.275000X0.200000X-0.275000X-0.200000X0.275000X-0.200000X0.275000X0.200000X0*%
%TD*%
%TA.AperFunction,SMDPad,CuDef*%
%ADD35RoundRect,0.088500X0.206500X-0.516500X0.206500X0.516500X-0.206500X0.516500X-0.206500X-0.516500X0*%
%TD*%
%TA.AperFunction,SMDPad,CuDef*%
%ADD36FreePoly0,90.000000*%
%TD*%
%TA.AperFunction,SMDPad,CuDef*%
%ADD37FreePoly1,90.000000*%
%TD*%
%TA.AperFunction,SMDPad,CuDef*%
%ADD38FreePoly2,90.000000*%
%TD*%
%TA.AperFunction,SMDPad,CuDef*%
%ADD39FreePoly3,90.000000*%
%TD*%
%TA.AperFunction,SMDPad,CuDef*%
%ADD40FreePoly4,90.000000*%
%TD*%
%TA.AperFunction,SMDPad,CuDef*%
%ADD41R,0.400000X0.800000*%
%TD*%
%TA.AperFunction,SMDPad,CuDef*%
%ADD42R,0.800000X0.400000*%
%TD*%
%TA.AperFunction,SMDPad,CuDef*%
%ADD43FreePoly5,90.000000*%
%TD*%
%TA.AperFunction,SMDPad,CuDef*%
%ADD44R,1.200000X1.200000*%
%TD*%
%TA.AperFunction,SMDPad,CuDef*%
%ADD45R,0.800000X0.800000*%
%TD*%
%TA.AperFunction,SMDPad,CuDef*%
%ADD46RoundRect,0.041300X-0.583700X-0.253700X0.583700X-0.253700X0.583700X0.253700X-0.583700X0.253700X0*%
%TD*%
%TA.AperFunction,SMDPad,CuDef*%
%ADD47R,1.500000X1.000000*%
%TD*%
%TA.AperFunction,SMDPad,CuDef*%
%ADD48R,2.000000X1.000000*%
%TD*%
%TA.AperFunction,SMDPad,CuDef*%
%ADD49O,3.700000X2.200000*%
%TD*%
%TA.AperFunction,SMDPad,CuDef*%
%ADD50RoundRect,0.011200X0.768800X0.128800X-0.768800X0.128800X-0.768800X-0.128800X0.768800X-0.128800X0*%
%TD*%
%TA.AperFunction,SMDPad,CuDef*%
%ADD51RoundRect,0.011200X-0.128800X0.768800X-0.128800X-0.768800X0.128800X-0.768800X0.128800X0.768800X0*%
%TD*%
%TA.AperFunction,SMDPad,CuDef*%
%ADD52R,1.210000X0.730000*%
%TD*%
%TA.AperFunction,SMDPad,CuDef*%
%ADD53RoundRect,0.140000X-0.140000X-0.170000X0.140000X-0.170000X0.140000X0.170000X-0.140000X0.170000X0*%
%TD*%
%TA.AperFunction,ViaPad*%
%ADD54C,0.800000*%
%TD*%
%TA.AperFunction,Conductor*%
%ADD55C,0.250000*%
%TD*%
%TA.AperFunction,Conductor*%
%ADD56C,0.200000*%
%TD*%
G04 APERTURE END LIST*
D10*
%TO.P,C46,1*%
%TO.N,/ADS Power/-RAW*%
X229708000Y-159129998D03*
%TO.P,C46,2*%
%TO.N,GNDA*%
X229708000Y-157579998D03*
%TD*%
D11*
%TO.P,C44,1*%
%TO.N,/AVDD*%
X222624000Y-160050000D03*
%TO.P,C44,2*%
%TO.N,GNDA*%
X224174000Y-160050000D03*
%TD*%
%TO.P,C32,1*%
%TO.N,Net-(U1-VREFN)*%
X232397000Y-125476000D03*
%TO.P,C32,2*%
%TO.N,Net-(U1-VREFP)*%
X233947000Y-125476000D03*
%TD*%
D12*
%TO.P,R26,1*%
%TO.N,/USB Port/USBtoUART/DTR*%
X190799404Y-125794281D03*
%TO.P,R26,2*%
%TO.N,Net-(Q2-B)*%
X190799404Y-124144281D03*
%TD*%
D13*
%TO.P,J2,1,Pin_1*%
%TO.N,/AGND*%
X255616000Y-127092000D03*
D14*
%TO.P,J2,2,Pin_2*%
%TO.N,/BIAS*%
X255616000Y-129632000D03*
%TO.P,J2,3,Pin_3*%
%TO.N,/1N*%
X255616000Y-132172000D03*
%TO.P,J2,4,Pin_4*%
%TO.N,/2N*%
X255616000Y-134712000D03*
%TO.P,J2,5,Pin_5*%
%TO.N,/3N*%
X255616000Y-137252000D03*
%TO.P,J2,6,Pin_6*%
%TO.N,/4N*%
X255616000Y-139792000D03*
%TO.P,J2,7,Pin_7*%
%TO.N,/5N*%
X255616000Y-142332000D03*
%TO.P,J2,8,Pin_8*%
%TO.N,/6N*%
X255616000Y-144872000D03*
%TO.P,J2,9,Pin_9*%
%TO.N,/7N*%
X255616000Y-147412000D03*
%TO.P,J2,10,Pin_10*%
%TO.N,/8N*%
X255616000Y-149952000D03*
%TO.P,J2,11,Pin_11*%
%TO.N,/SRB1*%
X255616000Y-152492000D03*
%TD*%
D15*
%TO.P,C23,1*%
%TO.N,+3V3*%
X203879212Y-132347801D03*
%TO.P,C23,2*%
%TO.N,GND*%
X202329212Y-132347801D03*
%TD*%
D16*
%TO.P,J1,1,VBUS*%
%TO.N,VBUS*%
X197668017Y-159512000D03*
%TO.P,J1,2,D-*%
%TO.N,/USB Port/USBtoUART/DN*%
X198318017Y-159512000D03*
%TO.P,J1,3,D+*%
%TO.N,/USB Port/USBtoUART/DP*%
X198968017Y-159512000D03*
%TO.P,J1,4,ID*%
%TO.N,unconnected-(J1-ID-Pad4)*%
X199618017Y-159512000D03*
%TO.P,J1,5,GND*%
%TO.N,GND*%
X200268017Y-159512000D03*
D17*
%TO.P,J1,6,Shield*%
X196018017Y-160712000D03*
D18*
X196118017Y-159412000D03*
D19*
X196238017Y-161462000D03*
D20*
X196238017Y-162392000D03*
D21*
X196548017Y-159392000D03*
D22*
X198008017Y-162662000D03*
X199928017Y-162662000D03*
D21*
X201388017Y-159392000D03*
D20*
X201698017Y-162392000D03*
D19*
X201718017Y-161462000D03*
D18*
X201868017Y-159392000D03*
D17*
X201968017Y-160712000D03*
%TD*%
D23*
%TO.P,D11,1,K*%
%TO.N,GND*%
X210523973Y-141224000D03*
%TO.P,D11,2,A*%
%TO.N,Net-(D11-A)*%
X212398973Y-141224000D03*
%TD*%
D24*
%TO.P,R17,1*%
%TO.N,VBUS*%
X195788970Y-132995927D03*
%TO.P,R17,2*%
%TO.N,Net-(U3-VBUS)*%
X197438970Y-132995927D03*
%TD*%
D25*
%TO.P,Q1,1,B*%
%TO.N,Net-(Q1-B)*%
X184404000Y-123952000D03*
%TO.P,Q1,2,E*%
%TO.N,/USB Port/USBtoUART/DTR*%
X184404000Y-125852000D03*
%TO.P,Q1,3,C*%
%TO.N,/GPIO0*%
X186279000Y-124902000D03*
%TD*%
D13*
%TO.P,J3,1,Pin_1*%
%TO.N,/AGND*%
X259680000Y-127092000D03*
D14*
%TO.P,J3,2,Pin_2*%
%TO.N,/BIAS*%
X259680000Y-129632000D03*
%TO.P,J3,3,Pin_3*%
%TO.N,/1P*%
X259680000Y-132172000D03*
%TO.P,J3,4,Pin_4*%
%TO.N,/2P*%
X259680000Y-134712000D03*
%TO.P,J3,5,Pin_5*%
%TO.N,/3P*%
X259680000Y-137252000D03*
%TO.P,J3,6,Pin_6*%
%TO.N,/4P*%
X259680000Y-139792000D03*
%TO.P,J3,7,Pin_7*%
%TO.N,/5P*%
X259680000Y-142332000D03*
%TO.P,J3,8,Pin_8*%
%TO.N,/6P*%
X259680000Y-144872000D03*
%TO.P,J3,9,Pin_9*%
%TO.N,/7P*%
X259680000Y-147412000D03*
%TO.P,J3,10,Pin_10*%
%TO.N,/8P*%
X259680000Y-149952000D03*
%TO.P,J3,11,Pin_11*%
%TO.N,/SRB2*%
X259680000Y-152492000D03*
%TD*%
D24*
%TO.P,R22,1*%
%TO.N,Net-(U3-VBUS)*%
X195825224Y-134663654D03*
%TO.P,R22,2*%
%TO.N,GND*%
X197475224Y-134663654D03*
%TD*%
D26*
%TO.P,R4,1*%
%TO.N,/IN7P*%
X251693429Y-148094000D03*
%TO.P,R4,2*%
%TO.N,/IN7N*%
X251693429Y-148594000D03*
%TO.P,R4,3*%
%TO.N,/IN8P*%
X251693429Y-149094000D03*
%TO.P,R4,4*%
%TO.N,/IN8N*%
X251693429Y-149594000D03*
D27*
%TO.P,R4,5*%
%TO.N,/8N*%
X252853429Y-149594000D03*
%TO.P,R4,6*%
%TO.N,/8P*%
X252853429Y-149094000D03*
%TO.P,R4,7*%
%TO.N,/7N*%
X252853429Y-148594000D03*
%TO.P,R4,8*%
%TO.N,/7P*%
X252853429Y-148094000D03*
%TD*%
D11*
%TO.P,C42,1*%
%TO.N,/AVDD*%
X226901000Y-153924000D03*
%TO.P,C42,2*%
%TO.N,/AVSS*%
X228451000Y-153924000D03*
%TD*%
%TO.P,C38,1*%
%TO.N,/AVSS*%
X235445000Y-127000000D03*
%TO.P,C38,2*%
%TO.N,GNDA*%
X236995000Y-127000000D03*
%TD*%
%TO.P,C17,1*%
%TO.N,GND*%
X180529197Y-152300574D03*
%TO.P,C17,2*%
%TO.N,+3V3*%
X182079197Y-152300574D03*
%TD*%
%TO.P,C26,1*%
%TO.N,GND*%
X195821352Y-139371945D03*
%TO.P,C26,2*%
%TO.N,Net-(C25-Pad2)*%
X197371352Y-139371945D03*
%TD*%
D28*
%TO.P,D2,1*%
%TO.N,/3P*%
X264902000Y-137584000D03*
%TO.P,D2,2*%
%TO.N,/3N*%
X264252000Y-137584000D03*
%TO.P,D2,3*%
%TO.N,GNDA*%
X263602000Y-137584000D03*
%TO.P,D2,4*%
%TO.N,/4P*%
X263602000Y-139784000D03*
%TO.P,D2,5*%
%TO.N,/4N*%
X264252000Y-139784000D03*
%TO.P,D2,6,NC*%
%TO.N,unconnected-(D2-NC-Pad6)*%
X264902000Y-139784000D03*
%TD*%
D29*
%TO.P,U7,1,1*%
%TO.N,GNDA*%
X247488000Y-132404000D03*
%TO.P,U7,2,2*%
X247488000Y-133204001D03*
%TO.P,U7,3,3*%
X247488000Y-134003999D03*
%TO.P,U7,4,4*%
X247488000Y-134804000D03*
%TO.P,U7,5,5*%
%TO.N,/IN2N*%
X249520000Y-134804000D03*
%TO.P,U7,6,6*%
%TO.N,/IN2P*%
X249520000Y-134003999D03*
%TO.P,U7,7,7*%
%TO.N,/IN1N*%
X249520000Y-133204001D03*
%TO.P,U7,8,8*%
%TO.N,/IN1P*%
X249520000Y-132404000D03*
%TD*%
D30*
%TO.P,D9,1*%
%TO.N,GND*%
X205568004Y-145827584D03*
%TO.P,D9,2*%
%TO.N,/USB Port/USBtoUART/DN*%
X204248004Y-145827584D03*
%TD*%
D24*
%TO.P,R23,1*%
%TO.N,+3V3*%
X202183457Y-129136667D03*
%TO.P,R23,2*%
%TO.N,Net-(U3-~{RST})*%
X203833457Y-129136667D03*
%TD*%
D31*
%TO.P,C53,1*%
%TO.N,/AVSS*%
X238498500Y-152241000D03*
%TO.P,C53,2*%
%TO.N,GNDA*%
X238498500Y-153791000D03*
%TD*%
D30*
%TO.P,D7,1*%
%TO.N,GND*%
X208522706Y-144257929D03*
%TO.P,D7,2*%
%TO.N,Net-(C25-Pad2)*%
X207202706Y-144257929D03*
%TD*%
D24*
%TO.P,R24,1*%
%TO.N,Net-(U3-~{SUSPEND})*%
X205418672Y-129118620D03*
%TO.P,R24,2*%
%TO.N,GND*%
X207068672Y-129118620D03*
%TD*%
D11*
%TO.P,C33,1*%
%TO.N,Net-(U1-VREFN)*%
X232397000Y-127000000D03*
%TO.P,C33,2*%
%TO.N,Net-(U1-VREFP)*%
X233947000Y-127000000D03*
%TD*%
D32*
%TO.P,R28,1*%
%TO.N,/BIAS_DRV*%
X252377000Y-153924000D03*
%TO.P,R28,2*%
%TO.N,/BIASOUT*%
X250727000Y-153924000D03*
%TD*%
D33*
%TO.P,U4,1,GND*%
%TO.N,GNDA*%
X231530000Y-158486999D03*
%TO.P,U4,2,OUT*%
%TO.N,/ADS Power/-RAW*%
X231530000Y-159437000D03*
%TO.P,U4,3,CAP-*%
%TO.N,Net-(U4-CAP-)*%
X231530000Y-160386998D03*
%TO.P,U4,4,~{SD}*%
%TO.N,+3V3*%
X234280000Y-160386998D03*
%TO.P,U4,5,V+*%
X234280000Y-159437000D03*
%TO.P,U4,6,CAP+*%
%TO.N,Net-(U4-CAP+)*%
X234280000Y-158486999D03*
%TD*%
D11*
%TO.P,C21,1*%
%TO.N,Net-(U3-VBUS)*%
X199039790Y-132999870D03*
%TO.P,C21,2*%
%TO.N,GND*%
X200589790Y-132999870D03*
%TD*%
%TO.P,C24,1*%
%TO.N,+3V3*%
X205495824Y-133802845D03*
%TO.P,C24,2*%
%TO.N,GND*%
X207045824Y-133802845D03*
%TD*%
D31*
%TO.P,C52,1*%
%TO.N,/AVSS*%
X236466500Y-152241000D03*
%TO.P,C52,2*%
%TO.N,GNDA*%
X236466500Y-153791000D03*
%TD*%
D34*
%TO.P,R25,1*%
%TO.N,/USB Port/USBtoUART/RTS*%
X192498359Y-124130468D03*
%TO.P,R25,2*%
%TO.N,Net-(Q1-B)*%
X192498359Y-125780468D03*
%TD*%
D24*
%TO.P,R27,1*%
%TO.N,+3V3*%
X210503000Y-138976539D03*
%TO.P,R27,2*%
%TO.N,Net-(D11-A)*%
X212153000Y-138976539D03*
%TD*%
D15*
%TO.P,C37,1*%
%TO.N,/AVSS*%
X228867000Y-129032000D03*
%TO.P,C37,2*%
%TO.N,Net-(U1-VCAP2)*%
X227317000Y-129032000D03*
%TD*%
D29*
%TO.P,U8,1,1*%
%TO.N,GNDA*%
X247488000Y-137808000D03*
%TO.P,U8,2,2*%
X247488000Y-138608001D03*
%TO.P,U8,3,3*%
X247488000Y-139407999D03*
%TO.P,U8,4,4*%
X247488000Y-140208000D03*
%TO.P,U8,5,5*%
%TO.N,/IN4N*%
X249520000Y-140208000D03*
%TO.P,U8,6,6*%
%TO.N,/IN4P*%
X249520000Y-139407999D03*
%TO.P,U8,7,7*%
%TO.N,/IN3N*%
X249520000Y-138608001D03*
%TO.P,U8,8,8*%
%TO.N,/IN3P*%
X249520000Y-137808000D03*
%TD*%
D26*
%TO.P,R5,1*%
%TO.N,/INSRB1*%
X251693429Y-127533014D03*
%TO.P,R5,2*%
%TO.N,/INSRB2*%
X251693429Y-128033014D03*
%TO.P,R5,3*%
%TO.N,GNDA*%
X251693429Y-128533014D03*
%TO.P,R5,4*%
%TO.N,/BIAS_DRV*%
X251693429Y-129033014D03*
D27*
%TO.P,R5,5*%
%TO.N,/BIAS*%
X252853429Y-129033014D03*
%TO.P,R5,6*%
%TO.N,/AGND*%
X252853429Y-128533014D03*
%TO.P,R5,7*%
%TO.N,/SRB2*%
X252853429Y-128033014D03*
%TO.P,R5,8*%
%TO.N,/SRB1*%
X252853429Y-127533014D03*
%TD*%
D28*
%TO.P,D1,1*%
%TO.N,/1P*%
X264902000Y-133012000D03*
%TO.P,D1,2*%
%TO.N,/1N*%
X264252000Y-133012000D03*
%TO.P,D1,3*%
%TO.N,GNDA*%
X263602000Y-133012000D03*
%TO.P,D1,4*%
%TO.N,/2P*%
X263602000Y-135212000D03*
%TO.P,D1,5*%
%TO.N,/2N*%
X264252000Y-135212000D03*
%TO.P,D1,6,NC*%
%TO.N,unconnected-(D1-NC-Pad6)*%
X264902000Y-135212000D03*
%TD*%
D13*
%TO.P,J5,1,Pin_1*%
%TO.N,/AVSS*%
X255616000Y-156464000D03*
D14*
%TO.P,J5,2,Pin_2*%
X255616000Y-159004000D03*
%TD*%
D15*
%TO.P,C34,1*%
%TO.N,/AVSS*%
X227343000Y-125476000D03*
%TO.P,C34,2*%
%TO.N,Net-(U1-VCAP3)*%
X225793000Y-125476000D03*
%TD*%
D11*
%TO.P,C35,1*%
%TO.N,Net-(U1-VCAP3)*%
X225793000Y-127508000D03*
%TO.P,C35,2*%
%TO.N,/AVSS*%
X227343000Y-127508000D03*
%TD*%
D15*
%TO.P,C54,1*%
%TO.N,/AVDD*%
X241659000Y-154432000D03*
%TO.P,C54,2*%
%TO.N,GNDA*%
X240109000Y-154432000D03*
%TD*%
D11*
%TO.P,C41,1*%
%TO.N,/AVDD*%
X225911000Y-160020000D03*
%TO.P,C41,2*%
%TO.N,GNDA*%
X227461000Y-160020000D03*
%TD*%
%TO.P,C47,1*%
%TO.N,+3V3*%
X223104000Y-152400000D03*
%TO.P,C47,2*%
%TO.N,GNDA*%
X224654000Y-152400000D03*
%TD*%
D26*
%TO.P,R1,1*%
%TO.N,/IN3P*%
X251693429Y-138390858D03*
%TO.P,R1,2*%
%TO.N,/IN3N*%
X251693429Y-138890858D03*
%TO.P,R1,3*%
%TO.N,/IN4P*%
X251693429Y-139390858D03*
%TO.P,R1,4*%
%TO.N,/IN4N*%
X251693429Y-139890858D03*
D27*
%TO.P,R1,5*%
%TO.N,/4N*%
X252853429Y-139890858D03*
%TO.P,R1,6*%
%TO.N,/4P*%
X252853429Y-139390858D03*
%TO.P,R1,7*%
%TO.N,/3N*%
X252853429Y-138890858D03*
%TO.P,R1,8*%
%TO.N,/3P*%
X252853429Y-138390858D03*
%TD*%
D11*
%TO.P,C40,1*%
%TO.N,/AVDD*%
X226901000Y-151892000D03*
%TO.P,C40,2*%
%TO.N,/AVSS*%
X228451000Y-151892000D03*
%TD*%
D10*
%TO.P,C49,1*%
%TO.N,+3V3*%
X237836000Y-158763000D03*
%TO.P,C49,2*%
%TO.N,GNDA*%
X237836000Y-157213000D03*
%TD*%
D26*
%TO.P,R3,1*%
%TO.N,/IN5P*%
X251693429Y-143280000D03*
%TO.P,R3,2*%
%TO.N,/IN5N*%
X251693429Y-143780000D03*
%TO.P,R3,3*%
%TO.N,/IN6P*%
X251693429Y-144280000D03*
%TO.P,R3,4*%
%TO.N,/IN6N*%
X251693429Y-144780000D03*
D27*
%TO.P,R3,5*%
%TO.N,/6N*%
X252853429Y-144780000D03*
%TO.P,R3,6*%
%TO.N,/6P*%
X252853429Y-144280000D03*
%TO.P,R3,7*%
%TO.N,/5N*%
X252853429Y-143780000D03*
%TO.P,R3,8*%
%TO.N,/5P*%
X252853429Y-143280000D03*
%TD*%
D31*
%TO.P,C51,1*%
%TO.N,Net-(U6-NR)*%
X230370500Y-152241000D03*
%TO.P,C51,2*%
%TO.N,GNDA*%
X230370500Y-153791000D03*
%TD*%
D11*
%TO.P,C22,1*%
%TO.N,+3V3*%
X202350271Y-134053554D03*
%TO.P,C22,2*%
%TO.N,GND*%
X203900271Y-134053554D03*
%TD*%
D29*
%TO.P,U11,1,1*%
%TO.N,GNDA*%
X247488000Y-127324000D03*
%TO.P,U11,2,2*%
X247488000Y-128124001D03*
%TO.P,U11,3,3*%
X247488000Y-128923999D03*
%TO.P,U11,4,4*%
X247488000Y-129724000D03*
%TO.P,U11,5,5*%
%TO.N,/BIAS_DRV*%
X249520000Y-129724000D03*
%TO.P,U11,6,6*%
%TO.N,GNDA*%
X249520000Y-128923999D03*
%TO.P,U11,7,7*%
%TO.N,/INSRB2*%
X249520000Y-128124001D03*
%TO.P,U11,8,8*%
%TO.N,/INSRB1*%
X249520000Y-127324000D03*
%TD*%
D35*
%TO.P,U6,1,GND*%
%TO.N,GNDA*%
X232468500Y-154271000D03*
%TO.P,U6,2,IN*%
%TO.N,/ADS Power/-RAW*%
X233418500Y-154271000D03*
%TO.P,U6,3,EN*%
X234368500Y-154271000D03*
%TO.P,U6,4,NR*%
%TO.N,Net-(U6-NR)*%
X234368500Y-151761000D03*
%TO.P,U6,5,OUT*%
%TO.N,/AVSS*%
X232468500Y-151761000D03*
%TD*%
D13*
%TO.P,J6,1,Pin_1*%
%TO.N,/DIN*%
X218948000Y-143256000D03*
D14*
%TO.P,J6,2,Pin_2*%
%TO.N,/DOUT*%
X218948000Y-145796000D03*
%TO.P,J6,3,Pin_3*%
%TO.N,+3V3*%
X218948000Y-148336000D03*
%TO.P,J6,4,Pin_4*%
%TO.N,/GPIO1*%
X218948000Y-150876000D03*
%TO.P,J6,5,Pin_5*%
%TO.N,/CS*%
X218948000Y-153416000D03*
%TO.P,J6,6,Pin_6*%
%TO.N,GND*%
X218948000Y-155956000D03*
%TO.P,J6,7,Pin_7*%
%TO.N,/DRDY*%
X218948000Y-158496000D03*
%TD*%
D15*
%TO.P,C55,1*%
%TO.N,/AVDD*%
X241659000Y-152400000D03*
%TO.P,C55,2*%
%TO.N,GNDA*%
X240109000Y-152400000D03*
%TD*%
D28*
%TO.P,D6,1*%
%TO.N,/AGND*%
X264902000Y-128440000D03*
%TO.P,D6,2*%
%TO.N,/BIAS*%
X264252000Y-128440000D03*
%TO.P,D6,3*%
%TO.N,GNDA*%
X263602000Y-128440000D03*
%TO.P,D6,4*%
%TO.N,unconnected-(D6-Pad4)*%
X263602000Y-130640000D03*
%TO.P,D6,5*%
%TO.N,unconnected-(D6-Pad5)*%
X264252000Y-130640000D03*
%TO.P,D6,6,NC*%
%TO.N,unconnected-(D6-NC-Pad6)*%
X264902000Y-130640000D03*
%TD*%
%TO.P,D5,1*%
%TO.N,/SRB1*%
X264902000Y-151808000D03*
%TO.P,D5,2*%
%TO.N,/SRB2*%
X264252000Y-151808000D03*
%TO.P,D5,3*%
%TO.N,GNDA*%
X263602000Y-151808000D03*
%TO.P,D5,4*%
%TO.N,/AVSS*%
X263602000Y-154008000D03*
%TO.P,D5,5*%
%TO.N,/AVDD*%
X264252000Y-154008000D03*
%TO.P,D5,6,NC*%
%TO.N,unconnected-(D5-NC-Pad6)*%
X264902000Y-154008000D03*
%TD*%
D29*
%TO.P,U9,1,1*%
%TO.N,GNDA*%
X247488000Y-142862986D03*
%TO.P,U9,2,2*%
X247488000Y-143662987D03*
%TO.P,U9,3,3*%
X247488000Y-144462985D03*
%TO.P,U9,4,4*%
X247488000Y-145262986D03*
%TO.P,U9,5,5*%
%TO.N,/IN6N*%
X249520000Y-145262986D03*
%TO.P,U9,6,6*%
%TO.N,/IN6P*%
X249520000Y-144462985D03*
%TO.P,U9,7,7*%
%TO.N,/IN5N*%
X249520000Y-143662987D03*
%TO.P,U9,8,8*%
%TO.N,/IN5P*%
X249520000Y-142862986D03*
%TD*%
D30*
%TO.P,D8,1*%
%TO.N,GND*%
X205573606Y-147391756D03*
%TO.P,D8,2*%
%TO.N,/USB Port/USBtoUART/DP*%
X204253606Y-147391756D03*
%TD*%
D29*
%TO.P,U10,1,1*%
%TO.N,GNDA*%
X247488000Y-147800985D03*
%TO.P,U10,2,2*%
X247488000Y-148600986D03*
%TO.P,U10,3,3*%
X247488000Y-149400984D03*
%TO.P,U10,4,4*%
X247488000Y-150200985D03*
%TO.P,U10,5,5*%
%TO.N,/IN8N*%
X249520000Y-150200985D03*
%TO.P,U10,6,6*%
%TO.N,/IN8P*%
X249520000Y-149400984D03*
%TO.P,U10,7,7*%
%TO.N,/IN7N*%
X249520000Y-148600986D03*
%TO.P,U10,8,8*%
%TO.N,/IN7P*%
X249520000Y-147800985D03*
%TD*%
D11*
%TO.P,C36,1*%
%TO.N,/AVSS*%
X228841000Y-127508000D03*
%TO.P,C36,2*%
%TO.N,Net-(U1-VCAP4)*%
X230391000Y-127508000D03*
%TD*%
D28*
%TO.P,D3,1*%
%TO.N,/5N*%
X264902000Y-142664000D03*
%TO.P,D3,2*%
%TO.N,/5P*%
X264252000Y-142664000D03*
%TO.P,D3,3*%
%TO.N,GNDA*%
X263602000Y-142664000D03*
%TO.P,D3,4*%
%TO.N,/6N*%
X263602000Y-144864000D03*
%TO.P,D3,5*%
%TO.N,/6P*%
X264252000Y-144864000D03*
%TO.P,D3,6,NC*%
%TO.N,unconnected-(D3-NC-Pad6)*%
X264902000Y-144864000D03*
%TD*%
D26*
%TO.P,R2,1*%
%TO.N,/IN1P*%
X251693429Y-132730311D03*
%TO.P,R2,2*%
%TO.N,/IN1N*%
X251693429Y-133230311D03*
%TO.P,R2,3*%
%TO.N,/IN2P*%
X251693429Y-133730311D03*
%TO.P,R2,4*%
%TO.N,/IN2N*%
X251693429Y-134230311D03*
D27*
%TO.P,R2,5*%
%TO.N,/2N*%
X252853429Y-134230311D03*
%TO.P,R2,6*%
%TO.N,/2P*%
X252853429Y-133730311D03*
%TO.P,R2,7*%
%TO.N,/1N*%
X252853429Y-133230311D03*
%TO.P,R2,8*%
%TO.N,/1P*%
X252853429Y-132730311D03*
%TD*%
D11*
%TO.P,C20,1*%
%TO.N,/AVSS*%
X235445000Y-129032000D03*
%TO.P,C20,2*%
%TO.N,GNDA*%
X236995000Y-129032000D03*
%TD*%
%TO.P,C25,1*%
%TO.N,GND*%
X195766473Y-137601750D03*
%TO.P,C25,2*%
%TO.N,Net-(C25-Pad2)*%
X197316473Y-137601750D03*
%TD*%
D13*
%TO.P,J4,1,Pin_1*%
%TO.N,/AVDD*%
X259680000Y-156464000D03*
D14*
%TO.P,J4,2,Pin_2*%
X259680000Y-159004000D03*
%TD*%
D36*
%TO.P,U3,1,DCD*%
%TO.N,unconnected-(U3-DCD-Pad1)*%
X196601400Y-129956674D03*
%TO.P,U3,2,RI/CLK*%
%TO.N,unconnected-(U3-RI{slash}CLK-Pad2)*%
X197101400Y-129956674D03*
%TO.P,U3,3,GND*%
%TO.N,GND*%
X197601400Y-129956674D03*
%TO.P,U3,4,D+*%
%TO.N,/USB Port/USBtoUART/DP*%
X198101400Y-129956674D03*
%TO.P,U3,5,D-*%
%TO.N,/USB Port/USBtoUART/DN*%
X198601400Y-129956674D03*
%TO.P,U3,6,VDD*%
%TO.N,+3V3*%
X199101400Y-129956674D03*
%TO.P,U3,7,VREGIN*%
X199601400Y-129956674D03*
D37*
%TO.P,U3,8,VBUS*%
%TO.N,Net-(U3-VBUS)*%
X200501400Y-129056674D03*
%TO.P,U3,9,~{RST}*%
%TO.N,Net-(U3-~{RST})*%
X200501400Y-128556674D03*
%TO.P,U3,10,NC*%
%TO.N,unconnected-(U3-NC-Pad10)*%
X200501400Y-128056674D03*
%TO.P,U3,11,~{SUSPEND}*%
%TO.N,Net-(U3-~{SUSPEND})*%
X200501400Y-127556674D03*
%TO.P,U3,12,SUSPEND*%
%TO.N,unconnected-(U3-SUSPEND-Pad12)*%
X200501400Y-127056674D03*
%TO.P,U3,13,CHREN*%
%TO.N,unconnected-(U3-CHREN-Pad13)*%
X200501400Y-126556674D03*
%TO.P,U3,14,CHR1*%
%TO.N,unconnected-(U3-CHR1-Pad14)*%
X200501400Y-126056674D03*
D38*
%TO.P,U3,15,CHR0*%
%TO.N,unconnected-(U3-CHR0-Pad15)*%
X199601400Y-125156674D03*
%TO.P,U3,16,GPIO3_WAKEUP*%
%TO.N,unconnected-(U3-GPIO3_WAKEUP-Pad16)*%
X199101400Y-125156674D03*
%TO.P,U3,17,GPIO2_RS485*%
%TO.N,unconnected-(U3-GPIO2_RS485-Pad17)*%
X198601400Y-125156674D03*
%TO.P,U3,18,GPIO1_RXT*%
%TO.N,unconnected-(U3-GPIO1_RXT-Pad18)*%
X198101400Y-125156674D03*
%TO.P,U3,19,GPIO0_TXT*%
%TO.N,unconnected-(U3-GPIO0_TXT-Pad19)*%
X197601400Y-125156674D03*
%TO.P,U3,20,GPIO6*%
%TO.N,unconnected-(U3-GPIO6-Pad20)*%
X197101400Y-125156674D03*
%TO.P,U3,21,GPIO5*%
%TO.N,unconnected-(U3-GPIO5-Pad21)*%
X196601400Y-125156674D03*
D39*
%TO.P,U3,22,GPIO4*%
%TO.N,unconnected-(U3-GPIO4-Pad22)*%
X195701400Y-126056674D03*
%TO.P,U3,23,CTS*%
%TO.N,unconnected-(U3-CTS-Pad23)*%
X195701400Y-126556674D03*
%TO.P,U3,24,RTS*%
%TO.N,/USB Port/USBtoUART/RTS*%
X195701400Y-127056674D03*
%TO.P,U3,25,RXD*%
%TO.N,/U0TXD*%
X195701400Y-127556674D03*
%TO.P,U3,26,TXD*%
%TO.N,/U0RXD*%
X195701400Y-128056674D03*
%TO.P,U3,27,DSR*%
%TO.N,unconnected-(U3-DSR-Pad27)*%
X195701400Y-128556674D03*
%TO.P,U3,28,DTR*%
%TO.N,/USB Port/USBtoUART/DTR*%
X195701400Y-129056674D03*
D40*
%TO.P,U3,29,EXP*%
%TO.N,GND*%
X198101400Y-127556674D03*
%TD*%
D11*
%TO.P,C18,1*%
%TO.N,GND*%
X183762303Y-152292690D03*
%TO.P,C18,2*%
%TO.N,+3V3*%
X185312303Y-152292690D03*
%TD*%
D41*
%TO.P,U2,1,GND*%
%TO.N,GND*%
X180453741Y-150216374D03*
%TO.P,U2,2,GND*%
X181303741Y-150216374D03*
%TO.P,U2,3,3V3*%
%TO.N,+3V3*%
X182153741Y-150216374D03*
%TO.P,U2,4,GPIO0/BOOT*%
%TO.N,/GPIO0*%
X183003741Y-150216374D03*
%TO.P,U2,5,GPIO1/ADC1_CH0*%
%TO.N,/GPIO1*%
X183853741Y-150216374D03*
%TO.P,U2,6,GPIO2/ADC1_CH1*%
%TO.N,unconnected-(U2-GPIO2{slash}ADC1_CH1-Pad6)*%
X184703741Y-150216374D03*
%TO.P,U2,7,GPIO3/ADC1_CH2*%
%TO.N,unconnected-(U2-GPIO3{slash}ADC1_CH2-Pad7)*%
X185553741Y-150216374D03*
%TO.P,U2,8,GPIO4/ADC1_CH3*%
%TO.N,unconnected-(U2-GPIO4{slash}ADC1_CH3-Pad8)*%
X186403741Y-150216374D03*
%TO.P,U2,9,GPIO5/ADC1_CH4*%
%TO.N,unconnected-(U2-GPIO5{slash}ADC1_CH4-Pad9)*%
X187253741Y-150216374D03*
%TO.P,U2,10,GPIO6/ADC1_CH5*%
%TO.N,unconnected-(U2-GPIO6{slash}ADC1_CH5-Pad10)*%
X188103741Y-150216374D03*
%TO.P,U2,11,GPIO7/ADC1_CH6*%
%TO.N,unconnected-(U2-GPIO7{slash}ADC1_CH6-Pad11)*%
X188953741Y-150216374D03*
%TO.P,U2,12,GPIO8/ADC1_CH7*%
%TO.N,unconnected-(U2-GPIO8{slash}ADC1_CH7-Pad12)*%
X189803741Y-150216374D03*
%TO.P,U2,13,GPIO9/ADC1_CH8*%
%TO.N,unconnected-(U2-GPIO9{slash}ADC1_CH8-Pad13)*%
X190653741Y-150216374D03*
%TO.P,U2,14,GPIO10/ADC1_CH9*%
%TO.N,unconnected-(U2-GPIO10{slash}ADC1_CH9-Pad14)*%
X191503741Y-150216374D03*
%TO.P,U2,15,GPIO11/ADC2_CH0*%
%TO.N,unconnected-(U2-GPIO11{slash}ADC2_CH0-Pad15)*%
X192353741Y-150216374D03*
D42*
%TO.P,U2,16,GPIO12/ADC2_CH1*%
%TO.N,unconnected-(U2-GPIO12{slash}ADC2_CH1-Pad16)*%
X193403741Y-149166374D03*
%TO.P,U2,17,GPIO13/ADC2_CH2*%
%TO.N,unconnected-(U2-GPIO13{slash}ADC2_CH2-Pad17)*%
X193403741Y-148316374D03*
%TO.P,U2,18,GPIO14/ADC2_CH3*%
%TO.N,unconnected-(U2-GPIO14{slash}ADC2_CH3-Pad18)*%
X193403741Y-147466374D03*
%TO.P,U2,19,GPIO15/ADC2_CH4/XTAL_32K_P*%
%TO.N,unconnected-(U2-GPIO15{slash}ADC2_CH4{slash}XTAL_32K_P-Pad19)*%
X193403741Y-146616374D03*
%TO.P,U2,20,GPIO16/ADC2_CH5/XTAL_32K_N*%
%TO.N,unconnected-(U2-GPIO16{slash}ADC2_CH5{slash}XTAL_32K_N-Pad20)*%
X193403741Y-145766374D03*
%TO.P,U2,21,ADC2_CH7/DAC_2/GPIO17*%
%TO.N,unconnected-(U2-ADC2_CH7{slash}DAC_2{slash}GPIO17-Pad21)*%
X193403741Y-144916374D03*
%TO.P,U2,22,ADC2_CH6/DAC_1/GPIO18*%
%TO.N,unconnected-(U2-ADC2_CH6{slash}DAC_1{slash}GPIO18-Pad22)*%
X193403741Y-144066374D03*
%TO.P,U2,23,USB_D-/ADC2_CH8/GPIO19*%
%TO.N,unconnected-(U2-USB_D-{slash}ADC2_CH8{slash}GPIO19-Pad23)*%
X193403741Y-143216374D03*
%TO.P,U2,24,USB_D+/ADC2_CH9/GPIO20*%
%TO.N,unconnected-(U2-USB_D+{slash}ADC2_CH9{slash}GPIO20-Pad24)*%
X193403741Y-142366374D03*
%TO.P,U2,25,GPIO21*%
%TO.N,unconnected-(U2-GPIO21-Pad25)*%
X193403741Y-141516374D03*
%TO.P,U2,26,SPI_CS1/GPIO26*%
%TO.N,/CS*%
X193403741Y-140666374D03*
%TO.P,U2,27,NC*%
%TO.N,unconnected-(U2-NC-Pad27)*%
X193403741Y-139816374D03*
%TO.P,U2,28,GPIO33*%
%TO.N,unconnected-(U2-GPIO33-Pad28)*%
X193403741Y-138966374D03*
%TO.P,U2,29,GPIO34*%
%TO.N,unconnected-(U2-GPIO34-Pad29)*%
X193403741Y-138116374D03*
%TO.P,U2,30,GND*%
%TO.N,GND*%
X193403741Y-137266374D03*
D41*
%TO.P,U2,31,GPIO35*%
%TO.N,unconnected-(U2-GPIO35-Pad31)*%
X192353741Y-136216374D03*
%TO.P,U2,32,GPIO36*%
%TO.N,unconnected-(U2-GPIO36-Pad32)*%
X191503741Y-136216374D03*
%TO.P,U2,33,GPIO37*%
%TO.N,/DOUT*%
X190653741Y-136216374D03*
%TO.P,U2,34,GPIO38*%
%TO.N,/DIN*%
X189803741Y-136216374D03*
%TO.P,U2,35,MTCK/JTAG/GPIO39*%
%TO.N,unconnected-(U2-MTCK{slash}JTAG{slash}GPIO39-Pad35)*%
X188953741Y-136216374D03*
%TO.P,U2,36,MTDO/JTAG/GPIO40*%
%TO.N,unconnected-(U2-MTDO{slash}JTAG{slash}GPIO40-Pad36)*%
X188103741Y-136216374D03*
%TO.P,U2,37,MTDI/JTAG/GPIO41*%
%TO.N,unconnected-(U2-MTDI{slash}JTAG{slash}GPIO41-Pad37)*%
X187253741Y-136216374D03*
%TO.P,U2,38,MTMS/JTAG/GPIO42*%
%TO.N,unconnected-(U2-MTMS{slash}JTAG{slash}GPIO42-Pad38)*%
X186403741Y-136216374D03*
%TO.P,U2,39,GPIO43/U0TXD/PROG*%
%TO.N,/U0TXD*%
X185553741Y-136216374D03*
%TO.P,U2,40,GPIO44/U0RXD/PROG*%
%TO.N,/U0RXD*%
X184703741Y-136216374D03*
%TO.P,U2,41,GPIO45*%
%TO.N,/DRDY*%
X183853741Y-136216374D03*
%TO.P,U2,42,GND*%
%TO.N,GND*%
X183003741Y-136216374D03*
%TO.P,U2,43,GND*%
X182153741Y-136216374D03*
%TO.P,U2,44,GPIO46*%
%TO.N,unconnected-(U2-GPIO46-Pad44)*%
X181303741Y-136216374D03*
%TO.P,U2,45,CHIP/PU/RESET*%
%TO.N,/EN*%
X180453741Y-136216374D03*
D42*
%TO.P,U2,46,GND*%
%TO.N,GND*%
X179403741Y-137266374D03*
%TO.P,U2,47,GND*%
X179403741Y-138116374D03*
%TO.P,U2,48,GND*%
X179403741Y-138966374D03*
%TO.P,U2,49,GND*%
X179403741Y-139816374D03*
%TO.P,U2,50,GND*%
X179403741Y-140666374D03*
%TO.P,U2,51,GND*%
X179403741Y-141516374D03*
%TO.P,U2,52,GND*%
X179403741Y-142366374D03*
%TO.P,U2,53,GND*%
X179403741Y-143216374D03*
%TO.P,U2,54,GND*%
X179403741Y-144066374D03*
%TO.P,U2,55,GND*%
X179403741Y-144916374D03*
%TO.P,U2,56,GND*%
X179403741Y-145766374D03*
%TO.P,U2,57,GND*%
X179403741Y-146616374D03*
%TO.P,U2,58,GND*%
X179403741Y-147466374D03*
%TO.P,U2,59,GND*%
X179403741Y-148316374D03*
%TO.P,U2,60,GND*%
X179403741Y-149166374D03*
D43*
%TO.P,U2,61,GND*%
X184753741Y-144866374D03*
D44*
X186403741Y-144866374D03*
X188053741Y-144866374D03*
X184753741Y-143216374D03*
X186403741Y-143216374D03*
X188053741Y-143216374D03*
X184753741Y-141566374D03*
X186403741Y-141566374D03*
X188053741Y-141566374D03*
D45*
%TO.P,U2,62,GND*%
X179403741Y-150216374D03*
%TO.P,U2,63,GND*%
X193403741Y-150216374D03*
%TO.P,U2,64,GND*%
X193403741Y-136216374D03*
%TO.P,U2,65,GND*%
X179403741Y-136216374D03*
%TD*%
D46*
%TO.P,U5,1,IN*%
%TO.N,+3V3*%
X240137000Y-156530000D03*
%TO.P,U5,2,GND*%
%TO.N,GNDA*%
X240137000Y-157480000D03*
%TO.P,U5,3,EN*%
%TO.N,+3V3*%
X240137000Y-158430000D03*
%TO.P,U5,4,NC*%
%TO.N,unconnected-(U5-NC-Pad4)*%
X242647000Y-158430000D03*
%TO.P,U5,5,OUT*%
%TO.N,/AVDD*%
X242647000Y-156530000D03*
%TD*%
D47*
%TO.P,IC1,1,GND*%
%TO.N,GND*%
X202630324Y-139682361D03*
D48*
%TO.P,IC1,2,VIN*%
%TO.N,Net-(C25-Pad2)*%
X202884324Y-141181361D03*
D49*
%TO.P,IC1,2@1,VIN*%
X205551324Y-141181361D03*
D47*
%TO.P,IC1,3,VOUT*%
%TO.N,+3V3*%
X202630324Y-142680361D03*
%TD*%
D15*
%TO.P,C50,1*%
%TO.N,/ADS Power/-RAW*%
X233177500Y-156064000D03*
%TO.P,C50,2*%
%TO.N,GNDA*%
X231627500Y-156064000D03*
%TD*%
D11*
%TO.P,C43,1*%
%TO.N,+3V3*%
X223104000Y-153924000D03*
%TO.P,C43,2*%
%TO.N,GNDA*%
X224654000Y-153924000D03*
%TD*%
D28*
%TO.P,D4,1*%
%TO.N,/7N*%
X264902000Y-147236000D03*
%TO.P,D4,2*%
%TO.N,/7P*%
X264252000Y-147236000D03*
%TO.P,D4,3*%
%TO.N,GNDA*%
X263602000Y-147236000D03*
%TO.P,D4,4*%
%TO.N,/8N*%
X263602000Y-149436000D03*
%TO.P,D4,5*%
%TO.N,/8P*%
X264252000Y-149436000D03*
%TO.P,D4,6,NC*%
%TO.N,unconnected-(D4-NC-Pad6)*%
X264902000Y-149436000D03*
%TD*%
D11*
%TO.P,C19,1*%
%TO.N,Net-(U1-VCAP1)*%
X230365000Y-129032000D03*
%TO.P,C19,2*%
%TO.N,/AVSS*%
X231915000Y-129032000D03*
%TD*%
D50*
%TO.P,U1,1,IN8N*%
%TO.N,/IN8N*%
X238344000Y-143708000D03*
%TO.P,U1,2,IN8P*%
%TO.N,/IN8P*%
X238344000Y-143208000D03*
%TO.P,U1,3,IN7N*%
%TO.N,/IN7N*%
X238344000Y-142708000D03*
%TO.P,U1,4,IN7P*%
%TO.N,/IN7P*%
X238344000Y-142208000D03*
%TO.P,U1,5,IN6N*%
%TO.N,/IN6N*%
X238344000Y-141708000D03*
%TO.P,U1,6,IN6P*%
%TO.N,/IN6P*%
X238344000Y-141208000D03*
%TO.P,U1,7,IN5N*%
%TO.N,/IN5N*%
X238344000Y-140708000D03*
%TO.P,U1,8,IN5P*%
%TO.N,/IN5P*%
X238344000Y-140208000D03*
%TO.P,U1,9,IN4N*%
%TO.N,/IN4N*%
X238344000Y-139708000D03*
%TO.P,U1,10,IN4P*%
%TO.N,/IN4P*%
X238344000Y-139208000D03*
%TO.P,U1,11,IN3N*%
%TO.N,/IN3N*%
X238344000Y-138708000D03*
%TO.P,U1,12,IN3P*%
%TO.N,/IN3P*%
X238344000Y-138208000D03*
%TO.P,U1,13,IN2N*%
%TO.N,/IN2N*%
X238344000Y-137708000D03*
%TO.P,U1,14,IN2P*%
%TO.N,/IN2P*%
X238344000Y-137208000D03*
%TO.P,U1,15,IN1N*%
%TO.N,/IN1N*%
X238344000Y-136708000D03*
%TO.P,U1,16,IN1P*%
%TO.N,/IN1P*%
X238344000Y-136208000D03*
D51*
%TO.P,U1,17,SRB1*%
%TO.N,/INSRB1*%
X236414000Y-134278000D03*
%TO.P,U1,18,SRB2*%
%TO.N,/INSRB2*%
X235914000Y-134278000D03*
%TO.P,U1,19,AVDD@1*%
%TO.N,/AVDD*%
X235414000Y-134278000D03*
%TO.P,U1,20,AVSS@1*%
%TO.N,/AVSS*%
X234914000Y-134278000D03*
%TO.P,U1,21,AVDD@1*%
%TO.N,/AVDD*%
X234414000Y-134278000D03*
%TO.P,U1,22,AVDD@1*%
X233914000Y-134278000D03*
%TO.P,U1,23,AVSS@1*%
%TO.N,/AVSS*%
X233414000Y-134278000D03*
%TO.P,U1,24,VREFP*%
%TO.N,Net-(U1-VREFP)*%
X232914000Y-134278000D03*
%TO.P,U1,25,VREFN*%
%TO.N,Net-(U1-VREFN)*%
X232414000Y-134278000D03*
%TO.P,U1,26,VCAP4*%
%TO.N,Net-(U1-VCAP4)*%
X231914000Y-134278000D03*
%TO.P,U1,27*%
%TO.N,N/C*%
X231414000Y-134278000D03*
%TO.P,U1,28,VCAP1*%
%TO.N,Net-(U1-VCAP1)*%
X230914000Y-134278000D03*
%TO.P,U1,29*%
%TO.N,N/C*%
X230414000Y-134278000D03*
%TO.P,U1,30,VCAP2*%
%TO.N,Net-(U1-VCAP2)*%
X229914000Y-134278000D03*
%TO.P,U1,31,RESV1*%
%TO.N,GND*%
X229414000Y-134278000D03*
%TO.P,U1,32,AVSS@1*%
%TO.N,/AVSS*%
X228914000Y-134278000D03*
D50*
%TO.P,U1,33,DGND*%
%TO.N,GND*%
X226984000Y-136208000D03*
%TO.P,U1,34,DIN*%
%TO.N,/DIN*%
X226984000Y-136708000D03*
%TO.P,U1,35,~{PWDN}*%
%TO.N,+3V3*%
X226984000Y-137208000D03*
%TO.P,U1,36,~{RESET}*%
%TO.N,/GPIO1*%
X226984000Y-137708000D03*
%TO.P,U1,37,CLK*%
%TO.N,unconnected-(U1-CLK-Pad37)*%
X226984000Y-138208000D03*
%TO.P,U1,38,START*%
%TO.N,unconnected-(U1-START-Pad38)*%
X226984000Y-138708000D03*
%TO.P,U1,39,~{CS}*%
%TO.N,/CS*%
X226984000Y-139208000D03*
%TO.P,U1,40,SCLK*%
%TO.N,unconnected-(U1-SCLK-Pad40)*%
X226984000Y-139708000D03*
%TO.P,U1,41,DAISY_IN*%
%TO.N,GND*%
X226984000Y-140208000D03*
%TO.P,U1,42,GPIO1*%
%TO.N,unconnected-(U1-GPIO1-Pad42)*%
X226984000Y-140708000D03*
%TO.P,U1,43,DOUT*%
%TO.N,/DOUT*%
X226984000Y-141208000D03*
%TO.P,U1,44,GPIO2*%
%TO.N,unconnected-(U1-GPIO2-Pad44)*%
X226984000Y-141708000D03*
%TO.P,U1,45,GPIO3*%
%TO.N,unconnected-(U1-GPIO3-Pad45)*%
X226984000Y-142208000D03*
%TO.P,U1,46,GPIO4*%
%TO.N,unconnected-(U1-GPIO4-Pad46)*%
X226984000Y-142708000D03*
%TO.P,U1,47,~{DRDY}*%
%TO.N,/DRDY*%
X226984000Y-143208000D03*
%TO.P,U1,48,DVDD*%
%TO.N,+3V3*%
X226984000Y-143708000D03*
D51*
%TO.P,U1,49,DGND*%
%TO.N,GND*%
X228914000Y-145638000D03*
%TO.P,U1,50,DVDD*%
%TO.N,+3V3*%
X229414000Y-145638000D03*
%TO.P,U1,51,DGND*%
%TO.N,GND*%
X229914000Y-145638000D03*
%TO.P,U1,52,CLKSEL*%
%TO.N,+3V3*%
X230414000Y-145638000D03*
%TO.P,U1,53,AVSS1*%
%TO.N,/AVSS*%
X230914000Y-145638000D03*
%TO.P,U1,54,AVDD1*%
%TO.N,/AVDD*%
X231414000Y-145638000D03*
%TO.P,U1,55,VCAP3*%
%TO.N,Net-(U1-VCAP3)*%
X231914000Y-145638000D03*
%TO.P,U1,56,AVDD@1*%
%TO.N,/AVDD*%
X232414000Y-145638000D03*
%TO.P,U1,57,AVSS@1*%
%TO.N,/AVSS*%
X232914000Y-145638000D03*
%TO.P,U1,58,AVSS@2*%
X233414000Y-145638000D03*
%TO.P,U1,59,AVDD@2*%
%TO.N,/AVDD*%
X233914000Y-145638000D03*
%TO.P,U1,60,BIASREF*%
%TO.N,/AVSS*%
X234414000Y-145638000D03*
%TO.P,U1,61,BIASINV*%
%TO.N,unconnected-(U1-BIASINV-Pad61)*%
X234914000Y-145638000D03*
%TO.P,U1,62,BIASIN*%
%TO.N,/BIASOUT*%
X235414000Y-145638000D03*
%TO.P,U1,63,BIASOUT*%
X235914000Y-145638000D03*
%TO.P,U1,64,RESERVED*%
%TO.N,unconnected-(U1-RESERVED-Pad64)*%
X236414000Y-145638000D03*
%TD*%
D52*
%TO.P,D10,A*%
%TO.N,VBUS*%
X199893741Y-142326374D03*
%TO.P,D10,C*%
%TO.N,Net-(C25-Pad2)*%
X196533741Y-142326374D03*
%TD*%
D53*
%TO.P,C56,1*%
%TO.N,/BIASOUT*%
X251044000Y-152400000D03*
%TO.P,C56,2*%
%TO.N,/BIAS_DRV*%
X252004000Y-152400000D03*
%TD*%
D11*
%TO.P,C39,1*%
%TO.N,/AVDD*%
X225911000Y-157540000D03*
%TO.P,C39,2*%
%TO.N,GNDA*%
X227461000Y-157540000D03*
%TD*%
%TO.P,C48,1*%
%TO.N,/AVDD*%
X222596000Y-157480000D03*
%TO.P,C48,2*%
%TO.N,GNDA*%
X224146000Y-157480000D03*
%TD*%
D10*
%TO.P,C45,1*%
%TO.N,Net-(U4-CAP+)*%
X229708000Y-162177998D03*
%TO.P,C45,2*%
%TO.N,Net-(U4-CAP-)*%
X229708000Y-160627998D03*
%TD*%
D25*
%TO.P,Q2,1,B*%
%TO.N,Net-(Q2-B)*%
X188405761Y-128676374D03*
%TO.P,Q2,2,E*%
%TO.N,/USB Port/USBtoUART/RTS*%
X188405761Y-130576374D03*
%TO.P,Q2,3,C*%
%TO.N,/EN*%
X190280761Y-129626374D03*
%TD*%
D11*
%TO.P,C27,1*%
%TO.N,+3V3*%
X205509296Y-135476335D03*
%TO.P,C27,2*%
%TO.N,GND*%
X207059296Y-135476335D03*
%TD*%
D54*
%TO.N,GNDA*%
X246471999Y-139030001D03*
X246472000Y-148844000D03*
X262220000Y-132588000D03*
X225911000Y-154940000D03*
X246472000Y-133604000D03*
X246488690Y-144070842D03*
X229975000Y-154940000D03*
X224895000Y-156972000D03*
X262220000Y-129540000D03*
X262220000Y-147320000D03*
X262220000Y-151892000D03*
X262220000Y-142240000D03*
X246472000Y-128524000D03*
X240135000Y-151384000D03*
X262220000Y-137160000D03*
X224895000Y-155291500D03*
X238852000Y-125984000D03*
%TO.N,/IN8P*%
X237644500Y-145796000D03*
X248504000Y-149352000D03*
%TO.N,/IN7N*%
X245764190Y-146856308D03*
X236728000Y-142748000D03*
%TO.N,/INSRB1*%
X239268000Y-127000000D03*
X238760000Y-131064000D03*
%TO.N,/BIAS_DRV*%
X252060000Y-151384000D03*
X251044000Y-131064000D03*
%TO.N,+3V3*%
X201220838Y-131623757D03*
X220984299Y-157484299D03*
X222212500Y-144996500D03*
X199776900Y-130968700D03*
X223520000Y-155448000D03*
X233555500Y-150216500D03*
X236071000Y-155956000D03*
X219972953Y-146820953D03*
X220980000Y-141224000D03*
X223012000Y-137802378D03*
X239119000Y-155448000D03*
X203149239Y-142470876D03*
X206533217Y-136500256D03*
X193133741Y-152486374D03*
%TO.N,GND*%
X228689500Y-140208000D03*
X200753741Y-134706374D03*
X226456230Y-135331769D03*
X224946851Y-143296550D03*
X196538272Y-131555982D03*
X195770852Y-139786374D03*
X208373741Y-137246374D03*
X228092000Y-134112000D03*
X210523973Y-141224000D03*
X205833741Y-137246374D03*
X224053436Y-140215533D03*
X227676000Y-145796000D03*
X195138680Y-136295155D03*
X230216000Y-143764000D03*
%TO.N,/DIN*%
X207905473Y-131572000D03*
X190633473Y-134112000D03*
X209354973Y-131572000D03*
X225081484Y-136362902D03*
%TO.N,/CS*%
X223893966Y-139166473D03*
X199233310Y-147791837D03*
X202765350Y-143839985D03*
X222504000Y-141224000D03*
X220980000Y-151892000D03*
X192157473Y-148844000D03*
%TO.N,/DOUT*%
X184029473Y-132588000D03*
X191649473Y-134620000D03*
X188093473Y-132080000D03*
X224028000Y-142748000D03*
X225238102Y-141537898D03*
%TO.N,/DRDY*%
X223520000Y-141224000D03*
X185553473Y-133096000D03*
X199312451Y-137668000D03*
X210445473Y-136652000D03*
X213412951Y-140424500D03*
X196682322Y-135713616D03*
%TO.N,/AVDD*%
X233264000Y-143256000D03*
X233772000Y-136144000D03*
X231189500Y-143256000D03*
X241659000Y-157480000D03*
X227943000Y-155448000D03*
X233264000Y-147320000D03*
%TO.N,/1N*%
X254516205Y-133687795D03*
%TO.N,/2N*%
X254008205Y-135719795D03*
%TO.N,/3N*%
X253813293Y-138875500D03*
%TO.N,/4N*%
X253885423Y-140922577D03*
%TO.N,/5N*%
X254092000Y-143979500D03*
%TO.N,/6N*%
X254008205Y-145879795D03*
%TO.N,/7N*%
X253851378Y-148576622D03*
%TO.N,/8N*%
X253076000Y-150368000D03*
%TO.N,/SRB1*%
X253584000Y-126492000D03*
X257140000Y-152400000D03*
%TO.N,/SRB2*%
X258156000Y-128524000D03*
X258156000Y-152400000D03*
%TO.N,/AGND*%
X254290755Y-127198755D03*
X254092000Y-129032000D03*
%TO.N,/USB Port/USBtoUART/DP*%
X203309079Y-148642172D03*
X197613834Y-131581253D03*
%TO.N,/USB Port/USBtoUART/DN*%
X203293741Y-144866374D03*
X198545254Y-131970670D03*
%TO.N,/USB Port/USBtoUART/DTR*%
X194725486Y-129059227D03*
X186436000Y-127000000D03*
X190593741Y-127086374D03*
%TO.N,/GPIO0*%
X183050100Y-148859856D03*
X185420000Y-122936000D03*
%TO.N,/GPIO1*%
X190633473Y-146812000D03*
X198761473Y-146812000D03*
X222504000Y-142748000D03*
X224536500Y-138400868D03*
X201325620Y-141905861D03*
%TO.N,/U0RXD*%
X188162374Y-134815007D03*
X185513741Y-134706374D03*
%TD*%
D55*
%TO.N,GNDA*%
X262220000Y-137160000D02*
X263178000Y-137160000D01*
X247286842Y-144070842D02*
X247488000Y-144272000D01*
X229668002Y-157540000D02*
X229708000Y-157579998D01*
X263178000Y-137160000D02*
X263602000Y-137584000D01*
X224387000Y-157480000D02*
X224895000Y-156972000D01*
X247488000Y-133604000D02*
X247488000Y-134804000D01*
X236995000Y-127000000D02*
X237836000Y-127000000D01*
X232468499Y-154216000D02*
X230795500Y-154216000D01*
X225911000Y-153657000D02*
X225911000Y-154940000D01*
X238103000Y-157480000D02*
X237836000Y-157213000D01*
X224895000Y-155291500D02*
X224895000Y-154165000D01*
X229975000Y-154940000D02*
X229975000Y-154186500D01*
X263178000Y-132588000D02*
X263602000Y-133012000D01*
X237836000Y-155160500D02*
X236466500Y-153791000D01*
X247488000Y-148844000D02*
X247488000Y-147800985D01*
X246471999Y-139030001D02*
X247326001Y-139030001D01*
X224944000Y-160820000D02*
X226661000Y-160820000D01*
X224146000Y-157480000D02*
X224146000Y-160022000D01*
X231627500Y-158389499D02*
X231530000Y-158486999D01*
X250478485Y-128533014D02*
X250087500Y-128923999D01*
X251693429Y-128533014D02*
X250478485Y-128533014D01*
X230615001Y-158486999D02*
X229708000Y-157579998D01*
X232468499Y-153416000D02*
X232468499Y-154216000D01*
X263518000Y-151892000D02*
X263602000Y-151808000D01*
X262220000Y-151892000D02*
X263518000Y-151892000D01*
X240109000Y-154432000D02*
X239139500Y-154432000D01*
X236995000Y-127000000D02*
X236995000Y-129032000D01*
X247488000Y-128524000D02*
X246472000Y-128524000D01*
X262220000Y-147320000D02*
X263518000Y-147320000D01*
X240765700Y-157480000D02*
X240014050Y-157480000D01*
X240014050Y-157480000D02*
X238103000Y-157480000D01*
X236466500Y-153791000D02*
X238498500Y-153791000D01*
X247488000Y-150200985D02*
X247488000Y-148844000D01*
X237836000Y-127000000D02*
X238852000Y-125984000D01*
X227461000Y-157540000D02*
X229668002Y-157540000D01*
X263518000Y-147320000D02*
X263602000Y-147236000D01*
X231530000Y-158486999D02*
X230615001Y-158486999D01*
X231627500Y-156064000D02*
X231627500Y-158389499D01*
X240840700Y-155163700D02*
X240840700Y-157405000D01*
X240109000Y-154432000D02*
X240840700Y-155163700D01*
X224654000Y-152400000D02*
X224654000Y-153924000D01*
X247488000Y-132404000D02*
X247488000Y-133604000D01*
X227461000Y-157540000D02*
X227461000Y-160020000D01*
X246488690Y-144070842D02*
X247286842Y-144070842D01*
X247488000Y-139192000D02*
X247488000Y-140208000D01*
X247488000Y-144272000D02*
X247488000Y-142862986D01*
X229975000Y-154186500D02*
X230370500Y-153791000D01*
X240109000Y-154432000D02*
X240109000Y-152400000D01*
X263178000Y-142240000D02*
X263602000Y-142664000D01*
X240109000Y-152400000D02*
X240109000Y-151410000D01*
X249520000Y-128923999D02*
X247488000Y-128923999D01*
X246472000Y-133604000D02*
X247488000Y-133604000D01*
X247326001Y-139030001D02*
X247488000Y-139192000D01*
X262220000Y-142240000D02*
X263178000Y-142240000D01*
X236016500Y-153341000D02*
X232543499Y-153341000D01*
X247488000Y-128524000D02*
X247488000Y-129724000D01*
X230795500Y-154216000D02*
X230370500Y-153791000D01*
X224654000Y-152400000D02*
X225911000Y-153657000D01*
X247488000Y-127324000D02*
X247488000Y-128524000D01*
X237836000Y-157213000D02*
X237836000Y-155160500D01*
X239139500Y-154432000D02*
X238498500Y-153791000D01*
X247488000Y-137808000D02*
X247488000Y-139192000D01*
X240840700Y-157405000D02*
X240765700Y-157480000D01*
X263320000Y-128440000D02*
X262220000Y-129540000D01*
X224174000Y-160050000D02*
X224944000Y-160820000D01*
X232468499Y-154216000D02*
X232468499Y-155223001D01*
X263602000Y-128440000D02*
X263320000Y-128440000D01*
X250087500Y-128923999D02*
X249520000Y-128923999D01*
X240109000Y-151410000D02*
X240135000Y-151384000D01*
X247488000Y-145262986D02*
X247488000Y-144272000D01*
X232468499Y-155223001D02*
X231627500Y-156064000D01*
X236466500Y-153791000D02*
X236016500Y-153341000D01*
X224146000Y-160022000D02*
X224174000Y-160050000D01*
X246472000Y-148844000D02*
X247488000Y-148844000D01*
X224895000Y-154165000D02*
X224654000Y-153924000D01*
X262220000Y-132588000D02*
X263178000Y-132588000D01*
X226661000Y-160820000D02*
X227461000Y-160020000D01*
X232543499Y-153341000D02*
X232468499Y-153416000D01*
X224146000Y-157480000D02*
X224387000Y-157480000D01*
D56*
%TO.N,/IN8N*%
X238344000Y-144029057D02*
X241726943Y-147412000D01*
X251693429Y-149594000D02*
X251086444Y-150200985D01*
X238344000Y-143708000D02*
X238344000Y-144029057D01*
X249016800Y-150704185D02*
X246808185Y-150704185D01*
X249520000Y-150200985D02*
X249016800Y-150704185D01*
X246808185Y-150704185D02*
X243516000Y-147412000D01*
X251086444Y-150200985D02*
X249520000Y-150200985D01*
X241726943Y-147412000D02*
X243516000Y-147412000D01*
%TO.N,/IN8P*%
X248552984Y-149400984D02*
X248504000Y-149352000D01*
X237506297Y-143208000D02*
X238344000Y-143208000D01*
X237264000Y-143450297D02*
X237506297Y-143208000D01*
X250344484Y-149094000D02*
X250037500Y-149400984D01*
X237644500Y-145796000D02*
X237264000Y-145415500D01*
X250037500Y-149400984D02*
X249520000Y-149400984D01*
X237264000Y-145415500D02*
X237264000Y-143450297D01*
X249520000Y-149400984D02*
X248552984Y-149400984D01*
X251693429Y-149094000D02*
X250344484Y-149094000D01*
%TO.N,/IN7N*%
X247803715Y-146996000D02*
X245903882Y-146996000D01*
X251693429Y-148594000D02*
X251686443Y-148600986D01*
X236768000Y-142708000D02*
X238344000Y-142708000D01*
X248768986Y-147961271D02*
X247803715Y-146996000D01*
X249520000Y-148600986D02*
X248768986Y-148600986D01*
X236728000Y-142748000D02*
X236768000Y-142708000D01*
X248768986Y-148600986D02*
X248768986Y-147961271D01*
X251686443Y-148600986D02*
X249520000Y-148600986D01*
%TO.N,/IN7P*%
X251693429Y-148094000D02*
X250270000Y-148094000D01*
X248796000Y-146596000D02*
X246648628Y-146596000D01*
X239689471Y-142326529D02*
X239570942Y-142208000D01*
X240460629Y-145580000D02*
X239689471Y-144808842D01*
X249520000Y-147800985D02*
X249520000Y-147320000D01*
X246648628Y-146596000D02*
X245632628Y-145580000D01*
X250270000Y-148094000D02*
X249976985Y-147800985D01*
X239689471Y-144808842D02*
X239689471Y-142326529D01*
X249976985Y-147800985D02*
X249520000Y-147800985D01*
X239570942Y-142208000D02*
X238344000Y-142208000D01*
X249520000Y-147320000D02*
X248796000Y-146596000D01*
X245632628Y-145580000D02*
X240460629Y-145580000D01*
%TO.N,/IN6N*%
X245798314Y-145180000D02*
X240626314Y-145180000D01*
X246814314Y-146196000D02*
X245798314Y-145180000D01*
X239636628Y-141708000D02*
X238344000Y-141708000D01*
X240216690Y-144770375D02*
X240216690Y-142288062D01*
X249520000Y-145262986D02*
X248586986Y-146196000D01*
X251210443Y-145262986D02*
X249520000Y-145262986D01*
X240216690Y-142288062D02*
X239636628Y-141708000D01*
X240626314Y-145180000D02*
X240216690Y-144770375D01*
X251693429Y-144780000D02*
X251210443Y-145262986D01*
X248586986Y-146196000D02*
X246814314Y-146196000D01*
%TO.N,/IN6P*%
X246472000Y-145288000D02*
X246472000Y-144780000D01*
X239702314Y-141208000D02*
X238344000Y-141208000D01*
X246980000Y-145796000D02*
X246472000Y-145288000D01*
X240616690Y-142415310D02*
X240763157Y-142268843D01*
X248313015Y-144462985D02*
X248313015Y-145558671D01*
X240616690Y-144604690D02*
X240616690Y-142415310D01*
X249702985Y-144280000D02*
X249520000Y-144462985D01*
X248313015Y-145558671D02*
X248075686Y-145796000D01*
X240763157Y-142268843D02*
X239702314Y-141208000D01*
X249520000Y-144462985D02*
X248313015Y-144462985D01*
X251693429Y-144280000D02*
X249702985Y-144280000D01*
X246472000Y-144780000D02*
X240792000Y-144780000D01*
X240792000Y-144780000D02*
X240616690Y-144604690D01*
X248075686Y-145796000D02*
X246980000Y-145796000D01*
%TO.N,/IN5N*%
X249239787Y-143662987D02*
X247488000Y-141911200D01*
X247488000Y-141911200D02*
X240971200Y-141911200D01*
X249637013Y-143780000D02*
X249520000Y-143662987D01*
X240971200Y-141911200D02*
X239776000Y-140716000D01*
X239776000Y-140716000D02*
X238352000Y-140716000D01*
X249520000Y-143662987D02*
X249239787Y-143662987D01*
X238352000Y-140716000D02*
X238344000Y-140708000D01*
X251693429Y-143780000D02*
X249637013Y-143780000D01*
%TO.N,/IN5P*%
X246593514Y-141511200D02*
X245290314Y-140208000D01*
X249520000Y-142862986D02*
X248168214Y-141511200D01*
X251693429Y-143280000D02*
X251276415Y-142862986D01*
X245290314Y-140208000D02*
X238344000Y-140208000D01*
X251276415Y-142862986D02*
X249520000Y-142862986D01*
X248168214Y-141511200D02*
X246593514Y-141511200D01*
%TO.N,/IN4N*%
X245348000Y-139700000D02*
X239194314Y-139700000D01*
X246759200Y-141111200D02*
X245348000Y-139700000D01*
X251376287Y-140208000D02*
X249520000Y-140208000D01*
X239186314Y-139708000D02*
X238344000Y-139708000D01*
X249520000Y-140208000D02*
X248616800Y-141111200D01*
X251693429Y-139890858D02*
X251376287Y-140208000D01*
X248616800Y-141111200D02*
X246759200Y-141111200D01*
X239194314Y-139700000D02*
X239186314Y-139708000D01*
%TO.N,/IN4P*%
X249520000Y-139407999D02*
X248288001Y-139407999D01*
X250636000Y-139390858D02*
X250618859Y-139407999D01*
X239268000Y-139192000D02*
X239252000Y-139208000D01*
X248288001Y-139407999D02*
X248288001Y-140528699D01*
X251693429Y-139390858D02*
X250636000Y-139390858D01*
X239252000Y-139208000D02*
X238344000Y-139208000D01*
X247032886Y-140711200D02*
X245513686Y-139192000D01*
X245513686Y-139192000D02*
X239268000Y-139192000D01*
X250618859Y-139407999D02*
X249520000Y-139407999D01*
X248105500Y-140711200D02*
X247032886Y-140711200D01*
X248288001Y-140528699D02*
X248105500Y-140711200D01*
%TO.N,/IN3N*%
X248902500Y-138508001D02*
X248902500Y-137958500D01*
X248104000Y-137160000D02*
X246472000Y-137160000D01*
X248902500Y-137958500D02*
X248104000Y-137160000D01*
X251693429Y-138890858D02*
X249802857Y-138890858D01*
X244924000Y-138708000D02*
X238344000Y-138708000D01*
X249802857Y-138890858D02*
X249520000Y-138608001D01*
X246472000Y-137160000D02*
X244924000Y-138708000D01*
X249520000Y-138608001D02*
X249002500Y-138608001D01*
X249002500Y-138608001D02*
X248902500Y-138508001D01*
%TO.N,/IN3P*%
X251693429Y-138390858D02*
X251110571Y-137808000D01*
X239378761Y-138208000D02*
X238344000Y-138208000D01*
X251110571Y-137808000D02*
X249520000Y-137808000D01*
X240934761Y-136652000D02*
X239378761Y-138208000D01*
X249520000Y-136652000D02*
X240934761Y-136652000D01*
X249520000Y-137808000D02*
X249520000Y-136652000D01*
%TO.N,/IN2N*%
X251119740Y-134804000D02*
X249520000Y-134804000D01*
X239313075Y-137708000D02*
X238344000Y-137708000D01*
X249520000Y-134804000D02*
X248180000Y-136144000D01*
X240792000Y-136144000D02*
X240792000Y-136229075D01*
X240792000Y-136229075D02*
X239313075Y-137708000D01*
X251693429Y-134230311D02*
X251119740Y-134804000D01*
X248180000Y-136144000D02*
X240792000Y-136144000D01*
%TO.N,/IN2P*%
X251693429Y-133730311D02*
X249793688Y-133730311D01*
X247776700Y-135636000D02*
X240284000Y-135636000D01*
X239247389Y-137208000D02*
X238344000Y-137208000D01*
X240284000Y-136171389D02*
X239247389Y-137208000D01*
X248105500Y-135307200D02*
X247776700Y-135636000D01*
X249520000Y-134003999D02*
X248612001Y-134003999D01*
X248612001Y-134003999D02*
X248105500Y-134510500D01*
X248105500Y-134510500D02*
X248105500Y-135307200D01*
X240284000Y-135636000D02*
X240284000Y-136171389D01*
X249793688Y-133730311D02*
X249520000Y-134003999D01*
%TO.N,/IN1N*%
X249002500Y-133204001D02*
X248902500Y-133104001D01*
X248902500Y-133104001D02*
X248902500Y-131970500D01*
X248902500Y-131970500D02*
X248832800Y-131900800D01*
X239181703Y-136708000D02*
X238344000Y-136708000D01*
X239424000Y-136465703D02*
X239181703Y-136708000D01*
X249520000Y-133204001D02*
X249002500Y-133204001D01*
X246870500Y-131900800D02*
X244596000Y-134175300D01*
X251667119Y-133204001D02*
X249520000Y-133204001D01*
X244596000Y-134175300D02*
X239424000Y-134175300D01*
X248832800Y-131900800D02*
X246870500Y-131900800D01*
X251693429Y-133230311D02*
X251667119Y-133204001D01*
X239424000Y-134175300D02*
X239424000Y-136465703D01*
%TO.N,/IN1P*%
X251367118Y-132404000D02*
X249520000Y-132404000D01*
X239776000Y-130556000D02*
X239776000Y-132080000D01*
X244946350Y-130557650D02*
X239777650Y-130557650D01*
X249520000Y-131064000D02*
X249012000Y-130556000D01*
X249520000Y-132404000D02*
X249520000Y-131064000D01*
X244948000Y-130556000D02*
X244946350Y-130557650D01*
X251693429Y-132730311D02*
X251367118Y-132404000D01*
X239776000Y-132080000D02*
X238252000Y-133604000D01*
X238252000Y-133604000D02*
X238252000Y-136116000D01*
X238252000Y-136116000D02*
X238344000Y-136208000D01*
X249012000Y-130556000D02*
X244948000Y-130556000D01*
X239777650Y-130557650D02*
X239776000Y-130556000D01*
D55*
%TO.N,/INSRB2*%
X246845500Y-126795800D02*
X243508650Y-130132650D01*
X237445564Y-133173000D02*
X236145941Y-133173000D01*
X238338300Y-130131000D02*
X243507000Y-130131000D01*
X238310000Y-131639305D02*
X238310000Y-132308564D01*
X238035000Y-130434300D02*
X238338300Y-130131000D01*
X249610987Y-128033014D02*
X249520000Y-128124001D01*
X248952500Y-128124001D02*
X248877500Y-128049001D01*
X249520000Y-128124001D02*
X248952500Y-128124001D01*
X238035000Y-131364305D02*
X238310000Y-131639305D01*
X251693429Y-128033014D02*
X249610987Y-128033014D01*
X238310000Y-132308564D02*
X237445564Y-133173000D01*
X248877500Y-127373500D02*
X248299800Y-126795800D01*
X236145941Y-133173000D02*
X235914000Y-133404941D01*
X235914000Y-133404941D02*
X235914000Y-134278000D01*
X248877500Y-128049001D02*
X248877500Y-127373500D01*
X243507000Y-130131000D02*
X243508650Y-130132650D01*
X238035000Y-130434300D02*
X238035000Y-131364305D01*
X248299800Y-126795800D02*
X246845500Y-126795800D01*
%TO.N,/INSRB1*%
X239922200Y-126345800D02*
X239268000Y-127000000D01*
X249520000Y-127324000D02*
X248541800Y-126345800D01*
X238760000Y-132494960D02*
X236976960Y-134278000D01*
X251693429Y-127533014D02*
X249729014Y-127533014D01*
X248541800Y-126345800D02*
X239922200Y-126345800D01*
X249729014Y-127533014D02*
X249520000Y-127324000D01*
X236976960Y-134278000D02*
X236414000Y-134278000D01*
X238760000Y-131064000D02*
X238760000Y-132494960D01*
%TO.N,/BIAS_DRV*%
X250860000Y-131064000D02*
X249520000Y-129724000D01*
X252377000Y-153924000D02*
X252377000Y-152773000D01*
X251693429Y-129033014D02*
X251002443Y-129724000D01*
X252004000Y-152400000D02*
X252004000Y-151440000D01*
X252377000Y-152773000D02*
X252004000Y-152400000D01*
X251002443Y-129724000D02*
X249520000Y-129724000D01*
X252004000Y-151440000D02*
X252060000Y-151384000D01*
X251044000Y-131064000D02*
X250860000Y-131064000D01*
%TO.N,Net-(U1-VCAP1)*%
X230365000Y-129781000D02*
X230914000Y-130330000D01*
X230914000Y-130330000D02*
X230914000Y-134278000D01*
X230365000Y-129032000D02*
X230365000Y-129781000D01*
%TO.N,/AVSS*%
X232929059Y-135636000D02*
X229108000Y-135636000D01*
X232156000Y-147237305D02*
X232156000Y-146743000D01*
X233414000Y-145638000D02*
X232914000Y-145638000D01*
X235445000Y-127000000D02*
X235445000Y-125721183D01*
X230627817Y-126492000D02*
X229857000Y-126492000D01*
X232118499Y-151466000D02*
X232468499Y-151816000D01*
X255616000Y-156464000D02*
X249538941Y-156464000D01*
X263602000Y-154008000D02*
X258580000Y-154008000D01*
X230914000Y-146511059D02*
X230914000Y-145638000D01*
X228914000Y-135442000D02*
X228914000Y-134278000D01*
X234414000Y-146511059D02*
X234414000Y-145638000D01*
X233989000Y-137386305D02*
X232929059Y-136326364D01*
X228877000Y-151466000D02*
X232118499Y-151466000D01*
X231915000Y-129032000D02*
X231915000Y-127779183D01*
X233722941Y-133096000D02*
X233414000Y-133404941D01*
X230627817Y-125992366D02*
X230627817Y-126492000D01*
X228451000Y-151892000D02*
X228877000Y-151466000D01*
X240267941Y-147193000D02*
X235095941Y-147193000D01*
X257140000Y-154940000D02*
X255616000Y-156464000D01*
X234414000Y-144590400D02*
X234095600Y-144272000D01*
X233772000Y-144272000D02*
X233989000Y-144055000D01*
X229108000Y-135636000D02*
X228914000Y-135442000D01*
X228867000Y-129032000D02*
X228867000Y-127534000D01*
X234914000Y-133096000D02*
X233722941Y-133096000D01*
X232929059Y-136326364D02*
X232929059Y-135636000D01*
X234914000Y-129563000D02*
X234914000Y-134278000D01*
X234280000Y-150941000D02*
X235166500Y-150941000D01*
X258580000Y-154008000D02*
X257648000Y-154940000D01*
X232914000Y-146511059D02*
X232682059Y-146743000D01*
X235166500Y-150941000D02*
X236466500Y-152241000D01*
X231915000Y-127779183D02*
X230627817Y-126492000D01*
X236466500Y-152241000D02*
X238498500Y-152241000D01*
X231944183Y-124676000D02*
X230627817Y-125992366D01*
X235445000Y-129032000D02*
X234914000Y-129563000D01*
X235095941Y-147193000D02*
X234414000Y-146511059D01*
X255616000Y-156464000D02*
X255616000Y-159004000D01*
X235166500Y-150941000D02*
X235166500Y-150247805D01*
X235166500Y-150247805D02*
X232156000Y-147237305D01*
X231740000Y-146743000D02*
X231145941Y-146743000D01*
X235445000Y-125721183D02*
X234399817Y-124676000D01*
X241918941Y-148844000D02*
X240267941Y-147193000D01*
X234095600Y-144272000D02*
X233772000Y-144272000D01*
X234399817Y-124676000D02*
X231944183Y-124676000D01*
X228867000Y-127534000D02*
X228841000Y-127508000D01*
X227343000Y-125476000D02*
X227343000Y-127508000D01*
X233343499Y-150941000D02*
X234280000Y-150941000D01*
X233414000Y-134278000D02*
X233414000Y-135151059D01*
X232914000Y-145638000D02*
X232914000Y-146511059D01*
X257648000Y-154940000D02*
X257140000Y-154940000D01*
X232156000Y-146743000D02*
X231740000Y-146743000D01*
X235445000Y-127000000D02*
X235445000Y-129032000D01*
X231145941Y-146743000D02*
X230914000Y-146511059D01*
X233414000Y-133404941D02*
X233414000Y-134278000D01*
X233989000Y-144055000D02*
X233989000Y-137386305D01*
X233414000Y-144630000D02*
X233414000Y-145638000D01*
X229857000Y-126492000D02*
X228841000Y-127508000D01*
X249538941Y-156464000D02*
X241918941Y-148844000D01*
X228451000Y-151892000D02*
X228451000Y-153924000D01*
X233414000Y-135151059D02*
X232929059Y-135636000D01*
X234414000Y-145638000D02*
X234414000Y-144590400D01*
X232682059Y-146743000D02*
X232156000Y-146743000D01*
X233772000Y-144272000D02*
X233414000Y-144630000D01*
X234914000Y-133096000D02*
X234914000Y-134278000D01*
X227343000Y-127508000D02*
X228841000Y-127508000D01*
X232468499Y-151816000D02*
X233343499Y-150941000D01*
%TO.N,Net-(U3-VBUS)*%
X195825224Y-134663654D02*
X195825224Y-134609673D01*
X199039790Y-132999870D02*
X200501400Y-131538260D01*
X197438970Y-132995927D02*
X199035847Y-132995927D01*
X199035847Y-132995927D02*
X199039790Y-132999870D01*
X200501400Y-131538260D02*
X200501400Y-129056674D01*
X195825224Y-134609673D02*
X197438970Y-132995927D01*
%TO.N,+3V3*%
X182079197Y-152300574D02*
X182079197Y-150290918D01*
X234280000Y-162052000D02*
X233379002Y-162952998D01*
X185312303Y-152292690D02*
X192940057Y-152292690D01*
X240014050Y-156529999D02*
X240014050Y-156343050D01*
X205509296Y-133816317D02*
X205495824Y-133802845D01*
X237836000Y-158763000D02*
X237162000Y-159437000D01*
X223012000Y-139192000D02*
X223012000Y-137802378D01*
X202350271Y-133876742D02*
X203879212Y-132347801D01*
X218948000Y-148336000D02*
X218948000Y-147845906D01*
X204732892Y-144782929D02*
X207767706Y-144782929D01*
X220984299Y-159663116D02*
X220984299Y-157484299D01*
X199101400Y-129956674D02*
X199601400Y-129956674D01*
X221797406Y-144996500D02*
X219972953Y-146820953D01*
X202350271Y-134053554D02*
X202350271Y-133876742D01*
X224274181Y-162952998D02*
X220984299Y-159663116D01*
X229414000Y-138764941D02*
X227857059Y-137208000D01*
X240014050Y-158430001D02*
X238168999Y-158430001D01*
X202630324Y-142680361D02*
X204732892Y-144782929D01*
X185312303Y-152292690D02*
X183960987Y-150941374D01*
X207767706Y-144782929D02*
X207767706Y-139748213D01*
X236071000Y-155956000D02*
X236071000Y-159437000D01*
X183960987Y-150941374D02*
X182228741Y-150941374D01*
X225287500Y-150216500D02*
X233555500Y-150216500D01*
X223012000Y-137802378D02*
X223151030Y-137663348D01*
X203149239Y-142470876D02*
X202839809Y-142470876D01*
X233379002Y-162952998D02*
X224274181Y-162952998D01*
X234280000Y-159437000D02*
X234280000Y-162052000D01*
X229414000Y-145638000D02*
X229414000Y-144764941D01*
X199601400Y-130793200D02*
X199601400Y-129956674D01*
X230414000Y-145638000D02*
X230414000Y-147557000D01*
X199776900Y-130968700D02*
X199601400Y-130793200D01*
X223520000Y-155448000D02*
X223520000Y-154340000D01*
X205334256Y-133802845D02*
X203879212Y-132347801D01*
X205509296Y-135476335D02*
X205509296Y-133816317D01*
X234280000Y-162052000D02*
X234280000Y-162201265D01*
X229414000Y-146557000D02*
X229414000Y-145638000D01*
X230632000Y-147775000D02*
X230414000Y-147557000D01*
X229414000Y-144764941D02*
X229414000Y-138764941D01*
X192940057Y-152292690D02*
X193133741Y-152486374D01*
X231114000Y-147775000D02*
X230632000Y-147775000D01*
X228357059Y-143708000D02*
X226984000Y-143708000D01*
X230414000Y-147557000D02*
X229414000Y-146557000D01*
X236071000Y-159437000D02*
X234280000Y-159437000D01*
X234280000Y-162201265D02*
X234284567Y-162205832D01*
X223104000Y-152400000D02*
X223104000Y-153924000D01*
X233555500Y-150216500D02*
X231114000Y-147775000D01*
X227857059Y-137208000D02*
X226984000Y-137208000D01*
X223104000Y-152400000D02*
X225287500Y-150216500D01*
X207767706Y-139748213D02*
X207767706Y-137734745D01*
X205495824Y-133802845D02*
X205334256Y-133802845D01*
X182228741Y-150941374D02*
X182153741Y-150866374D01*
X202839809Y-142470876D02*
X202630324Y-142680361D01*
X201220838Y-131623757D02*
X201220838Y-131614665D01*
X240014050Y-156343050D02*
X239119000Y-155448000D01*
X182153741Y-150866374D02*
X182153741Y-150216374D01*
X206533217Y-136500256D02*
X205509296Y-135476335D01*
X201220838Y-131614665D02*
X202183457Y-130652046D01*
X220980000Y-141224000D02*
X223012000Y-139192000D01*
X209731326Y-139748213D02*
X210503000Y-138976539D01*
X238168999Y-158430001D02*
X237836000Y-158763000D01*
X237162000Y-159437000D02*
X236071000Y-159437000D01*
X229414000Y-144764941D02*
X228357059Y-143708000D01*
X202183457Y-130652046D02*
X202183457Y-129136667D01*
X207767706Y-137734745D02*
X206533217Y-136500256D01*
X207767706Y-139748213D02*
X208413473Y-139748213D01*
X223520000Y-154340000D02*
X223104000Y-153924000D01*
X233555500Y-150216500D02*
X233555500Y-149884500D01*
X208413473Y-139748213D02*
X209731326Y-139748213D01*
X203879212Y-132347801D02*
X202183457Y-130652046D01*
X218948000Y-147845906D02*
X219972953Y-146820953D01*
X222212500Y-144996500D02*
X221797406Y-144996500D01*
X182079197Y-150290918D02*
X182153741Y-150216374D01*
%TO.N,Net-(C25-Pad2)*%
X205960892Y-144257929D02*
X202884324Y-141181361D01*
X197371352Y-137656629D02*
X197316473Y-137601750D01*
X200896084Y-141181361D02*
X197316473Y-137601750D01*
X203384324Y-141181361D02*
X204134324Y-140431361D01*
X202884324Y-141181361D02*
X203384324Y-141181361D01*
X207202706Y-144257929D02*
X205960892Y-144257929D01*
X196533741Y-140209556D02*
X197371352Y-139371945D01*
X197371352Y-139371945D02*
X197371352Y-137656629D01*
X196533741Y-142326374D02*
X196533741Y-140209556D01*
X202884324Y-141181361D02*
X200896084Y-141181361D01*
%TO.N,Net-(U1-VREFN)*%
X232690000Y-129514000D02*
X232414000Y-129790000D01*
X232414000Y-129790000D02*
X232414000Y-134278000D01*
X232690000Y-127293000D02*
X232690000Y-129514000D01*
X232397000Y-125476000D02*
X232397000Y-127000000D01*
X232397000Y-127000000D02*
X232690000Y-127293000D01*
%TO.N,GND*%
X194596352Y-157890335D02*
X194629009Y-157922991D01*
X193403741Y-134163694D02*
X196011453Y-131555982D01*
X194629009Y-152908000D02*
X194629009Y-151441642D01*
X226984000Y-135859539D02*
X226456230Y-135331769D01*
X188053741Y-144866374D02*
X188053741Y-143216374D01*
X194629009Y-157922991D02*
X196118017Y-159412000D01*
X188053741Y-143216374D02*
X186403741Y-143216374D01*
X227834000Y-145638000D02*
X227676000Y-145796000D01*
X182954419Y-153100574D02*
X183762303Y-152292690D01*
X202630324Y-135323501D02*
X202630324Y-139682361D01*
X184753741Y-144866374D02*
X186403741Y-144866374D01*
X200753741Y-134706374D02*
X201750274Y-134706374D01*
X202329212Y-132347801D02*
X201241859Y-132347801D01*
X197601400Y-129956674D02*
X197601400Y-130568382D01*
X179478741Y-136941374D02*
X182078741Y-136941374D01*
X192353741Y-137266374D02*
X193403741Y-137266374D01*
X196118017Y-159412000D02*
X196528017Y-159412000D01*
X186403741Y-141566374D02*
X188053741Y-141566374D01*
X197601400Y-130568382D02*
X196613800Y-131555982D01*
X228689500Y-140208000D02*
X226984000Y-140208000D01*
X221879000Y-153025000D02*
X221879000Y-146364401D01*
X193403741Y-150216374D02*
X193479687Y-150216374D01*
X182153741Y-136866374D02*
X182153741Y-136216374D01*
X208522706Y-143225267D02*
X210523973Y-141224000D01*
X229914000Y-144066000D02*
X229914000Y-145638000D01*
X194325635Y-153211374D02*
X194629009Y-152908000D01*
X230216000Y-143764000D02*
X229914000Y-144066000D01*
X203100271Y-134853554D02*
X203270596Y-134683229D01*
X207403051Y-145827584D02*
X208522706Y-144707929D01*
X196548017Y-159392000D02*
X196548017Y-162082000D01*
X186403741Y-144866374D02*
X188053741Y-144866374D01*
X184680987Y-153211374D02*
X194325635Y-153211374D01*
X229414000Y-133404941D02*
X229414000Y-134278000D01*
X197601400Y-129956674D02*
X197601400Y-128056674D01*
X179403741Y-150216374D02*
X179403741Y-149166374D01*
X179403741Y-138966374D02*
X179403741Y-138116374D01*
X208373741Y-137246374D02*
X208373741Y-136790780D01*
X211428000Y-140319973D02*
X211428000Y-138684077D01*
X179403741Y-143216374D02*
X179403741Y-142366374D01*
X182078741Y-136941374D02*
X182153741Y-136866374D01*
X208522706Y-144707929D02*
X208522706Y-144257929D01*
X179403741Y-143216374D02*
X184753741Y-143216374D01*
X201241859Y-132347801D02*
X200589790Y-132999870D01*
X188053741Y-141566374D02*
X192353741Y-137266374D01*
X196613800Y-131555982D02*
X196538272Y-131555982D01*
X228092000Y-134112000D02*
X228092000Y-133726941D01*
X208373741Y-136790780D02*
X207059296Y-135476335D01*
X179403741Y-139816374D02*
X179403741Y-138966374D01*
X184753741Y-141566374D02*
X186403741Y-141566374D01*
X195766473Y-137601750D02*
X195702334Y-137601750D01*
X200589790Y-133545890D02*
X201897454Y-134853554D01*
X221879000Y-146364401D02*
X224946851Y-143296550D01*
X196011453Y-131555982D02*
X196538272Y-131555982D01*
X197934039Y-134986076D02*
X197611617Y-134663654D01*
X198213741Y-134706374D02*
X197934039Y-134986076D01*
X196548017Y-162082000D02*
X196238017Y-162392000D01*
X179403741Y-136216374D02*
X179403741Y-136866374D01*
X224053436Y-140215533D02*
X224060969Y-140208000D01*
X196528017Y-159412000D02*
X196548017Y-159392000D01*
X197611617Y-134663654D02*
X197475224Y-134663654D01*
X179403741Y-142366374D02*
X179403741Y-141516374D01*
X179403741Y-145766374D02*
X179403741Y-144916374D01*
X205568004Y-145827584D02*
X207403051Y-145827584D01*
X181303741Y-150216374D02*
X181303741Y-152777935D01*
X207068672Y-133779997D02*
X207068672Y-129118620D01*
X201968017Y-159972000D02*
X201388017Y-159392000D01*
X194596352Y-138707732D02*
X194596352Y-149099709D01*
X201388017Y-159392000D02*
X200388017Y-159392000D01*
X183003741Y-137276374D02*
X184753741Y-139026374D01*
X210523973Y-141224000D02*
X211428000Y-140319973D01*
X186403741Y-143216374D02*
X186403741Y-141566374D01*
X179403741Y-144066374D02*
X179403741Y-143216374D01*
X202693988Y-159512000D02*
X205573606Y-156632382D01*
X194629009Y-151441642D02*
X193403741Y-150216374D01*
X197601400Y-128056674D02*
X198101400Y-127556674D01*
X203270596Y-134683229D02*
X202630324Y-135323501D01*
X183003741Y-136216374D02*
X183003741Y-137276374D01*
X193403741Y-137266374D02*
X195431097Y-137266374D01*
X181626380Y-153100574D02*
X182954419Y-153100574D01*
X199928017Y-162662000D02*
X201428017Y-162662000D01*
X184753741Y-139026374D02*
X184753741Y-141566374D01*
X228092000Y-133726941D02*
X228645941Y-133173000D01*
X195702334Y-137601750D02*
X194596352Y-138707732D01*
X195821352Y-139735874D02*
X195770852Y-139786374D01*
X179403741Y-148316374D02*
X179403741Y-147466374D01*
X193479687Y-150216374D02*
X194596352Y-149099709D01*
X218948000Y-155956000D02*
X221879000Y-153025000D01*
X179403741Y-141516374D02*
X179403741Y-140666374D01*
X201750274Y-134706374D02*
X201897454Y-134853554D01*
X200388017Y-159392000D02*
X200268017Y-159512000D01*
X182153741Y-136216374D02*
X183003741Y-136216374D01*
X179403741Y-137266374D02*
X179403741Y-136216374D01*
X179403741Y-138116374D02*
X179403741Y-137266374D01*
X194629009Y-157922991D02*
X194629009Y-152908000D01*
X179403741Y-146616374D02*
X179403741Y-145766374D01*
X205573606Y-147391756D02*
X205573606Y-145833186D01*
X201428017Y-162662000D02*
X201698017Y-162392000D01*
X205573606Y-156632382D02*
X205573606Y-147391756D01*
X197738017Y-162392000D02*
X198008017Y-162662000D01*
X201698017Y-161482000D02*
X201718017Y-161462000D01*
X208220258Y-135476335D02*
X207059296Y-135476335D01*
X193403741Y-136216374D02*
X193403741Y-134163694D01*
X200589790Y-132999870D02*
X200589790Y-133545890D01*
X207045824Y-133802845D02*
X207068672Y-133779997D01*
X228645941Y-133173000D02*
X229182059Y-133173000D01*
X179403741Y-151175118D02*
X179403741Y-150216374D01*
X183762303Y-152292690D02*
X184680987Y-153211374D01*
X226984000Y-136208000D02*
X226984000Y-135859539D01*
X195138680Y-136973957D02*
X195431097Y-137266374D01*
X200753741Y-134706374D02*
X198213741Y-134706374D01*
X202630324Y-139682361D02*
X197934039Y-134986076D01*
X201698017Y-162392000D02*
X201698017Y-161482000D01*
X193403741Y-137266374D02*
X193403741Y-136216374D01*
X179403741Y-149166374D02*
X179403741Y-148316374D01*
X195138680Y-136295155D02*
X195138680Y-136973957D01*
X195821352Y-139371945D02*
X195821352Y-139735874D01*
X200268017Y-159512000D02*
X202693988Y-159512000D01*
X196238017Y-162392000D02*
X197738017Y-162392000D01*
X205573606Y-145833186D02*
X205568004Y-145827584D01*
X207059296Y-133816317D02*
X207045824Y-133802845D01*
X179403741Y-140666374D02*
X179403741Y-139816374D01*
X201897454Y-134853554D02*
X203100271Y-134853554D01*
X198008017Y-162662000D02*
X199928017Y-162662000D01*
X211428000Y-138684077D02*
X208220258Y-135476335D01*
X203900271Y-134053554D02*
X203900271Y-135312904D01*
X208522706Y-144257929D02*
X208522706Y-143225267D01*
X180529197Y-152300574D02*
X179403741Y-151175118D01*
X228914000Y-145638000D02*
X227834000Y-145638000D01*
X179403741Y-147466374D02*
X179403741Y-146616374D01*
X179403741Y-144916374D02*
X179403741Y-144066374D01*
X203270596Y-134683229D02*
X203900271Y-134053554D01*
X181303741Y-150216374D02*
X180453741Y-150216374D01*
X207059296Y-135476335D02*
X207059296Y-133816317D01*
X179403741Y-136866374D02*
X179478741Y-136941374D01*
X203900271Y-135312904D02*
X205833741Y-137246374D01*
X201968017Y-160712000D02*
X201968017Y-159972000D01*
X181303741Y-152777935D02*
X181626380Y-153100574D01*
X195431097Y-137266374D02*
X195766473Y-137601750D01*
X180453741Y-150216374D02*
X179403741Y-150216374D01*
X229182059Y-133173000D02*
X229414000Y-133404941D01*
X224060969Y-140208000D02*
X226984000Y-140208000D01*
%TO.N,/DIN*%
X220689000Y-140499000D02*
X221996000Y-139192000D01*
X223426171Y-136362902D02*
X225081484Y-136362902D01*
X225081484Y-136362902D02*
X225426582Y-136708000D01*
X189803741Y-134941732D02*
X189803741Y-136216374D01*
X221996000Y-139192000D02*
X221996000Y-137793073D01*
X225426582Y-136708000D02*
X226984000Y-136708000D01*
X218948000Y-142230695D02*
X220679695Y-140499000D01*
X207905473Y-131572000D02*
X209354973Y-131572000D01*
X220679695Y-140499000D02*
X220689000Y-140499000D01*
X221996000Y-137793073D02*
X223426171Y-136362902D01*
X218948000Y-143256000D02*
X218948000Y-142230695D01*
X190633473Y-134112000D02*
X189803741Y-134941732D01*
%TO.N,Net-(U1-VREFP)*%
X233947000Y-127241000D02*
X233172000Y-128016000D01*
X233947000Y-127000000D02*
X233947000Y-127241000D01*
X233947000Y-125476000D02*
X233947000Y-127000000D01*
X233172000Y-129668396D02*
X232914000Y-129926396D01*
X233172000Y-128016000D02*
X233172000Y-129668396D01*
X232914000Y-129926396D02*
X232914000Y-134278000D01*
%TO.N,Net-(U1-VCAP3)*%
X225793000Y-133643941D02*
X231914000Y-139764941D01*
X231914000Y-139764941D02*
X231914000Y-145638000D01*
X225793000Y-133643941D02*
X225793000Y-127508000D01*
X225793000Y-125476000D02*
X225793000Y-127508000D01*
%TO.N,/CS*%
X223893966Y-139166473D02*
X223935493Y-139208000D01*
X222504000Y-140556439D02*
X223893966Y-139166473D01*
X218948000Y-153416000D02*
X220472000Y-151892000D01*
X220472000Y-151892000D02*
X220980000Y-151892000D01*
X192753741Y-140666374D02*
X192157473Y-141262642D01*
X223935493Y-139208000D02*
X226984000Y-139208000D01*
X222504000Y-141224000D02*
X222504000Y-140556439D01*
X193403741Y-140666374D02*
X192753741Y-140666374D01*
X202765350Y-143839985D02*
X202765350Y-144259797D01*
X202765350Y-144259797D02*
X201265310Y-145759837D01*
X192157473Y-141262642D02*
X192157473Y-148844000D01*
X199233310Y-147791837D02*
X201265310Y-145759837D01*
%TO.N,/DOUT*%
X226984000Y-141208000D02*
X225568000Y-141208000D01*
X184029473Y-132588000D02*
X184537473Y-132080000D01*
X225568000Y-141208000D02*
X225238102Y-141537898D01*
X220980000Y-144272000D02*
X222504000Y-144272000D01*
X191649473Y-134620000D02*
X190653741Y-135615732D01*
X184537473Y-132080000D02*
X188093473Y-132080000D01*
X190653741Y-135615732D02*
X190653741Y-136216374D01*
X219456000Y-145796000D02*
X220980000Y-144272000D01*
X218948000Y-145796000D02*
X219456000Y-145796000D01*
X222504000Y-144272000D02*
X224028000Y-142748000D01*
%TO.N,/DRDY*%
X185553473Y-133096000D02*
X183853741Y-134795732D01*
X198761473Y-137668000D02*
X196807089Y-135713616D01*
X213412951Y-139019028D02*
X213412951Y-140424500D01*
X226060000Y-143208000D02*
X226984000Y-143208000D01*
X222329000Y-146939000D02*
X226060000Y-143208000D01*
X183853741Y-134795732D02*
X183853741Y-136216374D01*
X225882899Y-143208000D02*
X226060000Y-143208000D01*
X196807089Y-135713616D02*
X196682322Y-135713616D01*
X211045923Y-136652000D02*
X213412951Y-139019028D01*
X223520000Y-141224000D02*
X223898899Y-141224000D01*
X222329000Y-155115000D02*
X222329000Y-146939000D01*
X199312451Y-137668000D02*
X198761473Y-137668000D01*
X223898899Y-141224000D02*
X225882899Y-143208000D01*
X218948000Y-158496000D02*
X222329000Y-155115000D01*
X210445473Y-136652000D02*
X211045923Y-136652000D01*
%TO.N,Net-(U1-VCAP4)*%
X231914000Y-130356941D02*
X231914000Y-134278000D01*
X230391000Y-127508000D02*
X231140000Y-128257000D01*
X231140000Y-128257000D02*
X231140000Y-129582941D01*
X231140000Y-129582941D02*
X231914000Y-130356941D01*
%TO.N,Net-(U1-VCAP2)*%
X227317000Y-129032000D02*
X229914000Y-131629000D01*
X229914000Y-131629000D02*
X229914000Y-134278000D01*
%TO.N,/AVDD*%
X252219000Y-160179000D02*
X241392000Y-149352000D01*
X237836000Y-147828000D02*
X234696000Y-147828000D01*
X226901000Y-154406000D02*
X227435000Y-154940000D01*
X234421059Y-136144000D02*
X235414000Y-135151059D01*
X232414000Y-144322000D02*
X233264000Y-143472000D01*
X225911000Y-157540000D02*
X225911000Y-160020000D01*
X233914000Y-147046000D02*
X233538000Y-147046000D01*
X227435000Y-154940000D02*
X227943000Y-155448000D01*
X233264000Y-143472000D02*
X233264000Y-143256000D01*
X232414000Y-145638000D02*
X232414000Y-144322000D01*
X231189500Y-143256000D02*
X231414000Y-143480500D01*
X241392000Y-149352000D02*
X239868000Y-147828000D01*
X233772000Y-136144000D02*
X234414000Y-135502000D01*
X239868000Y-147828000D02*
X238304000Y-147828000D01*
X264252000Y-154708000D02*
X262496000Y-156464000D01*
X242769950Y-155542950D02*
X242769950Y-156529999D01*
X231414000Y-143480500D02*
X231414000Y-145638000D01*
X234414000Y-135502000D02*
X234414000Y-134278000D01*
X233772000Y-136144000D02*
X234421059Y-136144000D01*
X258505000Y-160179000D02*
X252219000Y-160179000D01*
X224060000Y-156016000D02*
X227435000Y-156016000D01*
X233914000Y-147046000D02*
X233914000Y-145638000D01*
X235414000Y-135151059D02*
X235414000Y-134278000D01*
X259680000Y-159004000D02*
X258505000Y-160179000D01*
X225911000Y-157540000D02*
X227435000Y-156016000D01*
X262496000Y-156464000D02*
X259680000Y-156464000D01*
X222596000Y-157480000D02*
X222596000Y-160022000D01*
X238304000Y-147828000D02*
X237836000Y-147828000D01*
X233914000Y-136002000D02*
X233914000Y-134278000D01*
X241659000Y-154432000D02*
X241659000Y-152400000D01*
X259680000Y-156464000D02*
X259680000Y-159004000D01*
X241659000Y-152400000D02*
X241659000Y-149619000D01*
X241659000Y-157480000D02*
X241819949Y-157480000D01*
X226901000Y-151892000D02*
X226901000Y-153924000D01*
X241659000Y-154432000D02*
X242769950Y-155542950D01*
X227435000Y-156016000D02*
X227435000Y-154940000D01*
X264252000Y-154008000D02*
X264252000Y-154708000D01*
X226901000Y-153924000D02*
X226901000Y-154406000D01*
X222596000Y-157480000D02*
X224060000Y-156016000D01*
X241819949Y-157480000D02*
X242769950Y-156529999D01*
X233538000Y-147046000D02*
X233264000Y-147320000D01*
X241659000Y-149619000D02*
X241392000Y-149352000D01*
X222596000Y-160022000D02*
X222624000Y-160050000D01*
X234696000Y-147828000D02*
X233914000Y-147046000D01*
X233772000Y-136144000D02*
X233914000Y-136002000D01*
%TO.N,Net-(U4-CAP+)*%
X233023000Y-158595998D02*
X233131999Y-158486999D01*
X233131999Y-158486999D02*
X234280000Y-158486999D01*
X233023000Y-160343997D02*
X233023000Y-158595998D01*
X229708000Y-162177998D02*
X231188999Y-162177998D01*
X231188999Y-162177998D02*
X233023000Y-160343997D01*
%TO.N,Net-(U4-CAP-)*%
X229949000Y-160386998D02*
X229708000Y-160627998D01*
X231530000Y-160386998D02*
X229949000Y-160386998D01*
%TO.N,/ADS Power/-RAW*%
X233418500Y-155823000D02*
X233177500Y-156064000D01*
X234368498Y-154216000D02*
X233418500Y-154216000D01*
X233177500Y-156064000D02*
X232355000Y-156886500D01*
X232355000Y-159362000D02*
X232280000Y-159437000D01*
X232280000Y-159437000D02*
X231530000Y-159437000D01*
X231530000Y-159437000D02*
X230015002Y-159437000D01*
X230015002Y-159437000D02*
X229708000Y-159129998D01*
X232355000Y-156886500D02*
X232355000Y-159362000D01*
X233418500Y-154216000D02*
X233418500Y-155823000D01*
%TO.N,Net-(U6-NR)*%
X233493498Y-152691000D02*
X230820500Y-152691000D01*
X234368498Y-151816000D02*
X233493498Y-152691000D01*
X230820500Y-152691000D02*
X230370500Y-152241000D01*
%TO.N,/BIASOUT*%
X242557902Y-148844000D02*
X240309902Y-146596000D01*
X243932000Y-148844000D02*
X242557902Y-148844000D01*
X236889000Y-146743000D02*
X236145941Y-146743000D01*
X250727000Y-152908000D02*
X247996000Y-152908000D01*
X237036000Y-146596000D02*
X236889000Y-146743000D01*
X250727000Y-153924000D02*
X250727000Y-152908000D01*
X247996000Y-152908000D02*
X243932000Y-148844000D01*
X236145941Y-146743000D02*
X235914000Y-146511059D01*
X235914000Y-146511059D02*
X235914000Y-145638000D01*
X250727000Y-152908000D02*
X250727000Y-152717000D01*
X250727000Y-152717000D02*
X251044000Y-152400000D01*
X240309902Y-146596000D02*
X237036000Y-146596000D01*
X235914000Y-145638000D02*
X235414000Y-145638000D01*
D56*
%TO.N,/1P*%
X261270000Y-133762000D02*
X259680000Y-132172000D01*
X254547965Y-132730311D02*
X255139654Y-133322000D01*
X264902000Y-133012000D02*
X264902000Y-133612000D01*
X257590314Y-132172000D02*
X259680000Y-132172000D01*
X264752000Y-133762000D02*
X261270000Y-133762000D01*
X256440314Y-133322000D02*
X257590314Y-132172000D01*
X264902000Y-133612000D02*
X264752000Y-133762000D01*
X252853429Y-132730311D02*
X254547965Y-132730311D01*
X255139654Y-133322000D02*
X256440314Y-133322000D01*
%TO.N,/1N*%
X254058721Y-133230311D02*
X254516205Y-133687795D01*
X264252000Y-133012000D02*
X264252000Y-132412000D01*
X252853429Y-133230311D02*
X254058721Y-133230311D01*
X256766000Y-131022000D02*
X255616000Y-132172000D01*
X264252000Y-132412000D02*
X262862000Y-131022000D01*
X262862000Y-131022000D02*
X256766000Y-131022000D01*
%TO.N,/2P*%
X256440314Y-135862000D02*
X257590314Y-134712000D01*
X263602000Y-135212000D02*
X263178000Y-135636000D01*
X253710311Y-133730311D02*
X253710311Y-134432657D01*
X263178000Y-135636000D02*
X260604000Y-135636000D01*
X252853429Y-133730311D02*
X253710311Y-133730311D01*
X257590314Y-134712000D02*
X259680000Y-134712000D01*
X253710311Y-134432657D02*
X255139654Y-135862000D01*
X260604000Y-135636000D02*
X259680000Y-134712000D01*
X255139654Y-135862000D02*
X256440314Y-135862000D01*
%TO.N,/2N*%
X264252000Y-134562000D02*
X263852000Y-134162000D01*
X252853429Y-134565019D02*
X254008205Y-135719795D01*
X264252000Y-135212000D02*
X264252000Y-134562000D01*
X260156346Y-133562000D02*
X256766000Y-133562000D01*
X256766000Y-133562000D02*
X255616000Y-134712000D01*
X260756346Y-134162000D02*
X260156346Y-133562000D01*
X252853429Y-134230311D02*
X252853429Y-134565019D01*
X263852000Y-134162000D02*
X260756346Y-134162000D01*
%TO.N,/3P*%
X260762000Y-138334000D02*
X259680000Y-137252000D01*
X253068287Y-138176000D02*
X254913654Y-138176000D01*
X264802000Y-138334000D02*
X260762000Y-138334000D01*
X264902000Y-138234000D02*
X264802000Y-138334000D01*
X254913654Y-138176000D02*
X255139654Y-138402000D01*
X257242346Y-137252000D02*
X259680000Y-137252000D01*
X252853429Y-138390858D02*
X253068287Y-138176000D01*
X256092346Y-138402000D02*
X257242346Y-137252000D01*
X264902000Y-137584000D02*
X264902000Y-138234000D01*
X255139654Y-138402000D02*
X256092346Y-138402000D01*
%TO.N,/3N*%
X252853429Y-138890858D02*
X253797935Y-138890858D01*
X263420000Y-136102000D02*
X256766000Y-136102000D01*
X264252000Y-136934000D02*
X263420000Y-136102000D01*
X264252000Y-137584000D02*
X264252000Y-136934000D01*
X256766000Y-136102000D02*
X255616000Y-137252000D01*
X253797935Y-138890858D02*
X253813293Y-138875500D01*
%TO.N,/4P*%
X259688000Y-139784000D02*
X259680000Y-139792000D01*
X253407948Y-139455858D02*
X254894090Y-140942000D01*
X252853429Y-139390858D02*
X252918429Y-139455858D01*
X252918429Y-139455858D02*
X253407948Y-139455858D01*
X263602000Y-139784000D02*
X259688000Y-139784000D01*
X254894090Y-140942000D02*
X256406000Y-140942000D01*
X257556000Y-139792000D02*
X259680000Y-139792000D01*
X256406000Y-140942000D02*
X257556000Y-139792000D01*
%TO.N,/4N*%
X252853429Y-139890858D02*
X252853704Y-139890858D01*
X260156346Y-138642000D02*
X256766000Y-138642000D01*
X264252000Y-139784000D02*
X264252000Y-139134000D01*
X260248346Y-138734000D02*
X260156346Y-138642000D01*
X263852000Y-138734000D02*
X260248346Y-138734000D01*
X256766000Y-138642000D02*
X255616000Y-139792000D01*
X264252000Y-139134000D02*
X263852000Y-138734000D01*
X252853704Y-139890858D02*
X253885423Y-140922577D01*
%TO.N,/5N*%
X264902000Y-142014000D02*
X264070000Y-141182000D01*
X264070000Y-141182000D02*
X256766000Y-141182000D01*
X264902000Y-142664000D02*
X264902000Y-142014000D01*
X253892500Y-143780000D02*
X254092000Y-143979500D01*
X252853429Y-143780000D02*
X253892500Y-143780000D01*
X256766000Y-141182000D02*
X255616000Y-142332000D01*
%TO.N,/5P*%
X254937654Y-143280000D02*
X255139654Y-143482000D01*
X256440314Y-143482000D02*
X257590314Y-142332000D01*
X257590314Y-142332000D02*
X259680000Y-142332000D01*
X260762000Y-143414000D02*
X259680000Y-142332000D01*
X264152000Y-143414000D02*
X260762000Y-143414000D01*
X255139654Y-143482000D02*
X256440314Y-143482000D01*
X264252000Y-143314000D02*
X264152000Y-143414000D01*
X264252000Y-142664000D02*
X264252000Y-143314000D01*
X252853429Y-143280000D02*
X254937654Y-143280000D01*
%TO.N,/6N*%
X256766000Y-143722000D02*
X255616000Y-144872000D01*
X252908410Y-144780000D02*
X254008205Y-145879795D01*
X252853429Y-144780000D02*
X252908410Y-144780000D01*
X263602000Y-144864000D02*
X261298346Y-144864000D01*
X261298346Y-144864000D02*
X260156346Y-143722000D01*
X260156346Y-143722000D02*
X256766000Y-143722000D01*
%TO.N,/6P*%
X252853429Y-144280000D02*
X253402550Y-144280000D01*
X255139654Y-146022000D02*
X256406000Y-146022000D01*
X263970000Y-145796000D02*
X260604000Y-145796000D01*
X257556000Y-144872000D02*
X259680000Y-144872000D01*
X253802050Y-144684396D02*
X255139654Y-146022000D01*
X260604000Y-145796000D02*
X259680000Y-144872000D01*
X256406000Y-146022000D02*
X257556000Y-144872000D01*
X264252000Y-144864000D02*
X264252000Y-145514000D01*
X264252000Y-145514000D02*
X263970000Y-145796000D01*
X253802050Y-144679500D02*
X253802050Y-144684396D01*
X253402550Y-144280000D02*
X253802050Y-144679500D01*
%TO.N,/7N*%
X264902000Y-146586000D02*
X264512000Y-146196000D01*
X252853429Y-148594000D02*
X253834000Y-148594000D01*
X264902000Y-147236000D02*
X264902000Y-146586000D01*
X253834000Y-148594000D02*
X253851378Y-148576622D01*
X264512000Y-146196000D02*
X256832000Y-146196000D01*
X264902000Y-147236000D02*
X264844000Y-147236000D01*
X256832000Y-146196000D02*
X255616000Y-147412000D01*
%TO.N,/7P*%
X260604000Y-148336000D02*
X259680000Y-147412000D01*
X264252000Y-147886000D02*
X263802000Y-148336000D01*
X256440314Y-148562000D02*
X257590314Y-147412000D01*
X254826000Y-148562000D02*
X256440314Y-148562000D01*
X253119429Y-147828000D02*
X254092000Y-147828000D01*
X254092000Y-147828000D02*
X254826000Y-148562000D01*
X252853429Y-148094000D02*
X253119429Y-147828000D01*
X264252000Y-147236000D02*
X264252000Y-147886000D01*
X257590314Y-147412000D02*
X259680000Y-147412000D01*
X263802000Y-148336000D02*
X260604000Y-148336000D01*
%TO.N,/8N*%
X262968000Y-148802000D02*
X256766000Y-148802000D01*
X263602000Y-149436000D02*
X262968000Y-148802000D01*
X252853429Y-150145429D02*
X253076000Y-150368000D01*
X252853429Y-149594000D02*
X252853429Y-150145429D01*
X256766000Y-148802000D02*
X255616000Y-149952000D01*
%TO.N,/8P*%
X253600948Y-149563294D02*
X255139654Y-151102000D01*
X252853429Y-149094000D02*
X253342948Y-149094000D01*
X253342948Y-149094000D02*
X253600948Y-149352000D01*
X263970000Y-150368000D02*
X260096000Y-150368000D01*
X264252000Y-149436000D02*
X264252000Y-150086000D01*
X255139654Y-151102000D02*
X256092346Y-151102000D01*
X256092346Y-151102000D02*
X257242346Y-149952000D01*
X253600948Y-149352000D02*
X253600948Y-149563294D01*
X257242346Y-149952000D02*
X259680000Y-149952000D01*
X264252000Y-150086000D02*
X263970000Y-150368000D01*
X260096000Y-150368000D02*
X259680000Y-149952000D01*
D55*
%TO.N,/SRB1*%
X260763000Y-151317000D02*
X256791000Y-151317000D01*
X261047000Y-151033000D02*
X260763000Y-151317000D01*
X264902000Y-151808000D02*
X264902000Y-151158000D01*
X256791000Y-151317000D02*
X255616000Y-152492000D01*
X264902000Y-151158000D02*
X264777000Y-151033000D01*
X257048000Y-152492000D02*
X257140000Y-152400000D01*
X255616000Y-152492000D02*
X257048000Y-152492000D01*
X253584000Y-126802443D02*
X252853429Y-127533014D01*
X253584000Y-126492000D02*
X253584000Y-126802443D01*
X264777000Y-151033000D02*
X261047000Y-151033000D01*
%TO.N,/SRB2*%
X258248000Y-152492000D02*
X258156000Y-152400000D01*
X254441000Y-128267000D02*
X254207014Y-128033014D01*
X254207014Y-128033014D02*
X252853429Y-128033014D01*
X264252000Y-152458000D02*
X263802000Y-152908000D01*
X264252000Y-151808000D02*
X264252000Y-152458000D01*
X257899000Y-128267000D02*
X254441000Y-128267000D01*
X259680000Y-152492000D02*
X258248000Y-152492000D01*
X263802000Y-152908000D02*
X260096000Y-152908000D01*
X258156000Y-128524000D02*
X257899000Y-128267000D01*
X260096000Y-152908000D02*
X259680000Y-152492000D01*
%TO.N,/AGND*%
X260280000Y-126492000D02*
X259680000Y-127092000D01*
X252853429Y-128533014D02*
X253593014Y-128533014D01*
X254290755Y-127198755D02*
X255509245Y-127198755D01*
X255509245Y-127198755D02*
X255616000Y-127092000D01*
X253593014Y-128533014D02*
X254092000Y-129032000D01*
X264902000Y-128440000D02*
X264902000Y-127740000D01*
X255616000Y-127092000D02*
X259680000Y-127092000D01*
X264902000Y-127740000D02*
X263654000Y-126492000D01*
X263654000Y-126492000D02*
X260280000Y-126492000D01*
%TO.N,/BIAS*%
X261804000Y-127508000D02*
X259680000Y-129632000D01*
X254692000Y-130556000D02*
X255616000Y-129632000D01*
X253076000Y-130556000D02*
X254692000Y-130556000D01*
X264252000Y-127740000D02*
X264020000Y-127508000D01*
X252853429Y-130333429D02*
X253076000Y-130556000D01*
X264252000Y-128440000D02*
X264252000Y-127740000D01*
X252853429Y-129033014D02*
X252853429Y-130333429D01*
X259680000Y-129632000D02*
X255616000Y-129632000D01*
X264020000Y-127508000D02*
X261804000Y-127508000D01*
D56*
%TO.N,/USB Port/USBtoUART/DP*%
X203309079Y-148642172D02*
X204253606Y-147697645D01*
X201272635Y-147391756D02*
X198968017Y-149696374D01*
X197613834Y-131581253D02*
X198101400Y-131093687D01*
X204253606Y-147391756D02*
X201272635Y-147391756D01*
X198968017Y-149696374D02*
X198968017Y-159512000D01*
X198101400Y-131093687D02*
X198101400Y-129956674D01*
X204253606Y-147697645D02*
X204253606Y-147391756D01*
%TO.N,/USB Port/USBtoUART/DN*%
X198318017Y-149696374D02*
X198318017Y-159512000D01*
X198601400Y-131914524D02*
X198601400Y-129956674D01*
X204248004Y-145820637D02*
X203293741Y-144866374D01*
X202186807Y-145827584D02*
X198318017Y-149696374D01*
X198545254Y-131970670D02*
X198601400Y-131914524D01*
X204248004Y-145827584D02*
X202186807Y-145827584D01*
X204248004Y-145827584D02*
X204248004Y-145820637D01*
D55*
%TO.N,VBUS*%
X199893741Y-142326374D02*
X197668017Y-144552098D01*
X195046352Y-142458985D02*
X195603741Y-143016374D01*
X195046352Y-138894128D02*
X195046352Y-142458985D01*
X195368535Y-138571945D02*
X195046352Y-138894128D01*
X195100224Y-133684673D02*
X195100224Y-135156116D01*
X196541473Y-136597365D02*
X196541473Y-138304641D01*
X196274169Y-138571945D02*
X195368535Y-138571945D01*
X196541473Y-138304641D02*
X196274169Y-138571945D01*
X199203741Y-143016374D02*
X199893741Y-142326374D01*
X197668017Y-144552098D02*
X197668017Y-159512000D01*
X195788970Y-132995927D02*
X195100224Y-133684673D01*
X195603741Y-143016374D02*
X199203741Y-143016374D01*
X195100224Y-135156116D02*
X196541473Y-136597365D01*
%TO.N,Net-(D11-A)*%
X212398973Y-139222512D02*
X212153000Y-138976539D01*
X212398973Y-141224000D02*
X212398973Y-139222512D01*
%TO.N,Net-(Q1-B)*%
X185494749Y-125527000D02*
X188199223Y-125527000D01*
X192498359Y-125780468D02*
X191698359Y-124980468D01*
X191698359Y-123825774D02*
X191698359Y-124980468D01*
X190306942Y-123419281D02*
X191291866Y-123419281D01*
X191291866Y-123419281D02*
X191698359Y-123825774D01*
X184404000Y-123952000D02*
X184404000Y-124436251D01*
X188199223Y-125527000D02*
X190306942Y-123419281D01*
X184404000Y-124436251D02*
X185494749Y-125527000D01*
%TO.N,/USB Port/USBtoUART/DTR*%
X195698847Y-129059227D02*
X195701400Y-129056674D01*
X186436000Y-127000000D02*
X185552000Y-127000000D01*
X190593741Y-125999944D02*
X190799404Y-125794281D01*
X190593741Y-127086374D02*
X190593741Y-125999944D01*
X185552000Y-127000000D02*
X184404000Y-125852000D01*
X194725486Y-129059227D02*
X195698847Y-129059227D01*
%TO.N,/GPIO0*%
X186279000Y-123795000D02*
X186279000Y-124902000D01*
X183050100Y-148859856D02*
X183050100Y-150170015D01*
X185420000Y-122936000D02*
X186279000Y-123795000D01*
X183050100Y-150170015D02*
X183003741Y-150216374D01*
%TO.N,Net-(Q2-B)*%
X188405761Y-126537924D02*
X190799404Y-124144281D01*
X188405761Y-128676374D02*
X188405761Y-126537924D01*
%TO.N,/USB Port/USBtoUART/RTS*%
X195683441Y-127076674D02*
X195673741Y-127076674D01*
X192498359Y-124445323D02*
X192498359Y-124130468D01*
X194259712Y-127056674D02*
X195701400Y-127056674D01*
X195109710Y-127056674D02*
X192498359Y-124445323D01*
X195701400Y-127056674D02*
X195701400Y-127058715D01*
X195701400Y-127056674D02*
X195109710Y-127056674D01*
X188405761Y-130576374D02*
X190740012Y-130576374D01*
X190740012Y-130576374D02*
X194259712Y-127056674D01*
X195701400Y-127058715D02*
X195683441Y-127076674D01*
%TO.N,/EN*%
X180433741Y-134706374D02*
X180453741Y-134726374D01*
X180433741Y-132166374D02*
X182973741Y-129626374D01*
X182973741Y-129626374D02*
X190280761Y-129626374D01*
X180433741Y-134706374D02*
X180433741Y-132166374D01*
X180453741Y-134726374D02*
X180453741Y-136216374D01*
%TO.N,Net-(U3-~{RST})*%
X203033457Y-128336667D02*
X201765995Y-128336667D01*
X201545988Y-128556674D02*
X200501400Y-128556674D01*
X201765995Y-128336667D02*
X201545988Y-128556674D01*
X203833457Y-129136667D02*
X203033457Y-128336667D01*
%TO.N,Net-(U3-~{SUSPEND})*%
X203856726Y-127556674D02*
X200501400Y-127556674D01*
X205418672Y-129118620D02*
X203856726Y-127556674D01*
%TO.N,/GPIO1*%
X185288741Y-148131374D02*
X189314099Y-148131374D01*
X183853741Y-149566374D02*
X185288741Y-148131374D01*
X222504000Y-142748000D02*
X221867604Y-142748000D01*
X221867604Y-142748000D02*
X219994604Y-144621000D01*
X225229368Y-137708000D02*
X226984000Y-137708000D01*
X217773000Y-149701000D02*
X217773000Y-147828000D01*
X198761473Y-146812000D02*
X201325620Y-144247853D01*
X219994604Y-144621000D02*
X218461299Y-144621000D01*
X189314099Y-148131374D02*
X190633473Y-146812000D01*
X218948000Y-150876000D02*
X217773000Y-149701000D01*
X218461299Y-144621000D02*
X217773000Y-145309299D01*
X201325620Y-144247853D02*
X201325620Y-141905861D01*
X217773000Y-145309299D02*
X217773000Y-147828000D01*
X224536500Y-138400868D02*
X225229368Y-137708000D01*
X183853741Y-150216374D02*
X183853741Y-149566374D01*
%TO.N,/U0TXD*%
X186461408Y-135491374D02*
X185628741Y-135491374D01*
X185553741Y-135566374D02*
X185553741Y-136216374D01*
X185628741Y-135491374D02*
X185553741Y-135566374D01*
X195701400Y-127556674D02*
X194396108Y-127556674D01*
X194396108Y-127556674D02*
X186461408Y-135491374D01*
%TO.N,/U0RXD*%
X184703741Y-135516374D02*
X184703741Y-136216374D01*
X188162374Y-134597741D02*
X188162374Y-134815007D01*
X195701400Y-128056674D02*
X194703441Y-128056674D01*
X194703441Y-128056674D02*
X188162374Y-134597741D01*
X185513741Y-134706374D02*
X184703741Y-135516374D01*
%TD*%
M02*
