%TF.GenerationSoftware,KiCad,Pcbnew,7.0.2-0*%
%TF.CreationDate,2024-01-09T14:06:18-05:00*%
%TF.ProjectId,Monolith,4d6f6e6f-6c69-4746-982e-6b696361645f,rev?*%
%TF.SameCoordinates,Original*%
%TF.FileFunction,Soldermask,Top*%
%TF.FilePolarity,Negative*%
%FSLAX46Y46*%
G04 Gerber Fmt 4.6, Leading zero omitted, Abs format (unit mm)*
G04 Created by KiCad (PCBNEW 7.0.2-0) date 2024-01-09 14:06:18*
%MOMM*%
%LPD*%
G01*
G04 APERTURE LIST*
G04 Aperture macros list*
%AMRoundRect*
0 Rectangle with rounded corners*
0 $1 Rounding radius*
0 $2 $3 $4 $5 $6 $7 $8 $9 X,Y pos of 4 corners*
0 Add a 4 corners polygon primitive as box body*
4,1,4,$2,$3,$4,$5,$6,$7,$8,$9,$2,$3,0*
0 Add four circle primitives for the rounded corners*
1,1,$1+$1,$2,$3*
1,1,$1+$1,$4,$5*
1,1,$1+$1,$6,$7*
1,1,$1+$1,$8,$9*
0 Add four rect primitives between the rounded corners*
20,1,$1+$1,$2,$3,$4,$5,0*
20,1,$1+$1,$4,$5,$6,$7,0*
20,1,$1+$1,$6,$7,$8,$9,0*
20,1,$1+$1,$8,$9,$2,$3,0*%
%AMFreePoly0*
4,1,6,0.600000,-0.600000,-0.600000,-0.600000,-0.600000,0.000000,0.000000,0.600000,0.600000,0.600000,0.600000,-0.600000,0.600000,-0.600000,$1*%
G04 Aperture macros list end*
%ADD10RoundRect,0.225000X-0.250000X0.225000X-0.250000X-0.225000X0.250000X-0.225000X0.250000X0.225000X0*%
%ADD11R,1.700000X1.700000*%
%ADD12O,1.700000X1.700000*%
%ADD13RoundRect,0.225000X0.250000X-0.225000X0.250000X0.225000X-0.250000X0.225000X-0.250000X-0.225000X0*%
%ADD14RoundRect,0.140000X0.140000X0.170000X-0.140000X0.170000X-0.140000X-0.170000X0.140000X-0.170000X0*%
%ADD15RoundRect,0.225000X-0.225000X-0.250000X0.225000X-0.250000X0.225000X0.250000X-0.225000X0.250000X0*%
%ADD16R,0.400000X1.350000*%
%ADD17O,0.890000X1.550000*%
%ADD18R,1.200000X1.550000*%
%ADD19O,1.250000X0.950000*%
%ADD20R,1.500000X1.550000*%
%ADD21RoundRect,0.243750X-0.243750X-0.456250X0.243750X-0.456250X0.243750X0.456250X-0.243750X0.456250X0*%
%ADD22RoundRect,0.102000X0.500000X0.375000X-0.500000X0.375000X-0.500000X-0.375000X0.500000X-0.375000X0*%
%ADD23RoundRect,0.167100X-0.589900X-0.399900X0.589900X-0.399900X0.589900X0.399900X-0.589900X0.399900X0*%
%ADD24RoundRect,0.416400X-0.340600X-1.305600X0.340600X-1.305600X0.340600X1.305600X-0.340600X1.305600X0*%
%ADD25RoundRect,0.102000X-0.200000X0.450000X-0.200000X-0.450000X0.200000X-0.450000X0.200000X0.450000X0*%
%ADD26RoundRect,0.102000X-0.475000X-0.200000X0.475000X-0.200000X0.475000X0.200000X-0.475000X0.200000X0*%
%ADD27RoundRect,0.200000X0.200000X0.275000X-0.200000X0.275000X-0.200000X-0.275000X0.200000X-0.275000X0*%
%ADD28R,1.000000X0.599999*%
%ADD29RoundRect,0.200000X-0.200000X-0.275000X0.200000X-0.275000X0.200000X0.275000X-0.200000X0.275000X0*%
%ADD30RoundRect,0.225000X0.225000X0.250000X-0.225000X0.250000X-0.225000X-0.250000X0.225000X-0.250000X0*%
%ADD31RoundRect,0.190500X0.206500X-0.516500X0.206500X0.516500X-0.206500X0.516500X-0.206500X-0.516500X0*%
%ADD32RoundRect,0.102000X-0.450000X-0.200000X0.450000X-0.200000X0.450000X0.200000X-0.450000X0.200000X0*%
%ADD33R,0.400000X0.800000*%
%ADD34R,0.800000X0.400000*%
%ADD35FreePoly0,90.000000*%
%ADD36R,1.200000X1.200000*%
%ADD37R,0.800000X0.800000*%
%ADD38RoundRect,0.143300X-0.583700X-0.253700X0.583700X-0.253700X0.583700X0.253700X-0.583700X0.253700X0*%
%ADD39RoundRect,0.200000X-0.275000X0.200000X-0.275000X-0.200000X0.275000X-0.200000X0.275000X0.200000X0*%
%ADD40RoundRect,0.250000X-0.325000X-0.650000X0.325000X-0.650000X0.325000X0.650000X-0.325000X0.650000X0*%
%ADD41RoundRect,0.113200X0.768800X0.128800X-0.768800X0.128800X-0.768800X-0.128800X0.768800X-0.128800X0*%
%ADD42RoundRect,0.113200X-0.128800X0.768800X-0.128800X-0.768800X0.128800X-0.768800X0.128800X0.768800X0*%
%ADD43RoundRect,0.102000X-0.605000X-0.365000X0.605000X-0.365000X0.605000X0.365000X-0.605000X0.365000X0*%
%ADD44RoundRect,0.140000X-0.140000X-0.170000X0.140000X-0.170000X0.140000X0.170000X-0.140000X0.170000X0*%
G04 APERTURE END LIST*
D10*
%TO.C,C6*%
X188976000Y-127228000D03*
X188976000Y-128778000D03*
%TD*%
D11*
%TO.C,J7*%
X218948000Y-142748000D03*
D12*
X218948000Y-145288000D03*
X218948000Y-147828000D03*
X218948000Y-150368000D03*
X218948000Y-152908000D03*
X218948000Y-155448000D03*
X218948000Y-157988000D03*
X218948000Y-160528000D03*
%TD*%
D13*
%TO.C,C46*%
X229708000Y-157681998D03*
X229708000Y-156131998D03*
%TD*%
D14*
%TO.C,R18*%
X252923651Y-140735150D03*
X251963651Y-140735150D03*
%TD*%
D15*
%TO.C,C44*%
X222624000Y-158602000D03*
X224174000Y-158602000D03*
%TD*%
%TO.C,C32*%
X232397000Y-126010150D03*
X233947000Y-126010150D03*
%TD*%
D11*
%TO.C,J2*%
X255616000Y-127092000D03*
D12*
X255616000Y-129632000D03*
X255616000Y-132172000D03*
X255616000Y-134712000D03*
X255616000Y-137252000D03*
X255616000Y-139792000D03*
X255616000Y-142332000D03*
X255616000Y-144872000D03*
X255616000Y-147412000D03*
X255616000Y-149952000D03*
X255616000Y-152492000D03*
%TD*%
D14*
%TO.C,R8*%
X252956000Y-143256000D03*
X251996000Y-143256000D03*
%TD*%
%TO.C,R20*%
X252956000Y-150368000D03*
X251996000Y-150368000D03*
%TD*%
D16*
%TO.C,J1*%
X197552000Y-160020000D03*
X198202000Y-160020000D03*
X198852000Y-160020000D03*
X199502000Y-160020000D03*
X200152000Y-160020000D03*
D17*
X195352000Y-162720000D03*
D18*
X195952000Y-162720000D03*
D19*
X196352000Y-160020000D03*
D20*
X197852000Y-162720000D03*
X199852000Y-162720000D03*
D19*
X201352000Y-160020000D03*
D18*
X201752000Y-162720000D03*
D17*
X202352000Y-162720000D03*
%TD*%
D21*
%TO.C,D11*%
X210523973Y-141224000D03*
X212398973Y-141224000D03*
%TD*%
D11*
%TO.C,J3*%
X259680000Y-127092000D03*
D12*
X259680000Y-129632000D03*
X259680000Y-132172000D03*
X259680000Y-134712000D03*
X259680000Y-137252000D03*
X259680000Y-139792000D03*
X259680000Y-142332000D03*
X259680000Y-144872000D03*
X259680000Y-147412000D03*
X259680000Y-149952000D03*
X259680000Y-152492000D03*
%TD*%
D14*
%TO.C,R19*%
X252956000Y-145288000D03*
X251996000Y-145288000D03*
%TD*%
D22*
%TO.C,S2*%
X187912000Y-161895000D03*
X181912000Y-161895000D03*
X187912000Y-158145000D03*
X181912000Y-158145000D03*
%TD*%
D23*
%TO.C,U2*%
X201887000Y-137918000D03*
X201887000Y-140208000D03*
X201887000Y-142498000D03*
D24*
X208577000Y-140208000D03*
%TD*%
D13*
%TO.C,C4*%
X180340000Y-156223000D03*
X180340000Y-154673000D03*
%TD*%
D14*
%TO.C,R11*%
X252448000Y-133096000D03*
X251488000Y-133096000D03*
%TD*%
%TO.C,R4*%
X252476000Y-127000000D03*
X251516000Y-127000000D03*
%TD*%
D15*
%TO.C,C42*%
X226901000Y-152476000D03*
X228451000Y-152476000D03*
%TD*%
D22*
%TO.C,S1*%
X186896000Y-130399000D03*
X180896000Y-130399000D03*
X186896000Y-126649000D03*
X180896000Y-126649000D03*
%TD*%
D15*
%TO.C,C38*%
X236969000Y-127000000D03*
X238519000Y-127000000D03*
%TD*%
%TO.C,C26*%
X195821352Y-139371945D03*
X197371352Y-139371945D03*
%TD*%
D25*
%TO.C,D2*%
X264902000Y-137584000D03*
X264252000Y-137584000D03*
X263602000Y-137584000D03*
X263602000Y-139784000D03*
X264252000Y-139784000D03*
X264902000Y-139784000D03*
%TD*%
D26*
%TO.C,U7*%
X247654000Y-132404000D03*
X247654000Y-133204000D03*
X247654000Y-134004000D03*
X247654000Y-134804000D03*
X249354000Y-134804000D03*
X249354000Y-134004000D03*
X249354000Y-133204000D03*
X249354000Y-132404000D03*
%TD*%
D14*
%TO.C,R21*%
X252476000Y-130048000D03*
X251516000Y-130048000D03*
%TD*%
D13*
%TO.C,C1*%
X184296101Y-155484452D03*
X184296101Y-153934452D03*
%TD*%
D14*
%TO.C,R15*%
X252476000Y-129032000D03*
X251516000Y-129032000D03*
%TD*%
D10*
%TO.C,C53*%
X238498500Y-150793000D03*
X238498500Y-152343000D03*
%TD*%
D15*
%TO.C,C33*%
X232397000Y-127534150D03*
X233947000Y-127534150D03*
%TD*%
D27*
%TO.C,R28*%
X244665000Y-129540000D03*
X243015000Y-129540000D03*
%TD*%
D28*
%TO.C,U4*%
X231530000Y-157038999D03*
X231530000Y-157989000D03*
X231530000Y-158938998D03*
X234280000Y-158938998D03*
X234280000Y-157989000D03*
X234280000Y-157038999D03*
%TD*%
D13*
%TO.C,C3*%
X180079637Y-135143739D03*
X180079637Y-133593739D03*
%TD*%
D14*
%TO.C,R7*%
X252956000Y-138684000D03*
X251996000Y-138684000D03*
%TD*%
D15*
%TO.C,C24*%
X205495824Y-133802845D03*
X207045824Y-133802845D03*
%TD*%
D14*
%TO.C,R16*%
X252476000Y-134112000D03*
X251516000Y-134112000D03*
%TD*%
D10*
%TO.C,C52*%
X236466500Y-150793000D03*
X236466500Y-152343000D03*
%TD*%
D29*
%TO.C,R27*%
X210503000Y-138976539D03*
X212153000Y-138976539D03*
%TD*%
D30*
%TO.C,C37*%
X228867000Y-129566150D03*
X227317000Y-129566150D03*
%TD*%
D26*
%TO.C,U8*%
X247654000Y-137808000D03*
X247654000Y-138608000D03*
X247654000Y-139408000D03*
X247654000Y-140208000D03*
X249354000Y-140208000D03*
X249354000Y-139408000D03*
X249354000Y-138608000D03*
X249354000Y-137808000D03*
%TD*%
D14*
%TO.C,R5*%
X252476000Y-132080000D03*
X251516000Y-132080000D03*
%TD*%
D25*
%TO.C,D1*%
X264902000Y-133012000D03*
X264252000Y-133012000D03*
X263602000Y-133012000D03*
X263602000Y-135212000D03*
X264252000Y-135212000D03*
X264902000Y-135212000D03*
%TD*%
D11*
%TO.C,J5*%
X255616000Y-156464000D03*
D12*
X255616000Y-159004000D03*
%TD*%
D30*
%TO.C,C34*%
X227343000Y-126010150D03*
X225793000Y-126010150D03*
%TD*%
D15*
%TO.C,C35*%
X225793000Y-128042150D03*
X227343000Y-128042150D03*
%TD*%
D30*
%TO.C,C54*%
X241659000Y-152984000D03*
X240109000Y-152984000D03*
%TD*%
D15*
%TO.C,C41*%
X225911000Y-158572000D03*
X227461000Y-158572000D03*
%TD*%
%TO.C,C47*%
X223104000Y-150952000D03*
X224654000Y-150952000D03*
%TD*%
D14*
%TO.C,R9*%
X252956000Y-148336000D03*
X251996000Y-148336000D03*
%TD*%
%TO.C,R1*%
X252956000Y-137668000D03*
X251996000Y-137668000D03*
%TD*%
D15*
%TO.C,C40*%
X226901000Y-150444000D03*
X228451000Y-150444000D03*
%TD*%
D13*
%TO.C,C2*%
X182372000Y-155448000D03*
X182372000Y-153898000D03*
%TD*%
%TO.C,C49*%
X237836000Y-157315000D03*
X237836000Y-155765000D03*
%TD*%
D14*
%TO.C,R3*%
X252956000Y-147320000D03*
X251996000Y-147320000D03*
%TD*%
D10*
%TO.C,C51*%
X230370500Y-150793000D03*
X230370500Y-152343000D03*
%TD*%
D26*
%TO.C,U11*%
X247654000Y-127324000D03*
X247654000Y-128124000D03*
X247654000Y-128924000D03*
X247654000Y-129724000D03*
X249354000Y-129724000D03*
X249354000Y-128924000D03*
X249354000Y-128124000D03*
X249354000Y-127324000D03*
%TD*%
D31*
%TO.C,U6*%
X232468500Y-152823000D03*
X233418500Y-152823000D03*
X234368500Y-152823000D03*
X234368500Y-150313000D03*
X232468500Y-150313000D03*
%TD*%
D30*
%TO.C,C55*%
X241659000Y-150952000D03*
X240109000Y-150952000D03*
%TD*%
D25*
%TO.C,D6*%
X264902000Y-128440000D03*
X264252000Y-128440000D03*
X263602000Y-128440000D03*
X263602000Y-130640000D03*
X264252000Y-130640000D03*
X264902000Y-130640000D03*
%TD*%
D14*
%TO.C,R14*%
X252956000Y-149352000D03*
X251996000Y-149352000D03*
%TD*%
D25*
%TO.C,D5*%
X264902000Y-151808000D03*
X264252000Y-151808000D03*
X263602000Y-151808000D03*
X263602000Y-154008000D03*
X264252000Y-154008000D03*
X264902000Y-154008000D03*
%TD*%
D26*
%TO.C,U9*%
X247654000Y-142862986D03*
X247654000Y-143662986D03*
X247654000Y-144462986D03*
X247654000Y-145262986D03*
X249354000Y-145262986D03*
X249354000Y-144462986D03*
X249354000Y-143662986D03*
X249354000Y-142862986D03*
%TD*%
%TO.C,U10*%
X247654000Y-147800985D03*
X247654000Y-148600985D03*
X247654000Y-149400985D03*
X247654000Y-150200985D03*
X249354000Y-150200985D03*
X249354000Y-149400985D03*
X249354000Y-148600985D03*
X249354000Y-147800985D03*
%TD*%
D15*
%TO.C,C36*%
X228841000Y-128042150D03*
X230391000Y-128042150D03*
%TD*%
D25*
%TO.C,D3*%
X264902000Y-142664000D03*
X264252000Y-142664000D03*
X263602000Y-142664000D03*
X263602000Y-144864000D03*
X264252000Y-144864000D03*
X264902000Y-144864000D03*
%TD*%
D14*
%TO.C,R2*%
X252956000Y-142240000D03*
X251996000Y-142240000D03*
%TD*%
D15*
%TO.C,C20*%
X236969000Y-129032000D03*
X238519000Y-129032000D03*
%TD*%
%TO.C,C25*%
X195766473Y-137601750D03*
X197316473Y-137601750D03*
%TD*%
D32*
%TO.C,D12*%
X205232000Y-145288000D03*
X205232000Y-145938000D03*
X205232000Y-146588000D03*
X207432000Y-146588000D03*
X207432000Y-145938000D03*
X207432000Y-145288000D03*
%TD*%
D33*
%TO.C,U12*%
X180476000Y-151668000D03*
X181326000Y-151668000D03*
X182176000Y-151668000D03*
X183026000Y-151668000D03*
X183876000Y-151668000D03*
X184726000Y-151668000D03*
X185576000Y-151668000D03*
X186426000Y-151668000D03*
X187276000Y-151668000D03*
X188126000Y-151668000D03*
X188976000Y-151668000D03*
X189826000Y-151668000D03*
X190676000Y-151668000D03*
X191526000Y-151668000D03*
X192376000Y-151668000D03*
D34*
X193426000Y-150618000D03*
X193426000Y-149768000D03*
X193426000Y-148918000D03*
X193426000Y-148068000D03*
X193426000Y-147218000D03*
X193426000Y-146368000D03*
X193426000Y-145518000D03*
X193426000Y-144668000D03*
X193426000Y-143818000D03*
X193426000Y-142968000D03*
X193426000Y-142118000D03*
X193426000Y-141268000D03*
X193426000Y-140418000D03*
X193426000Y-139568000D03*
X193426000Y-138718000D03*
D33*
X192376000Y-137668000D03*
X191526000Y-137668000D03*
X190676000Y-137668000D03*
X189826000Y-137668000D03*
X188976000Y-137668000D03*
X188126000Y-137668000D03*
X187276000Y-137668000D03*
X186426000Y-137668000D03*
X185576000Y-137668000D03*
X184726000Y-137668000D03*
X183876000Y-137668000D03*
X183026000Y-137668000D03*
X182176000Y-137668000D03*
X181326000Y-137668000D03*
X180476000Y-137668000D03*
D34*
X179426000Y-138718000D03*
X179426000Y-139568000D03*
X179426000Y-140418000D03*
X179426000Y-141268000D03*
X179426000Y-142118000D03*
X179426000Y-142968000D03*
X179426000Y-143818000D03*
X179426000Y-144668000D03*
X179426000Y-145518000D03*
X179426000Y-146368000D03*
X179426000Y-147218000D03*
X179426000Y-148068000D03*
X179426000Y-148918000D03*
X179426000Y-149768000D03*
X179426000Y-150618000D03*
D35*
X184776000Y-146318000D03*
D36*
X186426000Y-146318000D03*
X188076000Y-146318000D03*
X184776000Y-144668000D03*
X186426000Y-144668000D03*
X188076000Y-144668000D03*
X184776000Y-143018000D03*
X186426000Y-143018000D03*
X188076000Y-143018000D03*
D37*
X179426000Y-151668000D03*
X193426000Y-151668000D03*
X193426000Y-137668000D03*
X179426000Y-137668000D03*
%TD*%
D11*
%TO.C,J4*%
X259680000Y-156464000D03*
D12*
X259680000Y-159004000D03*
%TD*%
D38*
%TO.C,U5*%
X240137000Y-155082000D03*
X240137000Y-156032000D03*
X240137000Y-156982000D03*
X242647000Y-156982000D03*
X242647000Y-155082000D03*
%TD*%
D39*
%TO.C,R6*%
X182589637Y-133543739D03*
X182589637Y-135193739D03*
%TD*%
D30*
%TO.C,C50*%
X233177500Y-154616000D03*
X231627500Y-154616000D03*
%TD*%
D14*
%TO.C,R13*%
X252956000Y-144272000D03*
X251996000Y-144272000D03*
%TD*%
D15*
%TO.C,C43*%
X223104000Y-152476000D03*
X224654000Y-152476000D03*
%TD*%
D14*
%TO.C,R10*%
X252476000Y-128016000D03*
X251516000Y-128016000D03*
%TD*%
D25*
%TO.C,D4*%
X264902000Y-147236000D03*
X264252000Y-147236000D03*
X263602000Y-147236000D03*
X263602000Y-149436000D03*
X264252000Y-149436000D03*
X264902000Y-149436000D03*
%TD*%
D40*
%TO.C,C19*%
X232205000Y-129540000D03*
X235155000Y-129540000D03*
%TD*%
D41*
%TO.C,U1*%
X238344000Y-143708000D03*
X238344000Y-143208000D03*
X238344000Y-142708000D03*
X238344000Y-142208000D03*
X238344000Y-141708000D03*
X238344000Y-141208000D03*
X238344000Y-140708000D03*
X238344000Y-140208000D03*
X238344000Y-139708000D03*
X238344000Y-139208000D03*
X238344000Y-138708000D03*
X238344000Y-138208000D03*
X238344000Y-137708000D03*
X238344000Y-137208000D03*
X238344000Y-136708000D03*
X238344000Y-136208000D03*
D42*
X236414000Y-134278000D03*
X235914000Y-134278000D03*
X235414000Y-134278000D03*
X234914000Y-134278000D03*
X234414000Y-134278000D03*
X233914000Y-134278000D03*
X233414000Y-134278000D03*
X232914000Y-134278000D03*
X232414000Y-134278000D03*
X231914000Y-134278000D03*
X231414000Y-134278000D03*
X230914000Y-134278000D03*
X230414000Y-134278000D03*
X229914000Y-134278000D03*
X229414000Y-134278000D03*
X228914000Y-134278000D03*
D41*
X226984000Y-136208000D03*
X226984000Y-136708000D03*
X226984000Y-137208000D03*
X226984000Y-137708000D03*
X226984000Y-138208000D03*
X226984000Y-138708000D03*
X226984000Y-139208000D03*
X226984000Y-139708000D03*
X226984000Y-140208000D03*
X226984000Y-140708000D03*
X226984000Y-141208000D03*
X226984000Y-141708000D03*
X226984000Y-142208000D03*
X226984000Y-142708000D03*
X226984000Y-143208000D03*
X226984000Y-143708000D03*
D42*
X228914000Y-145638000D03*
X229414000Y-145638000D03*
X229914000Y-145638000D03*
X230414000Y-145638000D03*
X230914000Y-145638000D03*
X231414000Y-145638000D03*
X231914000Y-145638000D03*
X232414000Y-145638000D03*
X232914000Y-145638000D03*
X233414000Y-145638000D03*
X233914000Y-145638000D03*
X234414000Y-145638000D03*
X234914000Y-145638000D03*
X235414000Y-145638000D03*
X235914000Y-145638000D03*
X236414000Y-145638000D03*
%TD*%
D14*
%TO.C,R12*%
X252923651Y-139719150D03*
X251963651Y-139719150D03*
%TD*%
D43*
%TO.C,D10*%
X199893741Y-142326374D03*
X196533741Y-142326374D03*
%TD*%
D44*
%TO.C,C56*%
X243332000Y-128016000D03*
X244292000Y-128016000D03*
%TD*%
D15*
%TO.C,C39*%
X225911000Y-156092000D03*
X227461000Y-156092000D03*
%TD*%
D14*
%TO.C,R29*%
X252476000Y-135128000D03*
X251516000Y-135128000D03*
%TD*%
D15*
%TO.C,C48*%
X222596000Y-156032000D03*
X224146000Y-156032000D03*
%TD*%
D13*
%TO.C,C45*%
X229708000Y-160729998D03*
X229708000Y-159179998D03*
%TD*%
D15*
%TO.C,C27*%
X205509296Y-135476335D03*
X207059296Y-135476335D03*
%TD*%
M02*
