%TF.GenerationSoftware,KiCad,Pcbnew,7.0.2-0*%
%TF.CreationDate,2023-12-12T20:24:09-05:00*%
%TF.ProjectId,Monolith,4d6f6e6f-6c69-4746-982e-6b696361645f,rev?*%
%TF.SameCoordinates,Original*%
%TF.FileFunction,Copper,L2,Bot*%
%TF.FilePolarity,Positive*%
%FSLAX46Y46*%
G04 Gerber Fmt 4.6, Leading zero omitted, Abs format (unit mm)*
G04 Created by KiCad (PCBNEW 7.0.2-0) date 2023-12-12 20:24:09*
%MOMM*%
%LPD*%
G01*
G04 APERTURE LIST*
%TA.AperFunction,ComponentPad*%
%ADD10R,1.700000X1.700000*%
%TD*%
%TA.AperFunction,ComponentPad*%
%ADD11O,1.700000X1.700000*%
%TD*%
%TA.AperFunction,ComponentPad*%
%ADD12O,1.350000X1.700000*%
%TD*%
%TA.AperFunction,ComponentPad*%
%ADD13O,1.100000X1.500000*%
%TD*%
%TA.AperFunction,ViaPad*%
%ADD14C,0.800000*%
%TD*%
%TA.AperFunction,Conductor*%
%ADD15C,0.250000*%
%TD*%
%TA.AperFunction,Conductor*%
%ADD16C,0.200000*%
%TD*%
G04 APERTURE END LIST*
D10*
%TO.P,J2,1,Pin_1*%
%TO.N,/AGND*%
X255616000Y-127092000D03*
D11*
%TO.P,J2,2,Pin_2*%
%TO.N,/BIAS*%
X255616000Y-129632000D03*
%TO.P,J2,3,Pin_3*%
%TO.N,/1N*%
X255616000Y-132172000D03*
%TO.P,J2,4,Pin_4*%
%TO.N,/2N*%
X255616000Y-134712000D03*
%TO.P,J2,5,Pin_5*%
%TO.N,/3N*%
X255616000Y-137252000D03*
%TO.P,J2,6,Pin_6*%
%TO.N,/4N*%
X255616000Y-139792000D03*
%TO.P,J2,7,Pin_7*%
%TO.N,/5N*%
X255616000Y-142332000D03*
%TO.P,J2,8,Pin_8*%
%TO.N,/6N*%
X255616000Y-144872000D03*
%TO.P,J2,9,Pin_9*%
%TO.N,/7N*%
X255616000Y-147412000D03*
%TO.P,J2,10,Pin_10*%
%TO.N,/8N*%
X255616000Y-149952000D03*
%TO.P,J2,11,Pin_11*%
%TO.N,/SRB1*%
X255616000Y-152492000D03*
%TD*%
D12*
%TO.P,J1,6,Shield*%
%TO.N,GND*%
X196238017Y-162392000D03*
D13*
X196548017Y-159392000D03*
X201388017Y-159392000D03*
D12*
X201698017Y-162392000D03*
%TD*%
D10*
%TO.P,J3,1,Pin_1*%
%TO.N,/AGND*%
X259680000Y-127092000D03*
D11*
%TO.P,J3,2,Pin_2*%
%TO.N,/BIAS*%
X259680000Y-129632000D03*
%TO.P,J3,3,Pin_3*%
%TO.N,/1P*%
X259680000Y-132172000D03*
%TO.P,J3,4,Pin_4*%
%TO.N,/2P*%
X259680000Y-134712000D03*
%TO.P,J3,5,Pin_5*%
%TO.N,/3P*%
X259680000Y-137252000D03*
%TO.P,J3,6,Pin_6*%
%TO.N,/4P*%
X259680000Y-139792000D03*
%TO.P,J3,7,Pin_7*%
%TO.N,/5P*%
X259680000Y-142332000D03*
%TO.P,J3,8,Pin_8*%
%TO.N,/6P*%
X259680000Y-144872000D03*
%TO.P,J3,9,Pin_9*%
%TO.N,/7P*%
X259680000Y-147412000D03*
%TO.P,J3,10,Pin_10*%
%TO.N,/8P*%
X259680000Y-149952000D03*
%TO.P,J3,11,Pin_11*%
%TO.N,/SRB2*%
X259680000Y-152492000D03*
%TD*%
D10*
%TO.P,J5,1,Pin_1*%
%TO.N,/AVSS*%
X255616000Y-156464000D03*
D11*
%TO.P,J5,2,Pin_2*%
X255616000Y-159004000D03*
%TD*%
D10*
%TO.P,J6,1,Pin_1*%
%TO.N,/DIN*%
X218948000Y-143256000D03*
D11*
%TO.P,J6,2,Pin_2*%
%TO.N,/DOUT*%
X218948000Y-145796000D03*
%TO.P,J6,3,Pin_3*%
%TO.N,+3V3*%
X218948000Y-148336000D03*
%TO.P,J6,4,Pin_4*%
%TO.N,/GPIO1*%
X218948000Y-150876000D03*
%TO.P,J6,5,Pin_5*%
%TO.N,/CS*%
X218948000Y-153416000D03*
%TO.P,J6,6,Pin_6*%
%TO.N,GND*%
X218948000Y-155956000D03*
%TO.P,J6,7,Pin_7*%
%TO.N,/DRDY*%
X218948000Y-158496000D03*
%TD*%
D10*
%TO.P,J4,1,Pin_1*%
%TO.N,/AVDD*%
X259680000Y-156464000D03*
D11*
%TO.P,J4,2,Pin_2*%
X259680000Y-159004000D03*
%TD*%
D14*
%TO.N,GND*%
X200753741Y-134706374D03*
X196538272Y-131555982D03*
X208373741Y-137246374D03*
X205833741Y-137246374D03*
%TO.N,GNDA*%
X246471999Y-139030001D03*
X246472000Y-148844000D03*
X262220000Y-132588000D03*
X225911000Y-154940000D03*
X246472000Y-133604000D03*
X246488690Y-144070842D03*
X229975000Y-154940000D03*
X224895000Y-156972000D03*
X262220000Y-129540000D03*
X262220000Y-147320000D03*
X262220000Y-151892000D03*
X262220000Y-142240000D03*
X246472000Y-128524000D03*
X240135000Y-151384000D03*
X262220000Y-137160000D03*
X224895000Y-155291500D03*
X238852000Y-125984000D03*
%TO.N,/IN8P*%
X237644500Y-145796000D03*
X248504000Y-149352000D03*
%TO.N,/IN7N*%
X245764190Y-146856308D03*
X236728000Y-142748000D03*
%TO.N,/INSRB1*%
X239268000Y-127000000D03*
X238760000Y-131064000D03*
%TO.N,/BIAS_DRV*%
X252060000Y-151384000D03*
X251044000Y-131064000D03*
%TO.N,+3V3*%
X201220838Y-131623757D03*
X220984299Y-157484299D03*
X222212500Y-144996500D03*
X199776900Y-130968700D03*
X223520000Y-155448000D03*
X233555500Y-150216500D03*
X236071000Y-155956000D03*
X219972953Y-146820953D03*
X220980000Y-141224000D03*
X223012000Y-137802378D03*
X239119000Y-155448000D03*
X203149239Y-142470876D03*
X206533217Y-136500256D03*
X193133741Y-152486374D03*
%TO.N,Net-(U1-VREFN)*%
X231140000Y-125984000D03*
X232664000Y-130556000D03*
%TO.N,GND*%
X228689500Y-140208000D03*
X226456230Y-135331769D03*
X224946851Y-143296550D03*
X195770852Y-139786374D03*
X228092000Y-134112000D03*
X210523973Y-141224000D03*
X224053436Y-140215533D03*
X227676000Y-145796000D03*
X195138680Y-136295155D03*
X230216000Y-143764000D03*
%TO.N,/DIN*%
X207905473Y-131572000D03*
X190633473Y-134112000D03*
X209354973Y-131572000D03*
X225081484Y-136362902D03*
%TO.N,/CS*%
X223893966Y-139166473D03*
X199233310Y-147791837D03*
X202765350Y-143839985D03*
X222504000Y-141224000D03*
X220980000Y-151892000D03*
X192157473Y-148844000D03*
%TO.N,/DOUT*%
X184029473Y-132588000D03*
X191649473Y-134620000D03*
X188093473Y-132080000D03*
X224028000Y-142748000D03*
X225238102Y-141537898D03*
%TO.N,/DRDY*%
X223520000Y-141224000D03*
X185553473Y-133096000D03*
X199312451Y-137668000D03*
X210445473Y-136652000D03*
X213412951Y-140424500D03*
X196682322Y-135713616D03*
%TO.N,Net-(U1-VCAP4)*%
X231648000Y-130556000D03*
X230124000Y-129540000D03*
%TO.N,/AVDD*%
X233264000Y-143256000D03*
X233772000Y-136144000D03*
X231189500Y-143256000D03*
X241659000Y-157480000D03*
X227943000Y-155448000D03*
X233264000Y-147320000D03*
%TO.N,/1N*%
X254516205Y-133687795D03*
%TO.N,/2N*%
X254008205Y-135719795D03*
%TO.N,/3N*%
X253813293Y-138875500D03*
%TO.N,/4N*%
X253885423Y-140922577D03*
%TO.N,/5N*%
X254092000Y-143979500D03*
%TO.N,/6N*%
X254008205Y-145879795D03*
%TO.N,/7N*%
X253851378Y-148576622D03*
%TO.N,/8N*%
X253076000Y-150368000D03*
%TO.N,/SRB1*%
X253584000Y-126492000D03*
X257140000Y-152400000D03*
%TO.N,/SRB2*%
X258156000Y-128524000D03*
X258156000Y-152400000D03*
%TO.N,/AGND*%
X254290755Y-127198755D03*
X254092000Y-129032000D03*
%TO.N,/USB Port/USBtoUART/DP*%
X203309079Y-148642172D03*
X197613834Y-131581253D03*
%TO.N,/USB Port/USBtoUART/DN*%
X203293741Y-144866374D03*
X198545254Y-131970670D03*
%TO.N,/USB Port/USBtoUART/DTR*%
X194725486Y-129059227D03*
X186436000Y-127000000D03*
X190593741Y-127086374D03*
%TO.N,/GPIO0*%
X183050100Y-148859856D03*
X185420000Y-122936000D03*
%TO.N,/GPIO1*%
X190633473Y-146812000D03*
X198761473Y-146812000D03*
X222504000Y-142748000D03*
X224536500Y-138400868D03*
X201325620Y-141905861D03*
%TO.N,/U0RXD*%
X188162374Y-134815007D03*
X185513741Y-134706374D03*
%TD*%
D15*
%TO.N,GND*%
X197238001Y-130856253D02*
X198456142Y-130856253D01*
X205833741Y-137246374D02*
X208373741Y-137246374D01*
X196538272Y-131555982D02*
X197238001Y-130856253D01*
X198456142Y-130856253D02*
X200753741Y-133153852D01*
X200753741Y-133153852D02*
X200753741Y-134706374D01*
%TO.N,GNDA*%
X246488690Y-148827310D02*
X246472000Y-148844000D01*
X246472000Y-128524000D02*
X243932000Y-125984000D01*
X262220000Y-147320000D02*
X262220000Y-151892000D01*
X246689000Y-148627000D02*
X246472000Y-148844000D01*
X260445000Y-153667000D02*
X249780305Y-153667000D01*
X243932000Y-125984000D02*
X238852000Y-125984000D01*
X262220000Y-132588000D02*
X262220000Y-137160000D01*
X262220000Y-137160000D02*
X262220000Y-142240000D01*
X249780305Y-153667000D02*
X247497305Y-151384000D01*
X244449000Y-125467000D02*
X243932000Y-125984000D01*
X246471999Y-139030001D02*
X246471999Y-144054151D01*
X249229000Y-149652305D02*
X249229000Y-149051695D01*
X247497305Y-151384000D02*
X249229000Y-149652305D01*
X229758000Y-154723000D02*
X229975000Y-154940000D01*
X224895000Y-156972000D02*
X224895000Y-155291500D01*
X249229000Y-149051695D02*
X248804305Y-148627000D01*
X246472000Y-133604000D02*
X246472000Y-139030000D01*
X246472000Y-128524000D02*
X246472000Y-133604000D01*
X262220000Y-129540000D02*
X262220000Y-132588000D01*
X246488690Y-144070842D02*
X246488690Y-148827310D01*
X262220000Y-142240000D02*
X262220000Y-147320000D01*
X262220000Y-151892000D02*
X260445000Y-153667000D01*
X248804305Y-148627000D02*
X246689000Y-148627000D01*
X246471999Y-144054151D02*
X246488690Y-144070842D01*
X262220000Y-129540000D02*
X262220000Y-127282000D01*
X226128000Y-154723000D02*
X229758000Y-154723000D01*
X240135000Y-151384000D02*
X247497305Y-151384000D01*
X225911000Y-154940000D02*
X226128000Y-154723000D01*
X260405000Y-125467000D02*
X244449000Y-125467000D01*
X262220000Y-127282000D02*
X260405000Y-125467000D01*
X246472000Y-139030000D02*
X246471999Y-139030001D01*
D16*
%TO.N,/IN8P*%
X242816500Y-146178450D02*
X238026950Y-146178450D01*
X238026950Y-146178450D02*
X237644500Y-145796000D01*
X248504000Y-149352000D02*
X248312000Y-149544000D01*
X246182050Y-149544000D02*
X242816500Y-146178450D01*
X248312000Y-149544000D02*
X246182050Y-149544000D01*
%TO.N,/IN7N*%
X239514332Y-145778450D02*
X244686332Y-145778450D01*
X236728000Y-142748000D02*
X236728000Y-142992118D01*
X236728000Y-142992118D02*
X239514332Y-145778450D01*
X244686332Y-145778450D02*
X245764190Y-146856308D01*
D15*
%TO.N,/INSRB1*%
X239268000Y-127000000D02*
X239268000Y-130556000D01*
X239268000Y-130556000D02*
X238760000Y-131064000D01*
%TO.N,/BIAS_DRV*%
X252060000Y-151384000D02*
X252060000Y-132080000D01*
X252060000Y-132080000D02*
X251044000Y-131064000D01*
%TO.N,+3V3*%
X204034079Y-143066712D02*
X203293741Y-142326374D01*
X220984299Y-157484299D02*
X222212500Y-156256098D01*
X196252943Y-149367172D02*
X203609384Y-149367172D01*
X203293741Y-142326374D02*
X203149239Y-142470876D01*
X239119000Y-155448000D02*
X238103000Y-155448000D01*
X200565781Y-130968700D02*
X201220838Y-131623757D01*
X203609384Y-149367172D02*
X204034079Y-148942477D01*
X225552000Y-153924000D02*
X225044000Y-153924000D01*
X225044000Y-153924000D02*
X223520000Y-155448000D01*
X213418000Y-138234000D02*
X210820000Y-135636000D01*
X199776900Y-130968700D02*
X200565781Y-130968700D01*
X233555500Y-150900500D02*
X238103000Y-155448000D01*
X222212500Y-156256098D02*
X222212500Y-144996500D01*
X236071000Y-155956000D02*
X234039000Y-153924000D01*
X233555500Y-150216500D02*
X233555500Y-150900500D01*
X207397473Y-135636000D02*
X206533217Y-136500256D01*
X193133741Y-152486374D02*
X196252943Y-149367172D01*
X234039000Y-153924000D02*
X225552000Y-153924000D01*
X222580378Y-138234000D02*
X213418000Y-138234000D01*
X220123000Y-146670906D02*
X220123000Y-142081000D01*
X238103000Y-155448000D02*
X236579000Y-155448000D01*
X210820000Y-135636000D02*
X207397473Y-135636000D01*
X223012000Y-137802378D02*
X222580378Y-138234000D01*
X219972953Y-146820953D02*
X220123000Y-146670906D01*
X220123000Y-142081000D02*
X220980000Y-141224000D01*
X204034079Y-148942477D02*
X204034079Y-143066712D01*
X236579000Y-155448000D02*
X236071000Y-155956000D01*
%TO.N,Net-(U1-VREFN)*%
X232664000Y-127508000D02*
X231140000Y-125984000D01*
X232664000Y-130556000D02*
X232664000Y-127508000D01*
%TO.N,GND*%
X224946851Y-143296550D02*
X228143450Y-143296550D01*
X228692000Y-144780000D02*
X228692000Y-142748000D01*
X224053436Y-140215533D02*
X223917721Y-140215533D01*
X228689500Y-137565039D02*
X228689500Y-140208000D01*
X228143450Y-143296550D02*
X228692000Y-142748000D01*
X195138680Y-139154202D02*
X195138680Y-136295155D01*
X195770852Y-139786374D02*
X195138680Y-139154202D01*
X229200000Y-142748000D02*
X230216000Y-143764000D01*
X228692000Y-140208000D02*
X228689500Y-140208000D01*
X223402188Y-139700000D02*
X212047973Y-139700000D01*
X223917721Y-140215533D02*
X223402188Y-139700000D01*
X228188231Y-137063769D02*
X228689500Y-137565039D01*
X212047973Y-139700000D02*
X210523973Y-141224000D01*
X226456230Y-135331769D02*
X228188231Y-137063769D01*
X228692000Y-142748000D02*
X229200000Y-142748000D01*
X228188231Y-137063769D02*
X228188231Y-134208231D01*
X228692000Y-142748000D02*
X228692000Y-140208000D01*
X228188231Y-134208231D02*
X228092000Y-134112000D01*
X227676000Y-145796000D02*
X228692000Y-144780000D01*
%TO.N,/DIN*%
X194501773Y-130243700D02*
X190633473Y-134112000D01*
X221818677Y-137334000D02*
X214042000Y-137334000D01*
X222525299Y-136627378D02*
X221818677Y-137334000D01*
X209354973Y-132646973D02*
X209354973Y-131572000D01*
X202194386Y-131572000D02*
X200866086Y-130243700D01*
X214042000Y-137334000D02*
X209354973Y-132646973D01*
X225081484Y-136362902D02*
X224817008Y-136627378D01*
X224817008Y-136627378D02*
X222525299Y-136627378D01*
X200866086Y-130243700D02*
X194501773Y-130243700D01*
X207905473Y-131572000D02*
X202194386Y-131572000D01*
%TO.N,/CS*%
X193209636Y-147791837D02*
X199233310Y-147791837D01*
X202825473Y-143764000D02*
X202825473Y-143779862D01*
X205402810Y-139192000D02*
X202317473Y-142277337D01*
X192157473Y-148844000D02*
X193209636Y-147791837D01*
X202317473Y-143256000D02*
X202825473Y-143764000D01*
X202825473Y-143779862D02*
X202765350Y-143839985D01*
X223868439Y-139192000D02*
X205402810Y-139192000D01*
X222504000Y-141224000D02*
X221488000Y-142240000D01*
X221488000Y-151384000D02*
X220980000Y-151892000D01*
X223893966Y-139166473D02*
X223868439Y-139192000D01*
X202317473Y-142277337D02*
X202317473Y-143256000D01*
X221488000Y-142240000D02*
X221488000Y-151384000D01*
%TO.N,/DOUT*%
X213797882Y-137784000D02*
X208630473Y-132616591D01*
X225261000Y-137377000D02*
X224961378Y-137077378D01*
X188093473Y-133084405D02*
X189997684Y-134988616D01*
X222711695Y-137077378D02*
X222005073Y-137784000D01*
X224028000Y-142748000D02*
X225238102Y-141537898D01*
X186052345Y-123371374D02*
X184029473Y-125394246D01*
X189997684Y-134988616D02*
X191280857Y-134988616D01*
X225238102Y-141537898D02*
X225261000Y-141515000D01*
X191280857Y-134988616D02*
X191649473Y-134620000D01*
X208630473Y-132616591D02*
X208630473Y-129246710D01*
X202755137Y-123371374D02*
X186052345Y-123371374D01*
X222005073Y-137784000D02*
X213797882Y-137784000D01*
X188093473Y-132080000D02*
X188093473Y-133084405D01*
X208630473Y-129246710D02*
X202755137Y-123371374D01*
X224961378Y-137077378D02*
X222711695Y-137077378D01*
X184029473Y-125394246D02*
X184029473Y-132588000D01*
X225261000Y-141515000D02*
X225261000Y-137377000D01*
%TO.N,/DRDY*%
X196682322Y-135713616D02*
X196538861Y-135570155D01*
X223520000Y-140706695D02*
X223237805Y-140424500D01*
X189942827Y-135570155D02*
X187468672Y-133096000D01*
X196538861Y-135570155D02*
X189942827Y-135570155D01*
X209126099Y-137971374D02*
X199615825Y-137971374D01*
X187468672Y-133096000D02*
X185553473Y-133096000D01*
X210445473Y-136652000D02*
X209126099Y-137971374D01*
X199615825Y-137971374D02*
X199312451Y-137668000D01*
X223237805Y-140424500D02*
X213412951Y-140424500D01*
X223520000Y-141224000D02*
X223520000Y-140706695D01*
%TO.N,Net-(U1-VCAP4)*%
X230632000Y-129540000D02*
X230124000Y-129540000D01*
X231648000Y-130556000D02*
X230632000Y-129540000D01*
%TO.N,/AVDD*%
X233264000Y-143256000D02*
X231189500Y-143256000D01*
X233264000Y-136652000D02*
X233772000Y-136144000D01*
X227943000Y-155448000D02*
X229176000Y-156681000D01*
X233264000Y-147320000D02*
X233264000Y-136652000D01*
X229176000Y-156681000D02*
X240860000Y-156681000D01*
X240860000Y-156681000D02*
X241659000Y-157480000D01*
D16*
%TO.N,/1N*%
X254516205Y-133687795D02*
X254516205Y-133271795D01*
X254516205Y-133271795D02*
X255616000Y-132172000D01*
%TO.N,/2N*%
X254008205Y-135719795D02*
X254608205Y-135719795D01*
X254608205Y-135719795D02*
X255616000Y-134712000D01*
%TO.N,/3N*%
X253992500Y-138875500D02*
X255616000Y-137252000D01*
X253813293Y-138875500D02*
X253992500Y-138875500D01*
%TO.N,/4N*%
X254485423Y-140922577D02*
X255616000Y-139792000D01*
X253885423Y-140922577D02*
X254485423Y-140922577D01*
%TO.N,/5N*%
X254092000Y-143856000D02*
X255616000Y-142332000D01*
X254092000Y-143979500D02*
X254092000Y-143856000D01*
%TO.N,/6N*%
X254608205Y-145879795D02*
X255616000Y-144872000D01*
X254008205Y-145879795D02*
X254608205Y-145879795D01*
%TO.N,/7N*%
X253851378Y-148576622D02*
X254451378Y-148576622D01*
X254451378Y-148576622D02*
X255616000Y-147412000D01*
%TO.N,/8N*%
X253076000Y-150368000D02*
X253492000Y-149952000D01*
X253492000Y-149952000D02*
X255616000Y-149952000D01*
D15*
%TO.N,/SRB1*%
X254159000Y-125917000D02*
X253584000Y-126492000D01*
X257140000Y-152400000D02*
X257140000Y-126266000D01*
X256791000Y-125917000D02*
X254159000Y-125917000D01*
X257140000Y-126266000D02*
X256791000Y-125917000D01*
%TO.N,/SRB2*%
X258156000Y-152400000D02*
X258156000Y-128524000D01*
%TO.N,/AGND*%
X254092000Y-127397510D02*
X254290755Y-127198755D01*
X254092000Y-129032000D02*
X254092000Y-127397510D01*
D16*
%TO.N,/USB Port/USBtoUART/DP*%
X203309079Y-148642172D02*
X202163317Y-148642172D01*
X197381822Y-143860677D02*
X197381822Y-131813265D01*
X202163317Y-148642172D02*
X197381822Y-143860677D01*
X197381822Y-131813265D02*
X197613834Y-131581253D01*
%TO.N,/USB Port/USBtoUART/DN*%
X201809473Y-144866374D02*
X203293741Y-144866374D01*
X198545254Y-131970670D02*
X198612951Y-132038367D01*
X198612951Y-140630531D02*
X201809473Y-143827053D01*
X201809473Y-143827053D02*
X201809473Y-144866374D01*
X198612951Y-132038367D02*
X198612951Y-140630531D01*
D15*
%TO.N,/USB Port/USBtoUART/DTR*%
X194725486Y-129059227D02*
X192752633Y-127086374D01*
X190593741Y-127086374D02*
X186522374Y-127086374D01*
X192752633Y-127086374D02*
X190593741Y-127086374D01*
X186522374Y-127086374D02*
X186436000Y-127000000D01*
%TO.N,/GPIO0*%
X184584115Y-122936000D02*
X183050100Y-124470015D01*
X185420000Y-122936000D02*
X184584115Y-122936000D01*
X183050100Y-124470015D02*
X183050100Y-148859856D01*
%TO.N,/GPIO1*%
X223351134Y-138684000D02*
X204547481Y-138684000D01*
X224536500Y-138400868D02*
X224618966Y-138483334D01*
X224471802Y-141278893D02*
X224471802Y-141297503D01*
X224536500Y-138400868D02*
X223634266Y-138400868D01*
X224471802Y-141297503D02*
X223746305Y-142023000D01*
X224618966Y-139617034D02*
X224778436Y-139776504D01*
X204547481Y-138684000D02*
X201325620Y-141905861D01*
X224778436Y-140972259D02*
X224471802Y-141278893D01*
X223634266Y-138400868D02*
X223351134Y-138684000D01*
X223746305Y-142023000D02*
X223229000Y-142023000D01*
X224778436Y-139776504D02*
X224778436Y-140972259D01*
X190633473Y-146812000D02*
X198761473Y-146812000D01*
X224618966Y-138483334D02*
X224618966Y-139617034D01*
X223229000Y-142023000D02*
X222504000Y-142748000D01*
%TO.N,/U0RXD*%
X188053741Y-134706374D02*
X185513741Y-134706374D01*
X188162374Y-134815007D02*
X188053741Y-134706374D01*
%TD*%
M02*
