M48
; DRILL file {KiCad 7.0.2-0} date 2023 December 10, Sunday 18:52:09
; FORMAT={-:-/ absolute / inch / decimal}
; #@! TF.CreationDate,2023-12-10T18:52:09-05:00
; #@! TF.GenerationSoftware,Kicad,Pcbnew,7.0.2-0
; #@! TF.FileFunction,Plated,1,2,PTH
FMAT,2
INCH
; #@! TA.AperFunction,Plated,PTH,ViaDrill
T1C0.0157
; #@! TA.AperFunction,Plated,PTH,ComponentDrill
T2C0.0256
; #@! TA.AperFunction,Plated,PTH,ComponentDrill
T3C0.0276
; #@! TA.AperFunction,Plated,PTH,ComponentDrill
T4C0.0394
%
G90
G05
T1
X7.2067Y-5.8606
X7.2453Y-5.22
X7.3Y-4.84
X7.3037Y-5.3034
X7.3053Y-5.24
X7.34Y-5.0
X7.4053Y-5.2
X7.408Y-5.3077
X7.5037Y-5.0034
X7.5053Y-5.28
X7.5053Y-5.78
X7.5453Y-5.3
X7.5653Y-5.86
X7.6037Y-6.0034
X7.6664Y-5.0811
X7.6826Y-5.366
X7.7075Y-5.5034
X7.7377Y-5.1794
X7.7434Y-5.3431
X7.7801Y-5.1804
X7.8167Y-5.1957
X7.8253Y-5.78
X7.8438Y-5.8186
X7.8469Y-5.42
X7.8652Y-5.1562
X7.9037Y-5.3034
X7.9221Y-5.182
X7.9262Y-5.5868
X7.9829Y-5.663
X7.998Y-5.6091
X8.0037Y-5.7034
X8.0043Y-5.8521
X8.1037Y-5.4034
X8.1312Y-5.374
X8.1853Y-5.18
X8.2037Y-5.4034
X8.2423Y-5.18
X8.2853Y-5.38
X8.2883Y-5.56
X8.4021Y-5.5285
X8.6604Y-5.7804
X8.7Y-5.56
X8.7Y-5.98
X8.7002Y-6.2002
X8.7485Y-5.7085
X8.76Y-5.56
X8.76Y-5.62
X8.78Y-5.4253
X8.8Y-5.56
X8.8Y-6.12
X8.8147Y-5.479
X8.82Y-5.62
X8.821Y-5.5203
X8.84Y-5.4489
X8.8541Y-6.1138
X8.8541Y-6.18
X8.8562Y-5.6416
X8.8615Y-5.3686
X8.8676Y-5.5724
X8.8941Y-6.1
X8.9156Y-5.328
X8.9636Y-5.74
X8.9741Y-6.12
X8.98Y-5.28
X9.0035Y-5.52
X9.0541Y-6.1
X9.0636Y-5.66
X9.1019Y-5.64
X9.1836Y-5.64
X9.1836Y-5.8
X9.1951Y-5.914
X9.2036Y-5.36
X9.2941Y-6.14
X9.32Y-5.62
X9.3561Y-5.74
X9.4Y-5.16
X9.4036Y-4.96
X9.4141Y-6.12
X9.42Y-5.0
X9.4541Y-5.96
X9.5141Y-6.2
X9.6758Y-5.7817
X9.7036Y-5.4736
X9.7036Y-5.06
X9.7036Y-5.26
X9.7036Y-5.86
X9.7043Y-5.6721
X9.7836Y-5.88
X9.8836Y-5.16
X9.9236Y-5.96
X9.9636Y-5.92
X9.9836Y-4.98
X9.9926Y-5.4675
X9.9941Y-5.8495
X9.9955Y-5.5481
X10.0003Y-5.3433
X10.0003Y-5.7433
X10.0036Y-5.08
X10.0036Y-5.6685
X10.0114Y-5.0078
X10.0203Y-5.2633
X10.1236Y-6.0
X10.1636Y-5.06
X10.1636Y-6.0
X10.3236Y-5.1
X10.3236Y-5.22
X10.3236Y-5.4
X10.3236Y-5.6
X10.3236Y-5.8
X10.3236Y-5.98
T4
X8.62Y-5.64
X8.62Y-5.74
X8.62Y-5.84
X8.62Y-5.94
X8.62Y-6.04
X8.62Y-6.14
X8.62Y-6.24
X10.0636Y-5.0036
X10.0636Y-5.1036
X10.0636Y-5.2036
X10.0636Y-5.3036
X10.0636Y-5.4036
X10.0636Y-5.5036
X10.0636Y-5.6036
X10.0636Y-5.7036
X10.0636Y-5.8036
X10.0636Y-5.9036
X10.0636Y-6.0036
X10.0636Y-6.16
X10.0636Y-6.26
X10.2236Y-5.0036
X10.2236Y-5.1036
X10.2236Y-5.2036
X10.2236Y-5.3036
X10.2236Y-5.4036
X10.2236Y-5.5036
X10.2236Y-5.6036
X10.2236Y-5.7036
X10.2236Y-5.8036
X10.2236Y-5.9036
X10.2236Y-6.0036
X10.2236Y-6.16
X10.2236Y-6.26
T2
G00X7.7381Y-6.2831
M15
G01X7.7381Y-6.2674
M16
G05
G00X7.9287Y-6.2831
M15
G01X7.9287Y-6.2674
M16
G05
T3
G00X7.7259Y-6.4032
M15
G01X7.7259Y-6.3835
M16
G05
G00X7.9409Y-6.4032
M15
G01X7.9409Y-6.3835
M16
G05
T0
M30
